<svg width="72" height="72" viewBox="0 0 72 72" fill="none" xmlns="http://www.w3.org/2000/svg">
<path d="M17.7373 19.8467C18.0285 19.5554 18.2226 19.2641 18.4167 19.0699C18.7079 18.8757 19.0961 18.7786 19.4844 18.5844C19.5814 18.5844 19.6785 18.4873 19.6785 18.3902C19.9697 18.0989 20.1638 17.7105 20.7461 17.8076C20.7461 17.8076 20.8432 17.8076 20.8432 17.7105C21.2314 17.1279 21.9109 17.225 22.3962 17.0308C22.9785 16.7395 23.5609 16.5453 24.2403 16.5453C24.5315 16.5453 24.8226 16.254 25.2109 16.0598C25.2109 15.0888 25.1138 14.0207 25.2109 12.8555C25.3079 11.9816 25.502 11.1077 25.5991 10.2338C25.6962 9.84543 25.5991 9.45701 25.5991 8.97151C25.6962 8.48601 25.5991 7.80632 25.8903 7.51502C26.4726 6.73822 26.6668 5.67012 27.5403 5.08753C28.0256 4.79623 28.5109 4.31073 29.0932 4.11653C29.1903 4.11653 29.1903 3.92234 29.2874 3.82524C29.6756 3.63104 29.9668 3.33973 30.355 3.14553C30.6462 2.95134 30.8403 2.75715 31.1315 2.46586C31.3256 2.36876 31.5197 2.27164 31.8109 2.17454C32.3932 1.88324 33.0727 1.68906 33.655 1.49486C34.5286 1.20356 35.305 1.00935 36.1786 0.81515C36.7609 0.718051 37.3433 0.620957 37.9256 0.426758C38.605 0.329658 39.2845 0.135465 39.9639 0.0383653C40.158 0.0383653 40.5462 -0.155846 40.5462 0.329652C40.5462 0.329652 40.6433 0.426758 40.7403 0.426758C41.7109 0.523857 42.6815 0.52384 43.6521 0.620939C44.2345 0.718039 44.9139 0.620957 45.3021 0.912256C46.1757 1.49485 47.3404 1.68903 48.0198 2.56293C48.311 2.85423 48.7963 2.95134 49.0874 3.24264C49.2815 3.43684 49.4757 3.72813 49.6698 4.01943C49.7668 4.11653 49.8639 4.21365 50.058 4.40785C50.4463 4.89335 50.8345 5.37884 51.2227 5.86434C51.5139 6.25274 51.8051 6.64112 52.0963 7.02952C52.1933 7.12662 52.2904 7.32081 52.2904 7.41791C52.1933 8.19471 52.5816 8.87442 52.8727 9.55412C53.0669 9.84541 53.1639 10.1367 53.261 10.5251C53.358 11.7874 53.4551 12.9526 53.4551 14.2149C53.4551 14.5062 53.261 14.8946 53.261 15.1859C53.4551 16.1569 52.7757 16.9337 52.9698 17.9047C52.9698 18.196 52.9698 18.7786 52.4845 19.0699C52.2904 19.167 52.2904 19.5554 52.1933 19.9438C52.5816 20.2351 53.1639 20.4293 53.5521 20.8177C53.9404 21.0119 54.2316 21.3032 54.6198 21.5945C54.911 21.7887 55.2022 21.9829 55.4933 22.1771C56.2698 22.6626 57.0463 23.2452 57.9198 23.7307C58.7933 24.1191 59.3757 24.8958 60.2492 25.4784C61.2198 26.061 61.8022 27.0321 62.6757 27.7118C63.0639 28.0031 63.2581 28.5856 63.5492 29.0711C63.6463 29.1682 63.6463 29.2653 63.7434 29.3624C64.0345 29.7508 64.2287 30.1392 64.6169 30.4305C65.1022 30.8189 65.3934 31.3044 65.5875 31.9841L65.6845 32.0812C66.5581 32.9551 67.0434 34.0232 67.8198 34.9942C68.111 35.3826 68.3051 35.9652 68.4993 36.4507C68.7904 37.1304 69.0816 37.8101 69.4699 38.5869C69.4699 38.684 69.4698 38.684 69.5669 38.7811C69.761 39.2666 69.9551 39.8492 70.0522 40.3347C70.1493 40.626 70.2463 40.9173 70.3434 41.2086C70.4404 41.6941 70.4404 42.1796 70.6346 42.6651C70.8287 43.3448 71.0228 44.1216 71.2169 44.8013C71.314 45.481 71.411 46.1607 71.411 46.8404C71.411 47.0346 71.411 47.2288 71.411 47.423C71.314 48.1027 71.314 48.6853 71.1199 49.365C70.9257 49.8505 70.5375 50.3359 70.3434 50.6272C70.3434 51.1127 70.3434 51.5011 70.2463 51.6953C70.0522 51.9866 69.8581 52.278 69.664 52.4722C69.5669 52.6664 69.3728 52.8605 69.2757 53.0547C69.2757 53.1518 69.1787 53.1518 69.0816 53.2489C68.7904 53.5402 68.4993 53.8315 68.3051 54.2199C68.111 54.6083 68.014 55.0938 67.8198 55.4822C67.6257 55.6764 67.3345 55.8706 67.0434 55.9677C66.5581 56.1619 65.9757 56.259 65.4904 56.3561H65.3934C64.7139 56.4532 64.0345 56.4532 63.3551 56.5503C63.0639 56.5503 62.6757 56.3561 62.4816 56.8416C62.4816 56.8416 62.2875 56.8416 62.1904 56.8416C61.7051 56.8416 61.0257 57.0358 60.6375 56.8416C60.0551 56.4532 59.4728 56.5503 58.8904 56.4532C58.0169 56.1619 57.1433 56.1619 56.2698 56.0648C56.2698 56.1619 56.2698 56.259 56.1727 56.259C56.4639 56.3561 56.7551 56.4532 57.0463 56.5503C57.4345 56.6474 57.9198 57.5213 57.9198 57.9097C57.9198 58.0068 57.9198 58.1039 57.9198 58.2981C58.308 58.2981 58.6963 58.201 58.9875 58.2981C59.1816 58.3952 59.4728 58.5894 59.6669 58.6865C59.5698 58.7836 59.4728 58.9778 59.3757 59.0749C59.1816 59.8517 59.1816 59.8517 58.211 60.0459C57.8228 60.4343 57.4345 60.7256 57.2404 61.0169C57.0463 61.2111 56.9492 61.5995 56.7551 61.7937C56.3669 62.1821 55.7845 62.5705 55.3963 62.9589C54.8139 63.5415 54.0374 64.027 53.6492 64.9009C53.358 65.5806 52.7757 66.1632 52.3874 66.8429C52.3874 66.94 52.4845 67.0371 52.5816 67.2313C51.9992 67.6197 51.708 68.2023 51.611 68.9791C51.611 69.1733 51.4168 69.2704 51.3198 69.4646C51.1257 69.9501 51.0286 70.4356 50.8345 70.9211C50.7374 71.1153 50.7374 71.4066 50.6404 71.6008C50.5433 71.8921 50.3492 72.2805 49.961 71.6979C49.6698 71.4066 49.1845 71.3095 48.6992 71.1153C48.5051 71.0182 48.408 70.824 48.2139 70.824C47.6315 70.6298 47.0492 70.3385 46.758 69.7559C46.6609 69.6588 46.5639 69.5617 46.3698 69.4646C45.7874 68.9791 45.2051 68.3965 44.6227 67.911C44.4286 67.8139 44.2345 67.7168 44.1374 67.6197C43.458 67.0371 42.7786 66.4545 42.2933 65.6777C41.7109 64.8038 40.8374 64.1241 40.255 63.1531C39.9639 62.5705 39.3815 62.1821 38.8962 61.5995C38.7021 61.3082 38.605 61.0169 38.4109 60.8227C37.9256 60.3372 37.5374 59.7546 37.2462 59.172C37.0521 58.5894 36.6639 58.5894 36.1786 58.9778C35.5962 59.4633 34.9168 59.8517 34.3344 60.3372C34.2374 60.4343 34.1403 60.5314 34.0433 60.6285C33.558 61.0169 33.0727 61.4053 32.5874 61.7937C32.1991 62.1821 31.8109 62.4734 31.4227 62.8618C30.9374 63.3473 30.355 63.7357 29.7727 64.2212C29.7727 64.3183 29.7727 64.5125 29.7727 64.7067L29.6756 64.6096C29.0932 65.0951 28.6079 65.5806 28.0256 66.0661C27.8315 66.2603 27.6373 66.4545 27.4432 66.6487C27.1521 66.94 26.9579 67.2313 27.055 67.7168C27.055 67.911 27.055 68.1052 27.055 68.2994C26.9579 68.2994 26.9579 68.2994 26.8609 68.3965C26.7638 68.2023 26.6668 68.0081 26.6668 68.0081C26.0844 68.0081 25.5991 68.1052 25.1138 68.0081C25.0167 68.0081 25.0168 67.4255 25.0168 67.1342C25.2109 67.1342 25.3079 67.0371 25.502 67.0371C25.405 66.6487 25.3079 66.3574 25.2109 65.969L25.1138 65.8719C25.2109 64.998 24.6285 64.4154 24.3373 63.7357C23.9491 62.9589 23.755 62.085 22.9785 61.5024C22.7844 61.4053 22.7844 61.114 22.6873 60.9198C22.2991 60.2401 21.9109 59.5604 21.5226 58.9778C21.1344 58.4923 20.6491 58.201 20.2608 57.8126C19.6785 57.3271 18.9991 57.23 18.3197 57.1329C17.9314 57.1329 17.5432 57.1329 17.155 57.1329C16.7667 57.1329 16.4755 57.0358 16.1844 56.6474C15.9902 56.4532 15.7961 56.3561 15.602 56.1619C15.2138 55.9677 15.1167 55.288 15.505 55.0938C16.0873 54.8996 16.4755 54.5112 16.7667 54.0257C16.8638 53.8315 17.0579 53.5402 17.252 53.346C17.9314 52.8605 18.1256 51.9867 18.6108 51.4041C18.7079 51.307 18.805 51.2098 18.9991 51.1127C18.2226 50.8214 17.6403 51.2098 17.252 51.5982C16.6697 52.0837 15.8932 52.1808 15.3108 52.5692C14.5344 52.9576 13.6608 52.6663 12.8844 53.0547C12.4961 53.2489 12.1079 53.6373 11.7196 53.8315C11.5255 53.9286 11.3314 54.0257 11.1373 54.0257C10.2638 54.1228 9.48728 54.1228 8.61375 54.2199C8.41963 54.2199 8.12846 54.1228 7.93434 54.0257C7.35198 53.6373 6.47845 54.1228 6.09021 53.346C6.09021 53.2489 5.79904 53.2489 5.70198 53.2489C5.21668 53.2489 4.9255 53.0547 4.82844 52.6663C4.44021 52.4721 4.05197 52.2779 3.76079 52.0837C3.08138 51.404 2.49902 50.8215 1.91667 50.0447C1.62549 49.5592 1.52843 48.9766 1.33431 48.394C1.23726 47.9085 1.04314 47.5201 1.04314 47.0346C0.946078 46.2578 1.04314 45.481 1.04314 44.7042C0.946078 43.9274 1.23726 43.3448 1.52843 42.6651C1.72255 42.1796 1.72255 41.6941 1.81961 41.2086C1.91667 40.8202 2.11079 40.4318 2.20784 40.0434C2.3049 39.9463 2.30491 39.7521 2.30491 39.655C2.49902 39.2666 2.59608 38.7811 2.7902 38.3927C2.88726 38.2956 2.98432 38.1014 2.88726 38.0043C2.59608 37.5188 2.88726 37.1304 3.17844 36.742C3.37255 36.4507 3.37256 36.0623 3.56667 35.6739C3.95491 34.8 4.24609 33.7319 4.82844 33.0522C5.4108 32.3725 5.70198 31.5957 6.18727 30.8189C6.76963 30.0421 7.35198 29.3624 7.93434 28.5856C8.32257 28.1001 8.80787 27.5175 9.29317 27.032C9.39023 26.9349 9.29317 26.7408 9.39022 26.6437C9.48728 26.4495 9.58435 26.2552 9.6814 26.061C10.1667 25.5755 10.652 25.1872 11.1373 24.7017C11.3314 24.5075 11.5255 24.4104 11.7196 24.2162C11.8167 24.1191 12.0108 24.0219 12.1079 23.9248C12.302 23.148 13.0785 22.8568 13.6608 22.2742C14.1461 21.7887 14.6314 21.2061 15.2138 20.8177C15.8932 20.3322 16.5726 19.9438 17.252 19.5554C17.5432 19.7496 17.7373 19.8467 17.7373 19.8467ZM12.302 42.568C12.1079 42.9564 12.1079 43.2477 11.9138 43.3448C11.6226 43.6361 11.1373 43.9274 10.7491 43.7332C10.3608 43.4419 10.0696 42.9564 9.6814 42.568V42.3738C9.97258 42.0825 10.1667 41.7912 10.4579 41.597C10.8461 41.3057 11.2344 41.2086 11.7196 41.0144C12.2049 40.8202 12.7873 40.626 13.2726 40.4318C14.2432 40.0434 15.1167 39.5579 16.0873 39.0724C16.3785 38.9753 16.6697 38.8782 17.0579 38.7811C17.7373 38.5869 18.4167 38.3927 19.0961 38.1985C19.8726 38.0043 19.7756 37.9072 19.8726 37.1304C19.9697 36.4507 19.6785 35.8681 19.4844 35.1884C19.1932 34.0232 19.0961 32.858 18.4167 31.887C18.3197 31.6928 18.3197 31.4015 18.2226 31.2073C17.9314 30.8189 17.6403 30.4305 17.3491 30.0421C17.9314 29.8479 18.6108 30.2363 19.0961 29.6537C20.1638 29.8479 21.2314 29.3624 22.2991 29.945C22.7844 30.2363 23.3667 30.3334 23.9491 30.4305C24.7256 30.5276 25.1138 31.2073 25.7932 31.4986C26.0844 31.5957 26.2785 32.0812 26.6668 32.1783C26.9579 32.2754 27.2491 32.4696 27.4432 32.6638C28.1226 33.2464 28.705 33.9261 29.2874 34.5087C30.0638 33.9261 30.6462 33.4406 31.3256 32.9551C31.4227 32.9551 31.4227 32.858 31.4227 32.7609C32.005 32.0812 32.4903 31.4015 33.2668 31.0131C33.3638 31.0131 33.3638 30.8189 33.4609 30.8189C33.8491 30.4305 34.2374 30.0421 34.6256 29.6537C34.8197 29.4595 35.5962 28.8769 35.6933 28.7798C36.0815 28.4885 36.4697 28.1002 37.0521 27.7118C37.0521 27.7118 37.0521 27.5175 37.0521 27.4204C36.7609 27.4204 36.3727 27.5175 36.1786 27.3233C35.4991 26.9349 34.7227 26.9349 34.0433 26.4494C33.558 26.061 32.7815 25.964 32.1021 25.7698C32.005 25.7698 31.908 25.6726 31.908 25.5755C31.7138 25.4785 31.5197 25.3814 31.2285 25.2843C31.0344 25.1872 30.8403 25.09 30.7432 24.9929C30.5491 24.8958 30.4521 24.7016 30.355 24.5074C30.0638 24.119 29.7726 23.7307 29.4815 23.3423C29.0932 22.8568 28.705 22.4684 28.2197 22.08C28.1226 22.08 28.1226 22.1771 28.0256 22.1771C27.2491 20.5264 26.4726 18.8757 25.5991 17.1279C25.502 17.225 25.3079 17.3221 25.0168 17.4192C24.6285 17.6134 24.1432 17.6134 23.755 17.9047C23.2697 18.196 22.7844 18.2931 22.2991 18.4873C22.105 18.5844 21.9109 18.7786 21.7167 18.7786C21.2314 18.7786 20.8432 18.8757 20.8432 19.3612C20.1638 19.3612 19.5814 19.6525 19.1932 20.138C19.0961 20.2351 18.9991 20.3322 18.805 20.3322C18.5138 20.5264 18.1255 20.7206 17.8344 20.8177C17.7373 20.9148 17.6403 21.0119 17.5432 21.109C17.0579 21.4003 16.3785 21.4974 16.1844 21.8858C15.7961 22.4684 15.2138 22.5655 14.7285 22.8568C13.8549 23.3423 13.2726 24.0219 12.7873 24.8958C12.6902 24.8958 12.4961 24.8958 12.3991 24.9929C12.2049 25.5755 11.9138 25.9639 11.5255 26.3523C11.3314 26.6436 11.1373 26.8379 10.9432 27.1291C10.4579 27.7117 9.97258 28.2943 9.48728 28.8769V28.974C9.39022 29.1682 9.29317 29.4595 9.09905 29.6537C8.61375 30.2363 8.12845 30.7218 7.74022 31.3044C7.5461 31.5957 7.44904 32.0812 7.25492 32.4696C6.86669 33.1493 6.38139 33.7319 5.99315 34.4116C5.79904 34.7029 5.70198 35.0913 5.50786 35.3826C5.31374 35.6739 5.11962 35.8681 4.9255 36.0623C4.53727 36.8391 4.34315 37.713 3.95491 38.4898C3.76079 38.9753 3.17844 39.5579 3.46962 40.3347C3.56668 40.4318 3.37256 40.7231 3.2755 40.8202C3.08138 41.1115 2.88726 41.4028 2.7902 41.6941C2.69314 42.0825 2.59608 42.568 2.49902 43.0535C2.30491 43.7332 2.01373 44.3158 2.01373 44.9955C2.01373 45.7723 1.72255 46.5491 2.20784 47.3259C2.59608 47.8114 2.59608 48.5882 2.69314 49.2679C2.7902 50.0446 3.17844 50.6273 3.85785 51.0157C4.05197 51.1128 4.24609 51.404 4.44021 51.5982C4.53727 51.6953 4.63433 51.7924 4.73139 51.7924C5.02256 51.8895 5.4108 51.9866 5.70198 52.0837C5.99315 52.1808 6.28433 52.375 6.67257 52.375C8.12846 52.4721 9.6814 52.375 11.0402 51.6953C11.2343 51.5982 11.4285 51.4041 11.6226 51.4041C12.302 51.2099 12.9814 51.1127 13.5638 50.8214C14.1461 50.6273 14.6314 50.2389 15.2138 49.9476C15.6991 49.7534 16.3785 49.7534 16.7667 49.365C16.8638 49.2679 16.9608 49.0737 16.9608 48.9766C16.8638 48.6853 16.7667 48.394 16.5726 48.1027C16.1844 47.5201 15.9903 46.9375 15.9903 46.2578C15.9903 45.7723 15.6991 45.2868 15.6991 44.7042C15.6991 44.0245 15.7961 43.4419 15.8932 42.7622C15.8932 42.568 16.0873 42.2767 16.1844 42.0825C16.3785 41.597 16.6697 41.2086 16.8638 40.7231C16.9608 40.4318 16.7667 40.2376 16.4755 40.3347C15.9903 40.4318 15.4079 40.626 14.9226 40.8202C14.7285 40.9173 14.6314 41.0144 14.5344 41.1115C14.2432 41.3057 13.952 41.4028 13.6608 41.597C13.3697 42.1796 12.9814 42.6651 12.302 42.568ZM49.0874 24.022L49.1845 24.1191C48.9904 24.2162 48.7962 24.2162 48.6992 24.3133C48.5051 24.6046 48.2139 24.7987 47.9227 24.9929C47.6315 25.2842 47.3404 25.5756 46.9521 25.6727C46.4668 25.8669 46.1757 26.2552 45.6904 26.4494C45.3992 26.6436 45.0109 26.8378 44.7198 26.9349C44.3315 27.032 43.9433 27.1292 43.6521 27.2263C42.8756 27.4205 42.0992 27.5175 41.3227 27.6146C41.0315 27.6146 40.7403 27.4204 40.5462 27.9059C40.5462 27.9059 40.255 27.8088 40.158 27.8088C39.8668 27.8088 39.6727 27.7118 39.3815 27.7118C39.1874 27.8089 38.8962 28.003 38.7021 28.1001C38.605 28.1972 38.508 28.2943 38.4109 28.3914C38.3139 28.5856 38.3139 28.8769 38.4109 28.8769C39.3815 29.2653 39.8668 30.2363 40.7403 30.6247C41.2256 30.8189 41.6139 31.4015 42.0021 31.6928C42.0992 31.7899 42.0992 31.7899 42.1962 31.7899C42.4874 31.9841 42.6815 32.1783 42.9727 32.3725C43.0698 32.4696 43.1668 32.5667 43.2639 32.6638C44.0404 33.2464 45.0109 33.7319 45.6904 34.4116C46.4668 35.1884 47.2433 35.4797 48.2139 35.2855C48.311 35.0913 48.408 34.8 48.6021 34.7029C49.1845 34.4116 49.7668 34.1203 50.3492 33.829C50.6404 33.7319 51.0286 33.7319 51.3198 33.5377C51.8051 33.1493 52.2904 32.858 52.9698 32.858C53.358 32.858 53.8433 32.858 54.0374 32.5667C54.3286 32.0812 54.911 32.0812 55.2992 32.0812C56.4639 31.9841 57.6286 32.1783 58.7933 32.2754C58.8904 32.2754 58.8904 32.2754 58.8904 32.3725C59.2786 32.9551 60.0551 32.3725 60.4433 32.858C60.8316 32.4696 61.2198 33.0522 61.6081 32.9551C61.7051 32.9551 61.8992 33.2464 61.8992 33.4406C61.8992 34.0232 61.6081 34.4116 61.3169 34.7029C60.9286 35.0913 60.5404 35.4797 60.1522 35.8681C59.6669 36.4507 59.1816 37.1304 58.6963 37.8101C58.6963 37.9072 58.5992 37.9072 58.5022 37.9072C58.4051 38.0043 58.4051 38.0043 58.308 38.1014C58.1139 38.4898 57.9198 38.8782 57.7257 39.1695C57.5316 39.4608 57.2404 39.7521 57.0463 40.0434C56.7551 40.5289 56.4639 41.0144 56.2698 41.4999C56.658 41.597 57.0463 41.7912 57.4345 41.7912C58.308 41.7912 59.0845 41.7912 59.9581 42.3738C60.4433 42.6651 61.0257 42.7622 61.511 42.8593C61.8992 42.9564 61.9963 43.1506 61.9963 43.4419C61.9963 43.6361 62.0934 43.9274 62.2875 44.0245C62.8698 44.3158 62.4816 44.7042 62.4816 44.9955C62.4816 45.0926 62.1904 45.0926 62.0934 45.1897C61.8992 44.7042 61.511 44.9955 61.2198 44.8984C60.8316 44.7042 60.4434 44.4129 60.1522 44.3158C59.861 44.3158 59.6669 44.4129 59.5698 44.4129C59.3757 44.4129 59.2786 44.2187 59.0845 44.2187C58.8904 44.2187 58.6963 44.2187 58.5022 44.2187C58.1139 44.1216 57.6286 44.0245 57.2404 43.9274C57.2404 44.0245 57.1433 44.0245 57.1433 44.1216C57.5316 44.7042 58.0169 45.3839 58.4051 45.9665C58.6963 46.3549 59.0845 46.7433 59.4728 47.1317C59.5698 47.2288 59.4728 47.3259 59.5698 47.423C59.6669 47.8114 59.7639 48.1027 59.861 48.4911C59.861 48.6853 59.9581 48.8795 59.9581 48.9766C59.9581 49.4621 59.7639 49.8505 59.7639 50.336C59.7639 50.8214 59.7639 51.3069 59.7639 51.5982C58.8904 52.4721 58.6963 53.6374 57.8228 54.4141C58.5992 54.4141 59.1816 54.4141 59.7639 54.4141C60.1522 54.4141 60.5404 54.5112 60.9286 54.6083C61.2198 54.6083 61.4139 54.6083 61.7051 54.6083C61.9963 54.6083 62.2875 54.4141 62.6757 54.4141C63.3551 54.4141 63.9375 54.4141 64.6169 54.4141C65.0051 54.4141 65.4904 54.2199 65.7816 53.9286C66.1698 53.6374 66.461 53.1518 66.8492 52.7634C67.0434 52.5692 67.3345 52.4721 67.5287 52.2779C67.6257 52.1808 67.7228 51.8895 67.8198 51.7924C68.111 51.404 68.4993 51.1127 68.6934 50.6272C68.8875 50.1417 69.1787 49.6562 69.2757 49.1707C69.3728 48.6852 69.4698 48.2969 69.5669 47.8114C69.664 46.7433 69.761 45.7723 69.664 44.7042C69.5669 43.7332 69.2757 42.7622 69.0816 41.8883C69.0816 41.7912 69.0816 41.6941 69.0816 41.6941C68.5963 41.4028 68.7904 40.9173 68.5963 40.5289C68.4022 40.0434 68.4022 39.4608 68.014 39.0724C67.3345 38.3927 67.5287 37.4217 66.9463 36.742C66.6551 36.3536 66.7522 35.771 66.461 35.4797C66.0728 35.1884 65.8787 34.8 65.5875 34.4116C65.3934 34.0232 65.0051 33.7319 64.7139 33.3435C64.5198 33.0522 64.2287 32.858 64.0345 32.5667C63.8404 32.2754 63.6463 31.887 63.4522 31.5957C63.2581 31.3044 62.9669 30.916 62.7728 30.6247C62.5787 30.3334 62.2875 30.0421 62.0934 29.8479C61.8992 29.5566 61.7051 29.0711 61.4139 28.7798C60.6375 28.003 59.861 27.1291 58.9875 26.4494C58.4051 25.9639 57.6286 25.4785 56.9492 25.0901C56.561 24.7988 56.1727 24.5075 55.7845 24.2162C55.2022 23.8278 54.7169 23.4394 54.1345 23.1481C53.6492 22.8568 53.261 22.4684 52.7757 22.08C52.5816 21.9829 52.4845 21.6916 52.2904 21.4974C52.0963 21.3032 51.8051 21.0119 51.5139 20.8177C51.3198 21.2061 51.2227 21.4003 51.0286 21.6916C50.7374 22.1771 50.4463 22.6626 50.058 23.051C49.8639 23.2452 49.6698 23.4394 49.3786 23.6336C49.5727 23.6336 49.3786 23.8278 49.0874 24.022ZM38.2168 53.4432C38.0227 53.9286 38.2168 54.317 38.2168 54.7054C38.2168 55.5793 38.1197 56.4532 38.3139 57.4242C38.508 58.201 38.9933 58.5894 39.3815 59.172C39.6727 59.6575 40.255 59.8517 40.6433 60.3372C41.2256 61.2111 41.808 62.1821 42.6815 62.8618C42.6815 62.8618 42.6815 62.9589 42.7786 63.056C42.8756 63.1531 42.9727 63.3473 43.0698 63.4444C43.3609 63.7357 43.6521 63.9299 43.9433 64.2212C44.3315 64.6096 44.7198 65.0951 45.2051 65.5806C45.6904 66.0661 46.4668 66.4545 46.758 67.1342L46.8551 67.2313C47.4374 67.2313 47.5345 67.7168 47.9227 68.0081C48.0198 68.1052 48.0198 68.2023 48.1168 68.2994C48.2139 68.1052 48.311 67.8139 48.2139 67.8139C47.7286 67.6197 48.0198 67.2313 47.9227 66.94C47.8257 66.2603 47.6315 65.5806 47.5345 64.9009C47.5345 64.6096 47.6315 64.3183 47.6315 64.027C47.6315 63.8328 47.6315 63.5415 47.6315 63.3473C47.5345 62.8618 47.5345 62.3763 47.4374 61.8908C47.4374 61.6966 47.4374 61.5995 47.4374 61.4053C47.3404 61.0169 47.3404 60.7256 47.2433 60.3372C47.1462 59.9488 46.9521 59.6575 46.9521 59.2691C46.8551 58.4923 46.758 57.6184 46.6609 56.8416C46.6609 56.7445 46.5639 56.6474 46.5639 56.5503C46.4668 56.0648 46.2727 55.4822 46.1757 54.9967C46.0786 54.6083 46.1757 54.317 45.8845 54.0257C45.6904 53.9286 45.6904 53.5402 45.6904 53.346C45.6904 52.0838 45.6904 50.7244 45.6904 49.4621C45.6904 49.2679 45.6904 49.1708 45.6904 48.9766C45.9815 48.394 45.7874 47.6172 46.1757 47.0346C46.3698 46.6462 46.3698 46.0636 46.4668 45.481C46.5639 44.7042 46.6609 44.0245 46.6609 43.2477C46.758 42.4709 46.8551 41.7912 46.8551 41.0144C46.8551 40.9173 46.8551 40.9173 46.8551 40.8202C47.3404 40.626 47.1462 40.2376 47.1462 39.9463C47.1462 39.4608 47.1462 39.0724 47.2433 38.5869C47.3404 38.0043 47.5345 37.4217 47.6315 36.8391C46.9521 36.5478 46.3698 36.2565 45.7874 35.9652C45.4962 35.8681 45.3021 35.6739 45.108 35.4797C44.5256 34.9942 43.9433 34.4116 43.3609 33.9261C43.1668 33.7319 42.8756 33.7319 42.7786 33.6348C42.2933 32.7609 41.3227 32.4696 40.5462 31.9841C40.0609 31.5957 39.6727 31.1102 39.1874 30.8189C38.7992 30.6247 38.605 30.1392 38.3139 29.8479C38.2168 30.0421 38.1197 30.2363 38.1197 30.3334C38.1197 31.0131 38.1197 31.7899 38.1197 32.4696C38.1197 33.1493 38.2168 33.829 38.1197 34.5087C38.0227 35.0913 38.1197 35.5768 38.1197 36.1594C37.9256 37.4217 38.4109 38.5869 38.2168 39.8492C38.1197 40.3347 38.3139 41.0144 38.4109 41.4999C38.4109 41.6941 38.2168 41.9854 38.2168 42.1796C38.508 42.7622 38.508 43.2477 38.2168 43.8303C38.1197 43.9274 38.2168 44.1216 38.3139 44.3158C38.3139 44.6071 38.4109 44.9955 38.4109 45.2868C38.4109 45.5781 38.3139 45.8694 38.3139 46.1607C38.3139 46.5491 38.4109 46.8404 38.508 47.2288C38.605 47.8114 38.508 48.2969 38.4109 48.8795C38.4109 49.365 38.3139 49.8505 38.508 50.336C38.508 50.336 38.508 50.4331 38.508 50.5302C38.1197 51.0157 38.4109 51.5982 38.3139 52.1808C38.3139 52.2779 38.4109 52.4721 38.508 52.5692C38.8962 52.7634 38.8962 53.0548 38.7992 53.4432C38.508 53.4432 38.3139 53.4432 38.2168 53.4432ZM26.9579 65.0951C27.6373 65.0951 27.9285 64.5125 28.3168 64.1241C28.705 63.7357 28.8991 63.1531 29.3844 62.9589C30.1609 62.5705 30.5491 61.8908 31.1315 61.3082C31.6168 60.8227 32.1991 60.3372 32.6844 59.8517C33.1697 59.3662 33.7521 58.9778 34.2374 58.5894C34.5285 58.2981 34.8197 58.1039 35.1109 57.8126C35.4991 57.4242 35.9844 57.1329 36.0815 56.5503C36.1786 55.288 36.2756 54.1228 36.2756 52.8605C36.2756 52.6663 36.2756 52.375 36.2756 52.1808C36.2756 51.7924 36.4697 51.5011 36.3727 51.1127C36.2756 50.8214 36.4697 50.5301 36.5668 50.2388C36.5668 49.6562 36.5668 49.0737 36.5668 48.4911C36.5668 48.1998 36.3727 47.9084 36.858 47.7143C36.858 47.7143 36.858 47.5201 36.7609 47.423C36.6638 47.3259 36.5668 47.1317 36.5668 47.0346C36.5668 45.9665 36.5668 44.8984 36.5668 43.8303C36.5668 43.7332 36.5668 43.539 36.5668 43.539C36.955 43.3448 36.858 42.9564 36.858 42.6651C36.858 41.597 36.7609 40.4318 36.858 39.3637C36.955 38.3927 37.2462 37.5188 36.858 36.5478C36.858 36.4507 36.858 36.3536 36.858 36.3536C36.955 36.0623 37.0521 35.771 37.0521 35.4797C37.0521 34.7029 37.1492 33.829 36.858 32.9551C36.6639 32.3725 36.955 31.5957 37.0521 30.916C37.0521 30.5276 36.858 30.3334 36.4697 30.4305C36.2756 30.5276 35.9844 30.7218 35.7903 30.916C35.4991 31.2073 35.208 31.5957 34.9168 31.887C34.5286 32.2754 34.1403 32.6638 33.655 33.0522C33.1697 33.4406 32.7815 33.9261 32.1021 34.2174C31.7138 34.3145 31.4227 34.7029 31.1315 34.9942C30.7432 35.3826 30.355 35.771 29.9668 36.0623C29.5785 36.3536 29.1903 36.4507 28.8021 36.742C28.6079 36.8391 28.4138 37.0333 28.705 37.3246C28.8991 37.6159 29.0932 38.0043 29.0932 38.2956C29.1903 39.3637 29.2874 40.5289 29.2874 41.6941C29.2874 42.1796 29.2874 42.6651 29.2874 43.2477C29.1903 44.6071 29.1903 45.8694 29.0932 47.2288C29.0932 47.3259 29.0932 47.423 28.9962 47.5201C28.5109 48.0056 28.6079 48.6853 28.705 49.2679C28.705 49.7533 28.705 50.433 28.3168 50.7243C28.4138 50.8214 28.6079 50.8215 28.6079 50.9186C28.6079 51.2099 28.5109 51.404 28.5109 51.5982C28.5109 51.9866 28.705 52.2779 28.705 52.6663C28.705 53.0547 28.6079 53.4432 28.5109 53.9286C28.4138 55.1909 28.3168 56.4532 28.2197 57.7155C28.1226 58.3952 28.1226 59.172 28.0256 59.8517C28.0256 59.9488 28.0256 60.0459 27.9285 60.143C27.7344 60.6285 27.5403 61.0169 27.4432 61.5024C27.3462 62.085 27.2491 62.6676 27.1521 63.1531C27.055 63.5415 27.1521 64.027 26.8609 64.2212C26.8609 64.2212 27.055 64.6096 26.9579 65.0951ZM30.8403 14.7975C30.7432 14.9917 30.6462 15.1859 30.5491 15.1859C30.258 15.3801 29.8697 15.6714 29.4815 15.7685C28.8991 15.9627 28.5109 16.6424 27.8315 16.5453C27.7344 16.5453 27.5403 16.8366 27.4432 17.0308C27.3462 17.225 27.4432 17.4192 27.4432 17.6134C27.5403 18.0989 27.6374 18.5844 27.6374 19.0699C27.6374 19.5554 28.0256 19.5554 28.2197 19.8467C28.5109 20.4293 28.8021 21.0119 29.1903 21.5945C29.5785 22.1771 30.258 22.5655 30.5491 23.2452C30.6462 23.3423 30.7432 23.4393 30.8403 23.4393C31.5197 23.4393 31.7138 24.3132 32.2962 24.4103C32.6844 24.5074 32.9756 24.7987 33.2668 24.9929C34.0433 25.3813 34.9168 25.4784 35.5962 25.9639C36.1786 26.3523 37.0521 26.3523 37.7315 26.4494C38.0227 26.4494 38.4109 26.3524 38.7992 26.2553C39.6727 26.1582 40.5462 26.1581 41.4198 26.061C41.808 26.061 42.4874 26.1581 42.6815 25.9639C43.0698 25.4784 43.6521 25.7697 44.1374 25.4784C44.7198 25.09 45.5933 24.8958 46.1757 24.5074C46.758 24.119 47.2433 23.6336 47.7286 23.1481C48.311 22.5655 48.8933 21.8858 49.4757 21.2061C49.6698 20.9148 49.8639 20.6235 50.058 20.2351C49.5727 20.2351 49.0874 20.2351 48.6992 20.2351C48.408 20.2351 48.0198 20.4293 47.8257 19.9438C47.8257 19.9438 47.5345 19.9438 47.4374 20.0409C46.9521 20.5264 45.8845 20.6235 45.3992 20.138C45.0109 19.8467 44.6227 19.4583 44.0403 19.4583C43.9433 19.4583 43.9433 19.4583 43.8462 19.4583C43.8462 19.2641 43.7492 19.167 43.7492 18.8757C43.5551 18.9728 43.458 19.0699 43.3609 19.0699C43.1668 19.167 42.8756 19.2641 42.6815 19.2641C42.3903 19.167 42.1962 18.9728 42.0021 18.8757C41.5168 18.4873 41.1286 17.9047 40.4492 17.8076C39.8668 17.7105 39.6727 17.225 39.3815 16.9337C38.7992 16.4482 38.3139 15.8656 37.7315 15.3801C37.5374 15.1859 37.3433 15.0888 37.1491 14.9917C36.858 14.7975 36.5668 14.7004 36.4697 14.4091C36.1786 13.8265 35.8874 13.1468 35.4021 12.7584C35.305 12.6613 35.305 12.5642 35.208 12.4671C34.9168 12.0787 34.9168 11.399 34.3344 11.3019C34.1403 11.1077 33.8491 10.9135 33.8491 10.9135C33.4609 11.3019 33.0727 11.5932 32.9756 12.1758C32.9756 12.2729 32.8785 12.2729 32.8785 12.37C32.2962 13.1468 31.8109 13.9236 31.2285 14.6033L31.3256 14.7004C31.2285 14.7975 31.0344 14.7975 30.8403 14.7975ZM27.1521 57.9097C27.1521 57.8126 27.055 57.6184 27.055 57.4242C27.055 57.23 27.2491 57.0358 27.2491 56.9387C27.2491 55.8706 27.2491 54.8025 27.4432 53.7344C27.6373 52.6663 27.6374 51.5983 27.6374 50.5302C27.6374 49.8505 27.7344 49.0737 27.6374 48.394C27.5403 45.481 27.9285 42.568 27.4432 39.655C27.2491 38.5869 27.3462 37.4217 27.2491 36.2565C27.1521 35.2855 27.2491 34.2174 25.8903 33.9261C25.7932 33.9261 25.6962 33.829 25.6962 33.7319C25.2109 33.2464 24.8226 32.7609 24.3373 32.4696C23.5609 31.9841 22.6873 31.5957 21.7167 31.3044C21.1344 31.1102 20.455 31.2073 19.7756 31.1102C19.7756 31.4015 19.7756 31.4986 19.8726 31.4986C20.1638 31.9841 20.6491 32.2754 20.6491 32.858C20.6491 32.858 20.7461 32.858 20.7461 32.9551C20.8432 33.1493 20.9403 33.4406 21.0373 33.6348C21.0373 33.7319 21.0373 34.0232 21.0373 34.0232C21.5226 34.2174 21.3285 34.6058 21.3285 34.9942C21.4256 35.6739 21.5226 36.3536 21.5226 36.9362C21.5226 37.5188 21.9109 37.6159 22.3962 37.713C22.7844 37.8101 23.1726 37.9072 23.5609 38.1014C24.0462 38.2956 24.5315 38.5869 25.1138 38.8782C25.1138 38.8782 25.1138 38.9753 25.2109 39.0724C25.405 39.0724 25.5991 39.0724 25.7932 39.1695C25.8903 39.5579 26.0844 40.0434 26.1815 40.4318C26.2785 41.0144 26.3756 41.6941 26.3756 42.2767C26.3756 42.3738 26.3756 42.6651 26.2785 42.6651C25.5991 43.1506 25.5991 43.8303 25.502 44.51C25.3079 45.1897 24.7256 45.6752 24.8226 46.452C24.8226 46.6462 24.6285 47.0346 24.3373 47.2288C23.852 47.5201 23.5609 47.9085 23.6579 48.4911C22.6873 48.394 22.2991 48.9766 21.7167 49.5592C21.5226 49.7534 21.3285 49.9476 21.1344 50.0447C20.8432 50.336 20.3579 50.4331 20.3579 51.0157C20.3579 51.4041 20.0667 51.6954 19.8726 51.9867C19.7756 52.1809 19.4844 52.375 19.3873 52.6663C18.902 53.6373 18.6108 54.8025 17.4461 55.3851C17.252 55.4822 17.252 55.7735 17.0579 56.1619C19.4844 55.8706 21.6197 56.3561 23.4638 58.0068C23.5609 58.1039 23.6579 58.3952 23.755 58.5894C24.0462 59.0749 24.4344 59.5604 24.7256 60.0459C24.8226 60.3372 24.8226 60.7256 25.3079 60.7256C25.3079 60.7256 25.405 60.9198 25.405 61.0169C25.502 61.2111 25.5021 61.4053 25.6962 61.5995C25.9873 61.8908 26.1815 62.085 26.0844 62.4734C26.0844 62.5705 26.1815 62.6676 26.2785 62.6676C26.3756 62.2792 26.5697 61.9879 26.5697 61.6966C26.7638 60.5314 27.1521 59.4633 27.055 58.2981C26.9579 58.2981 27.055 58.1039 27.1521 57.9097ZM47.8257 47.2288C47.7286 47.8114 47.7286 48.394 47.4374 48.7824C47.1462 49.2679 47.2433 49.365 47.7286 49.5592C46.8551 49.9476 46.6609 51.3069 47.1462 51.7924C47.0492 52.0837 46.9521 52.278 46.9521 52.4722C46.9521 53.0548 46.8551 53.6373 47.2433 54.317C47.7286 55.0938 47.9227 55.9677 47.9227 56.9387C47.9227 57.0358 47.9227 57.23 48.0198 57.23C48.408 57.3271 48.2139 57.6184 48.311 57.8126C48.311 58.0068 48.311 58.2981 48.311 58.4923C48.5051 59.3662 48.8933 60.143 48.8933 61.0169C48.9904 61.7937 49.2815 62.4734 49.6698 63.1531C49.7668 63.2502 49.6698 63.4444 49.6698 63.5415C49.6698 63.7357 49.4757 63.9299 49.5727 64.1241C49.5727 64.4154 49.7668 64.8038 49.7668 65.0951C49.8639 65.8719 49.8639 66.6487 49.961 67.4255C50.2521 67.4255 50.3492 67.4255 50.5433 67.4255L50.4463 67.3284C50.8345 66.7458 51.1257 66.2603 51.5139 65.6777C51.708 65.4835 51.708 65.1922 51.9021 64.9009C52.3874 64.3183 52.8727 63.9299 53.358 63.3473C53.7463 62.8618 54.1345 62.1821 54.5227 61.6966C54.911 61.2111 55.2992 60.7256 55.7845 60.3372C56.1727 60.0459 56.3669 59.6575 56.8522 59.5604C57.2404 59.5604 57.2404 58.9778 56.9492 58.6865C56.2698 58.0068 55.3963 57.4242 55.1051 56.3561C55.008 55.9677 54.7169 55.6764 54.5227 55.288C54.3286 55.288 54.0374 55.3851 53.9404 55.1909C53.261 54.7054 52.2904 54.9967 51.8051 54.2199H51.611C51.2227 54.0257 50.7374 53.8315 50.4463 53.5402C50.1551 53.2489 49.8639 52.8605 49.5727 52.5692C48.9904 51.9866 48.5051 51.4041 48.5051 50.5302C48.5051 50.4331 48.5051 50.336 48.5051 50.336C48.1168 50.1418 48.2139 49.7534 48.2139 49.4621C48.2139 48.9766 48.2139 48.5882 48.2139 48.1027C48.2139 47.8114 48.311 47.5201 48.408 47.1317C48.1168 47.2288 47.9227 47.2288 47.8257 47.2288ZM50.1551 43.2477C50.3492 43.0535 50.5433 42.8593 50.6404 42.7622C50.8345 42.6651 51.1257 42.568 51.3198 42.3738C51.9992 41.9854 52.6786 41.597 53.4551 41.4999C53.8433 41.4999 54.4257 41.4999 54.6198 41.0144C54.7169 40.7231 55.008 40.4318 55.008 40.1405C55.1051 39.2666 55.6875 38.5869 55.8816 37.8101C55.9786 37.5188 56.1727 37.2275 56.3669 36.9362C56.561 36.6449 56.8522 36.5478 56.8522 36.0623C56.8522 35.771 57.1433 35.5768 57.2404 35.2855C57.3375 34.9942 57.4345 34.7029 57.6286 34.3145C56.8522 34.3145 56.2698 34.4116 55.6874 34.3145C54.911 34.2174 54.2316 34.4116 53.5521 34.7029C52.8727 34.9942 52.2904 35.3826 51.611 35.771C50.8345 36.1594 50.1551 36.5478 49.3786 36.9362C48.9904 37.1304 48.7962 37.3246 48.7962 37.713C48.7962 38.3927 48.7962 39.1695 48.6992 39.8492C48.7962 39.8492 48.9904 39.9463 49.0874 40.0434C48.9904 40.1405 48.7962 40.1405 48.6992 40.2376C48.6021 40.3347 48.1168 40.3347 48.5051 40.7231C48.5051 40.7231 48.5051 40.8202 48.5051 40.9173C48.1168 41.597 48.1168 42.2767 48.2139 43.0535C48.2139 43.539 48.408 44.0245 47.9227 44.3158C47.9227 44.3158 47.9227 44.6071 48.0198 44.7042C48.311 44.8984 48.2139 45.0926 48.0198 45.2868C47.7286 45.5781 47.7286 46.0636 48.0198 46.452C48.1168 46.1607 48.1168 45.8694 48.2139 45.6752C48.5051 45.0926 48.7962 44.51 49.1845 44.0245C49.5727 43.8303 49.8639 43.539 50.1551 43.2477ZM54.5227 53.4432C55.2022 53.4432 55.2992 53.4431 55.4933 52.8605C55.4933 52.7634 55.4933 52.7634 55.5904 52.7634C56.561 52.2779 56.3669 51.307 56.4639 50.5302C56.561 49.365 56.3669 48.1998 56.2698 47.0346C56.1727 46.5491 56.0757 46.0636 55.8816 45.5781C55.6875 45.1897 55.2992 44.8013 55.2022 44.4129C54.911 43.7332 54.3286 43.9274 53.8433 43.7332C53.7463 43.7332 53.6492 43.8303 53.5521 43.9274C53.0669 44.4129 52.5816 44.8984 52.0963 45.2868C50.9316 45.9665 50.6404 47.1317 50.1551 48.1997C49.8639 48.6852 49.961 49.4621 49.8639 50.0447C49.8639 50.4331 50.058 50.8214 50.058 51.2098C50.058 51.7924 50.4463 52.0837 50.7374 52.2779C51.2227 52.6663 51.9021 52.8605 52.4845 53.0547C53.0669 53.1518 53.8433 53.249 54.5227 53.4432ZM18.9991 41.7912C18.902 41.9854 18.902 42.2767 18.805 42.3738C18.3197 42.6651 18.4167 43.0535 18.4167 43.4419C18.4167 43.539 18.3197 43.7332 18.3197 43.8303C18.3197 44.3158 18.2226 44.7042 18.2226 45.1897C18.2226 45.3839 18.6108 45.481 18.6108 45.6752C18.7079 45.7723 18.7079 46.0636 18.6108 46.1607C18.3197 46.5491 18.3197 47.0346 18.7079 47.3259C18.6108 47.423 18.5138 47.423 18.4167 47.5201C18.5138 47.7143 18.7079 47.8114 18.7079 47.9085C18.902 48.1998 18.9991 48.5882 19.1932 48.9766C19.3873 48.7824 19.4844 48.6852 19.5814 48.6852C20.455 48.3939 21.2314 47.9084 21.9109 47.2288C22.105 47.0346 22.202 46.7433 22.3962 46.7433C23.0756 46.6462 23.1726 45.8694 23.5609 45.481C23.852 45.1897 24.4344 44.7042 24.3373 44.0245C24.3373 44.0245 24.3373 43.9274 24.4344 43.9274C25.1138 43.4419 24.8226 42.6651 25.1138 41.9854C25.2109 41.7912 24.9197 41.4999 24.9197 41.3057C24.8226 40.7231 24.2403 40.1405 23.6579 40.1405C23.3667 40.1405 23.1726 39.9463 22.8815 39.8492C22.7844 39.8492 22.6873 39.655 22.5903 39.655C22.0079 39.7521 21.5226 39.4608 20.9403 39.8492C20.8432 39.9463 20.552 39.7521 20.2608 39.7521C20.1638 39.9463 20.0667 40.3347 19.7756 40.5289C19.4844 40.7231 19.4844 41.0144 19.4844 41.3057C19.4844 41.4999 19.4844 41.6941 19.4844 41.9854C19.1932 41.8883 19.0961 41.8883 18.9991 41.7912Z" fill="black"/>
<path d="M38.2173 53.4432C38.3143 53.4432 38.5084 53.4432 38.7025 53.4432C38.7025 53.0548 38.7996 52.7635 38.4114 52.5693C38.3143 52.4722 38.2173 52.278 38.2173 52.1809C38.3143 51.5983 38.0231 51.0157 38.4114 50.5302C38.4114 50.5302 38.4114 50.4331 38.4114 50.336C38.2173 49.8505 38.3143 49.365 38.3143 48.8795C38.3143 48.394 38.5084 47.8114 38.4114 47.2288C38.3143 46.8404 38.2173 46.5491 38.2173 46.1607C38.2173 45.8694 38.3143 45.5781 38.3143 45.2868C38.3143 44.9955 38.3143 44.6071 38.2173 44.3158C38.2173 44.1216 38.1202 43.9274 38.1202 43.8303C38.4114 43.2477 38.4114 42.7622 38.1202 42.1796C38.0231 41.9854 38.3143 41.7912 38.3143 41.4999C38.3143 40.9173 38.0231 40.3347 38.1202 39.8492C38.3143 38.5869 37.9261 37.4217 38.0231 36.1594C38.1202 35.5768 38.0231 35.0914 38.0231 34.5088C38.1202 33.8291 37.9261 33.1494 38.0231 32.4697C38.0231 31.79 38.0231 31.0132 38.0231 30.3335C38.0231 30.2364 38.0231 30.0422 38.2173 29.848C38.5084 30.1393 38.7025 30.6248 39.0908 30.819C39.6731 31.1103 39.9643 31.6929 40.4496 31.9842C41.2261 32.4697 42.1967 32.7609 42.682 33.6348C42.779 33.829 43.1673 33.8291 43.2643 33.9262C43.8467 34.4117 44.429 34.9943 45.0114 35.4798C45.2055 35.674 45.4967 35.7711 45.6908 35.9653C46.2732 36.2566 46.8555 36.5478 47.5349 36.8391C47.4379 37.4217 47.2438 38.0043 47.1467 38.5869C47.0496 38.9753 47.1467 39.4608 47.0497 39.9463C47.0497 40.2376 47.2438 40.626 46.7585 40.8202C46.7585 40.8202 46.7585 40.9173 46.7585 41.0144C46.6614 41.7912 46.5644 42.4709 46.5644 43.2477C46.4673 44.0245 46.4673 44.7042 46.3702 45.481C46.2732 45.9665 46.3702 46.5491 46.0791 47.0346C45.6908 47.6172 45.8849 48.394 45.5938 48.9766C45.4967 49.0737 45.5938 49.2679 45.5938 49.4621C45.5938 50.7244 45.5938 52.0838 45.5938 53.3461C45.5938 53.6374 45.6908 53.9286 45.7879 54.0257C46.1761 54.317 46.0791 54.7054 46.0791 54.9967C46.1761 55.5793 46.2732 56.0648 46.4673 56.5503C46.4673 56.6474 46.5644 56.7446 46.5644 56.8417C46.6614 57.6185 46.6614 58.4923 46.8555 59.2691C46.9526 59.6575 47.0496 59.9488 47.1467 60.3372C47.2438 60.6285 47.2438 61.0169 47.3408 61.4053C47.3408 61.5995 47.3408 61.6966 47.3408 61.8908C47.4379 62.3763 47.4379 62.8618 47.5349 63.3473C47.5349 63.5415 47.5349 63.8328 47.5349 64.027C47.5349 64.3183 47.4379 64.6096 47.4379 64.9009C47.5349 65.5806 47.632 66.2603 47.8261 66.94C47.9232 67.2313 47.632 67.6197 48.1173 67.8139C48.2144 67.8139 48.1173 68.1052 48.0202 68.2994C47.9232 68.2023 47.9232 68.1052 47.8261 68.0081C47.4379 67.8139 47.3408 67.2313 46.7585 67.2313C46.7585 67.2313 46.6614 67.2313 46.6614 67.1342C46.3702 66.3574 45.5938 66.0661 45.1085 65.5806C44.7202 65.1922 44.332 64.7067 43.8467 64.2212C43.5555 63.9299 43.2643 63.7357 42.9732 63.4444C42.8761 63.3473 42.779 63.2502 42.682 63.056C42.682 63.056 42.682 62.9589 42.5849 62.8618C41.8084 62.085 41.2261 61.2111 40.5467 60.3372C40.2555 59.8517 39.5761 59.6575 39.2849 59.172C38.8967 58.5894 38.4114 58.201 38.2173 57.4242C37.9261 56.4532 38.1202 55.5794 38.1202 54.7055C38.2173 54.3171 38.0231 53.9287 38.2173 53.4432Z" fill="#F6E018"/>
<path d="M26.9585 65.0951C27.0556 64.6096 26.8614 64.3182 27.2497 63.9298C27.4438 63.7356 27.4438 63.2501 27.5409 62.8617C27.6379 62.2791 27.6379 61.6966 27.832 61.2111C27.9291 60.7256 28.1232 60.3371 28.3173 59.8516C28.3173 59.7545 28.4144 59.6575 28.4144 59.5604C28.5114 58.8807 28.6085 58.1039 28.6085 57.4242C28.7056 56.1619 28.8026 54.8996 28.8997 53.6373C28.8997 53.2489 29.0938 52.8605 29.0938 52.375C29.0938 51.9866 28.9967 51.6953 28.8997 51.3069C28.8997 51.1127 28.9967 50.9185 28.9967 50.6272C28.8997 50.6272 28.8026 50.5301 28.7056 50.433C29.0938 50.1417 29.0938 49.462 29.0938 48.9765C29.0938 48.3939 28.8997 47.7142 29.385 47.2287C29.482 47.1316 29.482 47.0345 29.482 46.9374C29.5791 45.578 29.6762 44.3157 29.6762 42.9563C29.6762 42.4708 29.6762 41.9853 29.6762 41.4027C29.5791 40.2375 29.5791 39.1694 29.482 38.0042C29.482 37.6158 29.2879 37.2274 29.0938 37.0332C28.8026 36.7419 29.0938 36.5478 29.1909 36.4507C29.5791 36.1594 29.9673 36.0623 30.3556 35.771C30.7438 35.4797 31.132 35.0912 31.5203 34.7029C31.8115 34.4116 32.1026 34.0232 32.4909 33.9261C33.1703 33.7319 33.5585 33.1493 34.0438 32.7609C34.4321 32.3725 34.9174 31.9841 35.3056 31.5957C35.5968 31.3044 35.8879 30.916 36.1791 30.6247C36.3732 30.4305 36.5674 30.2363 36.8585 30.1392C37.2468 30.0421 37.4409 30.2363 37.4409 30.6247C37.3438 31.3044 37.1497 32.0812 37.2468 32.6638C37.4409 33.5376 37.3438 34.3145 37.4409 35.1883C37.4409 35.4796 37.3438 35.7709 37.2468 36.0622C37.2468 36.1593 37.2468 36.2565 37.2468 36.2565C37.635 37.2274 37.3438 38.1013 37.2468 39.0723C37.1497 40.1404 37.2468 41.3056 37.2468 42.3737C37.2468 42.665 37.4409 43.0534 36.9556 43.2476C36.8585 43.2476 36.9556 43.4418 36.9556 43.5389C36.9556 44.607 36.9556 45.6751 36.9556 46.7432C36.9556 46.8403 37.0527 47.0345 37.1497 47.1316C37.1497 47.2287 37.2468 47.4229 37.2468 47.4229C36.8585 47.52 36.9556 47.9084 36.9556 48.1997C36.9556 48.7823 36.9556 49.3649 36.9556 49.9475C36.9556 50.2388 36.7615 50.5301 36.7615 50.8214C36.8585 51.2098 36.6644 51.5011 36.6644 51.8895C36.6644 52.0837 36.6644 52.375 36.6644 52.5692C36.5674 53.8315 36.5674 54.9967 36.4703 56.259C36.3732 56.8416 35.8879 57.1329 35.4997 57.5213C35.2085 57.8126 34.9174 58.0068 34.6262 58.2981C34.1409 58.6865 33.5585 59.172 33.0732 59.5604C32.4909 60.0459 32.0056 60.5314 31.5203 61.0169C30.9379 61.5995 30.5497 62.2792 29.7732 62.6676C29.2879 62.8618 29.0938 63.4443 28.7056 63.8327C27.9291 64.5124 27.6379 64.998 26.9585 65.0951Z" fill="#F6E018"/>
<path d="M30.8397 14.7975C31.0339 14.7975 31.228 14.7975 31.4221 14.7975L31.325 14.7004C31.9074 13.9236 32.3927 13.1468 32.975 12.4671C32.975 12.37 33.0721 12.37 33.0721 12.2729C33.1692 11.6903 33.5574 11.399 33.9456 11.0106C33.9456 11.0106 34.3339 11.2048 34.4309 11.399C35.1103 11.4961 35.0133 12.1758 35.3045 12.5642C35.4015 12.6613 35.4015 12.7584 35.4986 12.8555C36.0809 13.2439 36.3721 13.9236 36.5662 14.5062C36.6633 14.7004 37.0515 14.8946 37.2456 15.0888C37.4398 15.1859 37.6339 15.3801 37.828 15.4772C38.4103 15.9627 38.8956 16.5453 39.478 17.0308C39.7692 17.3221 39.9633 17.8076 40.5456 17.9047C41.128 18.0018 41.6133 18.4873 42.0986 18.9728C42.2927 19.167 42.5839 19.3612 42.778 19.3612C42.9721 19.3612 43.1662 19.2641 43.4574 19.167C43.5545 19.167 43.6515 19.0699 43.8457 18.9728C43.8457 19.167 43.9427 19.3612 43.9427 19.5554C44.0398 19.5554 44.0398 19.5554 44.1368 19.5554C44.7192 19.5554 45.1074 19.9438 45.4957 20.2351C45.981 20.6235 47.0486 20.6235 47.5339 20.138C47.631 20.0409 47.8251 20.0409 47.9221 20.0409C48.1163 20.4293 48.5045 20.3322 48.7957 20.3322C49.281 20.3322 49.7663 20.3322 50.1545 20.3322C50.1545 20.3322 50.2516 20.3322 50.1545 20.3322C49.9604 20.6235 49.8633 21.0119 49.5722 21.3032C48.9898 21.9829 48.4074 22.6626 47.8251 23.2452C47.3398 23.7307 46.8545 24.2162 46.2721 24.6046C45.5927 24.993 44.8163 25.1872 44.2339 25.5756C43.7486 25.8669 43.1662 25.5756 42.778 26.0611C42.5839 26.2552 42.0015 26.1582 41.5162 26.1582C40.6427 26.2553 39.7692 26.2552 38.8956 26.3523C38.5074 26.3523 38.2162 26.5465 37.828 26.5465C37.0515 26.4494 36.275 26.4494 35.6927 26.0611C34.9162 25.5756 34.0427 25.4785 33.3633 25.0901C32.975 24.8959 32.6839 24.6046 32.3927 24.5075C31.7133 24.4104 31.6162 23.5365 30.9368 23.5365C30.8397 23.5365 30.7427 23.4394 30.6456 23.3423C30.3544 22.6626 29.675 22.3713 29.2868 21.6916C28.8986 21.109 28.6074 20.5264 28.3162 19.9438C28.2191 19.6525 27.7338 19.6525 27.7338 19.167C27.7338 18.6815 27.6368 18.196 27.5397 17.7105C27.5397 17.5163 27.4427 17.3221 27.5397 17.1279C27.6368 16.9337 27.8309 16.5453 27.928 16.6424C28.7044 16.7395 28.9956 16.0598 29.578 15.8656C29.9662 15.7685 30.2574 15.4772 30.6456 15.283C30.7427 15.1859 30.7427 14.9917 30.8397 14.7975Z" fill="white"/>
<path d="M27.1521 57.9097C27.0551 58.1039 26.958 58.2981 26.958 58.4923C27.0551 59.6575 26.6668 60.7256 26.4727 61.8908C26.4727 62.1821 26.2786 62.4734 26.1816 62.8618C26.0845 62.7647 25.9874 62.6676 25.9874 62.6676C26.0845 62.2792 25.7933 62.085 25.5992 61.7937C25.5021 61.6966 25.4051 61.4053 25.308 61.2111C25.308 61.114 25.211 60.9198 25.211 60.9198C24.7257 60.9198 24.8227 60.4344 24.6286 60.2402C24.3374 59.7547 24.0463 59.2692 23.658 58.7837C23.561 58.5895 23.4639 58.3953 23.3668 58.2011C21.6198 56.5504 19.4845 56.0649 16.9609 56.3562C17.1551 55.9678 17.155 55.6765 17.3492 55.5794C18.5139 54.9968 18.8051 53.9287 19.2904 52.8606C19.3874 52.6664 19.6786 52.4722 19.7756 52.1809C19.9698 51.8896 20.1639 51.5012 20.2609 51.2099C20.2609 50.6273 20.7462 50.5302 21.0374 50.2389C21.2315 50.0447 21.4257 49.8505 21.6198 49.7534C22.2021 49.2679 22.6874 48.5882 23.561 48.6853C23.561 48.1027 23.7551 47.7143 24.2404 47.423C24.4345 47.2288 24.7257 46.8404 24.7257 46.6462C24.6286 45.8694 25.211 45.3839 25.4051 44.7042C25.5992 44.1216 25.5992 43.3448 26.1816 42.8593C26.2786 42.7622 26.3757 42.568 26.2786 42.4709C26.2786 41.8883 26.1816 41.2086 26.0845 40.626C25.9874 40.2376 25.7933 39.7521 25.6963 39.3637C25.5021 39.3637 25.308 39.3637 25.1139 39.2666C25.1139 39.1695 25.0168 38.9753 25.0168 39.0724C24.4345 38.7811 23.9492 38.4898 23.4639 38.2956C23.0757 38.1014 22.6874 38.0043 22.2992 37.9072C21.911 37.8101 21.4257 37.713 21.4257 37.1304C21.4257 36.4507 21.3286 35.771 21.2315 35.1884C21.2315 34.8971 21.4257 34.4116 20.9404 34.2174C20.8433 34.2174 20.9404 33.9261 20.9404 33.829C20.8433 33.6348 20.7462 33.3435 20.6492 33.1493L20.5521 33.0523C20.5521 32.4697 20.0668 32.0812 19.7756 31.6928C19.7756 31.5957 19.7756 31.4986 19.6786 31.3044C20.358 31.3044 21.0374 31.3045 21.6198 31.4987C22.4933 31.79 23.3668 32.1783 24.2404 32.6638C24.7257 32.9551 25.211 33.5377 25.5992 33.9261C25.6963 34.0232 25.6963 34.1203 25.7933 34.1203C27.1521 34.4116 27.0551 35.4797 27.1521 36.4507C27.2492 37.6159 27.1521 38.684 27.3463 39.8492C27.8316 42.7622 27.4433 45.6752 27.5404 48.5882C27.5404 49.2679 27.5404 50.0447 27.5404 50.7244C27.5404 51.7925 27.5404 52.8606 27.3463 53.9287C27.1521 54.9968 27.1521 56.0649 27.1521 57.133C27.1521 57.3272 26.958 57.5214 26.958 57.6185C27.0551 57.6185 27.1521 57.7155 27.1521 57.9097Z" fill="#F6E018"/>
<path d="M47.8253 47.2288C47.9224 47.2288 48.1165 47.2288 48.1165 47.2288C48.0194 47.5201 47.9224 47.8114 47.9224 48.1998C47.9224 48.6853 47.9224 49.0737 47.9224 49.5592C47.9224 49.8505 47.8253 50.2389 48.2136 50.4331C48.2136 50.4331 48.3106 50.5302 48.2136 50.6273C48.2136 51.5012 48.6018 52.0838 49.2812 52.6664C49.5724 52.9577 49.8636 53.3461 50.1547 53.6374C50.543 53.9287 50.9312 54.1229 51.3194 54.3171C51.4165 54.3171 51.5136 54.3171 51.5136 54.3171C51.9989 55.0939 53.0665 54.8026 53.6489 55.2881C53.843 55.3852 54.0371 55.2881 54.2312 55.3852C54.4253 55.7736 54.7165 56.0649 54.8136 56.4533C55.1048 57.5214 55.9783 58.0069 56.6577 58.7837C56.9489 59.075 56.9489 59.6576 56.5606 59.6576C55.9783 59.7547 55.7842 60.1431 55.493 60.4344C55.0077 60.8228 54.6195 61.3083 54.2312 61.7938C53.843 62.3764 53.5518 62.959 53.0665 63.4445C52.5812 64.0271 52.0959 64.5126 51.6106 64.9981C51.4165 65.1923 51.3195 65.4836 51.2224 65.7749C50.8342 66.3574 50.543 66.9401 50.1547 67.4256L50.2518 67.5227C50.0577 67.5227 49.9606 67.5227 49.6694 67.5227C49.5724 66.7459 49.5724 65.969 49.4753 65.1922C49.4753 64.9009 49.2812 64.5126 49.2812 64.2213C49.2812 64.0271 49.3783 63.8329 49.3783 63.6387C49.3783 63.5416 49.4753 63.3474 49.3783 63.2503C49.0871 62.5706 48.6989 61.988 48.6018 61.1141C48.5047 60.2402 48.2136 59.4634 48.0194 58.5895C47.9224 58.3953 48.0194 58.104 48.0194 57.9098C48.0194 57.7156 48.2136 57.4243 47.7283 57.3272C47.7283 57.3272 47.6312 57.133 47.6312 57.0359C47.6312 56.0649 47.34 55.191 46.9518 54.4142C46.5636 53.8316 46.6606 53.249 46.6606 52.5693C46.6606 52.3751 46.7577 52.0838 46.8547 51.8896C46.2724 51.4041 46.5636 50.0447 47.4371 49.6563C46.9518 49.5592 46.8547 49.365 47.1459 48.8795C47.7283 48.2969 47.7283 47.7143 47.8253 47.2288Z" fill="#F6E018"/>
<path d="M50.1552 43.2477C49.864 43.539 49.5728 43.8303 49.3787 44.1216C48.9905 44.7042 48.6993 45.1897 48.4081 45.7723C48.311 45.9665 48.214 46.2578 48.214 46.5491C47.9228 46.1607 47.9228 45.6752 48.214 45.3839C48.4081 45.1897 48.5052 44.9955 48.214 44.8013C48.1169 44.7042 48.0199 44.51 48.1169 44.4129C48.6022 44.0245 48.5052 43.539 48.4081 43.1506C48.311 42.3738 48.311 41.6941 48.6993 41.0144C48.6993 40.9173 48.7963 40.8202 48.6993 40.8202C48.4081 40.4318 48.7963 40.4318 48.8934 40.3347C48.9905 40.2376 49.1846 40.2376 49.2816 40.1405C49.0875 40.0434 48.9905 40.0434 48.8934 39.9463C48.8934 39.2666 48.9905 38.4898 48.9905 37.8102C48.9905 37.3247 49.1846 37.1304 49.5728 37.0333C50.3493 36.6449 51.0287 36.2566 51.8052 35.8682C52.4846 35.4798 53.0669 35.0914 53.7464 34.8001C54.4258 34.5088 55.1052 34.3146 55.8817 34.4117C56.464 34.5088 57.0464 34.4117 57.8228 34.4117C57.6287 34.8001 57.5317 35.0914 57.4346 35.3827C57.3375 35.674 57.0464 35.8682 57.0464 36.1594C57.0464 36.5478 56.7552 36.742 56.5611 37.0333C56.367 37.3246 56.1728 37.5189 56.0758 37.9073C55.7846 38.6841 55.2022 39.3637 55.2022 40.2376C55.2022 40.5289 54.9111 40.8202 54.814 41.1115C54.6199 41.597 54.0375 41.597 53.6493 41.597C52.8728 41.6941 52.1934 42.0825 51.514 42.4709C51.3199 42.568 51.0287 42.6651 50.8346 42.8593C50.4463 42.8593 50.3493 43.0535 50.1552 43.2477Z" fill="#F6E018"/>
<path d="M54.5229 53.4431C53.8435 53.346 53.067 53.1518 52.2905 52.9576C51.7082 52.7634 51.0288 52.4721 50.5435 52.1808C50.2523 51.9866 49.864 51.6953 49.864 51.1127C49.864 50.7243 49.6699 50.3359 49.6699 49.9475C49.6699 49.3649 49.6699 48.5881 49.9611 48.1026C50.4464 47.0345 50.8346 45.8693 51.9023 45.1896C52.4846 44.8983 52.8729 44.3157 53.3582 43.8302C53.4552 43.7331 53.5523 43.636 53.6493 43.636C54.1346 43.8302 54.8141 43.636 55.0082 44.3157C55.2023 44.7041 55.5905 45.0925 55.6876 45.4809C55.8817 45.9664 56.0758 46.4519 56.0758 46.9374C56.1729 48.1026 56.367 49.2678 56.2699 50.433C56.1729 51.2098 56.367 52.1808 55.3964 52.6663L55.2994 52.7634C55.2994 53.4431 55.2994 53.4431 54.5229 53.4431Z" fill="white"/>
<path d="M18.9995 41.7912C19.0966 41.7912 19.1936 41.7912 19.3877 41.7912C19.3877 41.597 19.3877 41.3057 19.3877 41.1115C19.3877 40.8202 19.3877 40.5289 19.6789 40.3347C19.9701 40.1405 20.0672 39.7521 20.1642 39.5579C20.4554 39.655 20.6495 39.7521 20.8436 39.655C21.3289 39.2666 21.9113 39.5579 22.4936 39.4608C22.5907 39.4608 22.6878 39.5579 22.7848 39.655C23.076 39.7521 23.2701 39.9463 23.5613 39.9463C24.1436 40.0434 24.726 40.5289 24.8231 41.1115C24.8231 41.3057 25.1142 41.597 25.0172 41.7912C24.726 42.4709 25.0172 43.2477 24.3378 43.7332L24.2407 43.8303C24.4348 44.51 23.8525 44.9954 23.4642 45.2867C23.076 45.6751 22.9789 46.452 22.2995 46.5491C22.1054 46.5491 22.0083 46.9375 21.8142 47.0346C21.1348 47.6172 20.3583 48.1998 19.4848 48.4911C19.3877 48.4911 19.2907 48.5881 19.0966 48.7823C18.9025 48.3939 18.8054 48.0055 18.6113 47.7142C18.5142 47.6171 18.4172 47.52 18.3201 47.3258C18.4172 47.2287 18.5142 47.2288 18.6113 47.1317C18.223 46.8404 18.223 46.3549 18.5142 45.9665C18.6113 45.8694 18.6113 45.5781 18.5142 45.481C18.4172 45.2868 18.126 45.1897 18.126 44.9955C18.126 44.51 18.223 44.1216 18.223 43.6361C18.223 43.539 18.3201 43.3448 18.3201 43.2477C18.3201 42.8593 18.3201 42.4709 18.7083 42.1796C18.9024 42.2767 18.9025 42.0825 18.9995 41.7912Z" fill="white"/>
</svg>
