<svg width="72" height="72" viewBox="0 0 72 72" fill="none" xmlns="http://www.w3.org/2000/svg">
<path d="M16.9731 27.2195C16.7629 26.904 16.9731 26.5886 16.868 26.2732C16.7629 25.9578 17.0782 25.3269 17.0782 25.3269C17.6037 24.4858 18.1292 23.7498 18.6547 22.9086C18.7598 22.8035 18.7598 22.5932 18.7598 22.3829C18.7598 21.2263 18.8649 20.1749 19.0751 19.0184C19.2853 17.9669 19.1802 16.7052 19.1802 15.4435C18.6547 15.7589 18.2343 16.0744 17.919 16.2846C17.6037 16.4949 17.3935 16.6001 17.1833 16.8104C16.868 17.1258 16.4476 17.4412 16.1323 17.7566C15.5017 18.2823 14.766 18.5978 14.2405 19.3338C14.1354 19.5441 14.0303 19.6492 13.9252 19.8595C13.8201 19.9646 13.715 20.1749 13.5048 20.28C13.1895 20.4903 12.8742 20.5955 12.664 20.8058C12.2437 21.2263 11.9284 21.6469 11.6131 22.0675C11.508 22.1726 11.1927 22.2777 11.1927 22.2777C10.9825 22.6983 10.7723 23.0137 10.5621 23.3292C9.72128 24.696 8.67029 25.7475 8.0397 27.2195C7.7244 27.9555 7.304 28.5863 7.1989 29.3223C6.98871 30.1635 6.98871 31.0046 6.88361 31.8457C6.77851 32.3715 6.77851 32.8972 6.67341 33.4229C6.46321 34.5795 6.88361 35.4206 7.6193 36.1566C7.8295 36.2617 7.8295 36.5772 7.9346 36.8926C8.0397 37.1029 8.1448 37.208 8.1448 37.4183C8.24989 37.8389 8.46009 38.2594 8.56519 38.68C8.67029 39.1006 8.88049 39.3109 9.19578 39.416C9.61618 39.5211 9.93147 39.9417 10.3519 40.152C10.8774 40.4674 11.508 40.888 12.0335 40.9931C13.1895 41.2034 14.3456 41.2035 15.5017 41.3086C15.7119 41.3086 15.9221 41.0983 16.2374 40.9931C16.7629 41.3086 16.868 41.2034 17.2884 40.4674C17.4986 40.9931 17.7088 41.3086 18.2343 40.9931C18.5496 40.7829 19.3904 41.624 19.2853 42.1497C19.2853 42.2549 19.2853 42.36 19.1802 42.36C18.6547 42.4652 18.4445 43.2012 17.7088 43.2012C16.868 43.3063 16.4476 44.1474 16.2374 45.1988C15.9221 46.5657 15.5017 47.8274 15.1864 49.0891C14.9762 49.9303 14.8711 50.7714 14.766 51.6126C14.766 51.928 14.5558 52.1383 14.5558 52.3486C14.4507 53.7155 14.0303 54.9771 13.715 56.2388C13.3997 57.6057 13.1895 58.9726 12.9793 60.3394C12.7691 61.3908 12.6641 62.5474 12.559 63.704H12.4538C12.4538 63.4937 12.4538 63.1783 12.3487 62.968C12.3487 61.7063 12.2437 60.4446 12.2437 59.1829C12.2437 57.9212 12.4539 56.6594 12.559 55.3977C12.6641 54.6617 12.664 53.9257 12.7691 53.0845C12.8742 52.4537 13.0844 51.8228 13.0844 51.192C13.1895 50.6663 13.0844 50.1406 13.0844 49.6148C13.0844 49.5097 12.9793 49.4046 13.0844 49.2994C13.2946 48.4583 13.3997 47.6171 13.6099 46.776C13.9252 45.7246 14.2405 44.7783 14.5558 43.7269C13.5048 43.7269 12.664 43.096 11.8233 42.5703C11.508 42.36 10.9825 42.36 10.5621 42.2549C10.3519 42.1497 10.1417 42.1497 10.0366 42.0446C9.30089 41.5188 8.4601 40.888 7.8295 40.3623C7.51421 40.152 7.19891 39.8366 6.88361 39.6263C6.56832 39.2057 6.35811 38.5749 6.14792 38.0492C5.93772 37.6286 5.83262 37.208 5.62242 36.6823C5.30713 35.8412 4.99183 34.8949 5.09693 33.8434C5.09693 33.4229 4.88673 32.8972 4.99183 32.4766C5.09693 31.2149 5.09693 29.9532 5.83262 28.9018C5.93772 28.7966 6.04282 28.5863 6.04282 28.4812C5.93772 28.1658 6.14792 27.9555 6.25302 27.64C6.77852 26.5886 7.19891 25.3269 7.8295 24.3806C8.355 23.4343 9.19578 22.6983 9.72128 21.752C10.1417 21.1212 10.6672 20.5955 11.1927 20.0698C12.0335 19.3338 12.7691 18.2824 13.5048 17.4412C14.1354 16.8104 14.766 16.3898 15.3966 15.8641C16.0272 15.4435 16.7629 15.0229 17.2884 14.4972C17.8139 13.9715 18.5496 13.9715 19.0751 13.3406C19.1802 13.1303 19.3904 13.0252 19.6006 12.7098C19.6006 12.7098 19.8108 12.7098 19.8108 12.6046C20.1261 11.9738 20.4414 11.2378 20.7567 10.6069C20.8618 10.3967 21.072 10.1864 21.1771 9.97608C21.8076 9.02979 22.5433 8.08349 23.0688 7.03206C23.4892 6.29606 24.0147 5.77038 24.7504 5.34981C25.6963 4.71895 26.7473 4.40352 27.5881 3.77266C28.2187 3.35209 28.7442 3.56236 29.2697 3.98293C29.6901 4.29836 30.1105 4.71892 30.5309 4.92921C30.8462 5.03435 31.2665 5.03438 31.5818 4.82409C32.6328 4.40352 33.5787 3.77264 34.6297 3.35207C35.5756 2.9315 36.6266 3.1418 37.6776 3.03665C38.3082 3.03665 39.0439 2.82635 39.6745 2.82635C39.8846 2.82635 40.0948 2.93151 40.305 3.03665C40.9356 3.24694 41.6713 3.56237 42.3019 3.56237C43.3529 3.56237 44.1937 4.19321 45.0345 4.4035C46.0855 4.71892 46.8212 5.45493 47.662 6.19093C48.5028 6.92693 49.2384 7.66292 49.7639 8.6092C50.1843 9.3452 50.3945 10.0812 50.7098 10.8172C50.92 11.2378 51.2353 11.6584 51.4455 12.0789C51.6557 12.6046 51.8659 13.1304 52.0761 13.6561C52.1812 14.0766 52.2863 14.6023 52.3914 15.0229C52.3914 15.3383 52.3914 15.6538 52.3914 15.8641C52.3914 15.9692 52.3914 16.1795 52.3914 16.1795C52.3914 16.1795 52.7067 18.0721 52.4965 19.0184C53.2322 19.6492 53.9679 20.2801 54.8087 20.9109C55.4393 21.4366 56.0699 21.752 56.7005 22.2777C57.3311 22.8035 57.9616 23.2241 58.382 24.1703C58.6973 24.9063 59.3279 25.432 59.9585 25.9577C60.6942 26.5886 61.2197 27.5349 61.7452 28.4812C62.3758 29.5326 62.6911 30.6892 63.5319 31.6355C64.1625 32.2663 64.5829 33.3177 64.688 34.4743C64.688 35.3154 64.5829 36.2617 64.5829 37.1029C64.5829 38.3646 64.4778 39.7314 64.4778 40.9931C64.4778 41.8343 64.7931 42.5703 65.0033 43.4115C65.3186 44.8835 65.6339 46.3554 65.9492 47.8274C66.1594 48.7737 66.4747 49.6149 66.4747 50.5612C66.4747 51.2972 66.8951 51.8229 66.6849 52.664C66.4747 53.2949 66.79 54.0309 66.8951 54.7669C66.8951 54.872 67.0002 54.872 67.0002 54.9772C66.5798 56.0286 66.8951 57.08 66.8951 58.2366C66.79 59.1828 66.895 60.2343 66.5798 61.0754C66.1594 61.9166 66.3696 62.7577 66.0543 63.5988C65.739 64.3348 65.739 65.1759 65.1084 65.7017C64.8982 65.8068 64.8982 66.1223 64.5829 66.3326C64.5829 65.912 64.5829 65.4914 64.5829 65.0708C64.5829 64.44 64.688 63.8091 64.7931 63.1783C64.8982 62.0217 65.1084 60.76 65.2135 59.6034C65.2135 59.288 65.0033 59.0777 65.0033 58.7623C65.0033 57.9211 65.1084 57.08 65.1084 56.1337C65.1084 55.2926 64.8982 54.5566 64.8982 53.8206C64.8982 53.1897 64.688 52.664 64.5829 52.0331C64.4778 50.456 64.1625 48.8788 63.7421 47.3017C63.5319 46.4606 63.4268 45.5143 63.3217 44.568C63.3217 44.3577 63.2166 44.2526 63.0064 43.9372C62.7962 44.568 62.586 45.0938 62.3758 45.5143C62.1656 45.8297 61.8503 46.1451 61.6401 46.4606C61.0095 47.512 59.9585 47.7223 59.1177 48.3531C58.3821 48.984 57.4362 49.2995 56.4903 49.72C55.3342 50.2457 54.1781 50.7714 53.022 51.192C52.8118 51.2971 52.6016 50.9817 52.3914 50.8766C51.7608 51.2971 50.92 51.5074 50.1843 51.4023C49.9741 51.4023 49.869 51.4023 49.6588 51.4023C48.9231 51.4023 48.1875 51.6126 47.5569 51.0869L47.4518 50.9817C46.5059 51.5074 45.6651 50.5612 44.7192 50.7715C44.1937 50.8766 43.6682 50.456 43.1427 50.2457C42.7223 50.0355 42.3019 49.9303 41.8815 50.0354C41.2509 50.1406 40.6203 49.9303 39.9897 49.8251C39.7796 49.8251 39.5694 49.72 39.3592 49.6148C38.9388 49.5097 38.5184 49.5097 38.098 49.2994C37.5725 48.984 37.5725 49.2995 37.4674 49.72C37.4674 49.8252 37.4674 50.0354 37.4674 50.1406C37.5725 50.6663 36.7317 50.9817 37.1521 51.6126C37.4674 52.0332 37.8878 52.3486 38.098 52.7691C38.4133 53.4 38.8337 54.136 38.8337 54.872C38.8337 55.3977 38.5184 56.0286 38.3082 56.6594C38.2031 56.9748 37.9929 57.2903 37.8878 57.6057C38.5184 58.4469 39.0439 59.1828 39.5694 59.9188C39.8846 60.3394 39.7796 60.76 39.5694 61.1805C39.2541 61.7063 39.0439 62.232 38.7286 62.7577C39.3592 63.1783 39.8847 63.8091 39.8847 64.7554C39.8847 64.8606 39.8847 64.9657 39.8847 64.9657C40.8305 65.176 40.1999 66.3326 40.6203 66.8583C40.7254 67.0686 40.6203 67.6994 40.4101 68.12C40.305 68.4354 40.0948 68.7509 39.5694 68.6457C38.9388 68.5406 38.3082 68.856 37.5725 68.9611C37.3623 68.9611 36.9419 69.0663 36.8368 68.9611C36.6266 68.6457 36.4164 68.1199 36.5215 67.8045C36.8368 66.6479 37.4674 65.912 38.6235 65.912C39.0439 65.912 39.2541 65.5965 38.9388 65.0708C38.7286 64.6503 38.6235 64.3348 38.4133 64.0194C38.2031 63.5988 37.7827 63.3885 37.3623 63.4937C36.8368 63.5988 36.5215 63.1783 36.4164 62.7577C36.3113 62.3371 36.3113 61.9165 36.4164 61.496C36.5215 61.0754 36.8368 60.8651 37.2572 61.0754C37.6776 61.1806 37.9929 60.8651 37.9929 60.4445C38.098 60.1291 37.9929 59.7085 37.7827 59.3931C37.5725 58.9725 37.1521 58.6571 36.7317 58.3417C36.6266 58.2365 36.4164 58.2366 36.2062 58.1314C35.996 58.0263 35.7858 57.816 35.6807 57.6057C35.5756 57.08 35.4705 56.5543 35.4705 55.9234C35.4705 55.2926 35.7858 55.0823 36.3113 55.2926C36.7317 55.5029 36.9419 55.5029 37.2572 54.9772C37.5725 54.2412 37.3623 53.6103 37.047 52.9794C36.9419 52.7691 36.8368 52.5589 36.7317 52.3486C36.5215 52.0332 36.3113 51.928 35.996 52.0331C34.945 52.5588 34.7348 52.2434 34.6297 50.9817C34.6297 50.456 34.6297 50.0354 35.2603 49.9303C35.3654 49.9303 35.5756 49.72 35.6807 49.5097C35.8909 48.984 36.1011 48.4583 36.1011 48.0377C36.1011 47.7223 35.6807 47.4069 35.4705 47.0915C35.2603 46.8812 35.0501 46.6709 34.7348 46.5657C34.5246 46.4606 34.3144 46.4606 34.1042 46.4606C33.9991 46.4606 33.9991 46.5657 33.894 46.5657C33.0532 45.9349 33.2634 46.8811 33.1583 47.3017C33.0532 47.1966 32.843 47.1966 32.7379 47.0915C32.4226 48.6686 31.2665 48.248 30.4258 48.3531C30.2156 49.1943 30.1105 50.0354 29.9003 50.8766C29.7952 51.2971 29.3748 51.5075 29.0595 51.8229C28.3238 52.4537 27.5881 52.7692 26.6422 52.3486C25.5912 51.928 25.0657 51.0868 24.7504 49.9303C24.0147 49.8251 23.279 49.72 22.7535 48.8788C22.5433 48.5634 22.3331 48.1429 22.3331 47.7223C22.228 46.776 22.3331 45.8297 22.3331 44.7783C22.3331 44.7783 22.4382 44.6732 22.4382 44.568C21.072 43.6217 20.9669 42.1497 21.1771 40.5726C21.2822 40.0469 21.5974 39.6263 21.8076 39.1006C22.0178 38.7851 22.0178 38.5749 21.7025 38.2595C21.3873 37.944 21.2822 37.3132 21.1771 36.7875C20.9669 35.736 21.3872 34.7897 21.9127 33.9486C22.228 33.528 22.1229 33.2126 22.0178 32.6869C21.5975 31.4252 21.4924 30.1635 22.0178 29.0069C22.228 28.4812 22.0178 28.376 21.7025 28.2709C20.7567 27.9555 20.3363 27.0092 19.8108 26.168C19.4955 25.6423 19.1802 25.1166 18.8649 24.4858C18.5496 24.9063 18.3394 25.3269 18.1292 25.6423C17.919 25.9578 17.7088 26.2732 17.6037 26.5886C17.6037 26.5886 17.6037 27.2195 17.3935 27.2195C17.3935 27.4298 16.9731 27.2195 16.9731 27.2195ZM52.9169 20.7006C52.7067 21.4366 52.6016 22.1726 52.3914 22.8035C51.8659 23.8549 51.6557 25.1166 50.8149 25.9577C50.0792 26.6937 49.3435 27.5349 48.713 28.4812C48.1875 29.3223 47.662 30.0583 46.8212 30.3737C46.611 30.4789 46.5059 30.6892 46.4008 30.8995C46.1906 31.5303 45.56 31.7406 45.1396 32.056C44.9294 32.1612 44.8243 32.3715 44.7192 32.4766C44.4039 32.792 44.0886 33.2126 43.7733 33.4229C43.5631 33.6332 43.2478 33.7383 43.0376 33.8434C42.5121 34.0537 41.9866 34.264 41.4611 34.4743C41.0407 34.6846 40.6203 34.7897 40.305 35C39.9897 35.2103 39.7796 35.2103 39.5694 35C38.5184 34.0537 38.6235 32.8972 39.149 31.5303C39.4643 30.584 39.7795 29.6377 40.1999 28.5863C39.8846 28.5863 39.5694 28.5863 39.2541 28.6915C38.2031 28.9017 37.1521 29.2172 35.996 29.3223C35.3654 29.4275 34.7348 29.2172 34.1042 29.112C33.0532 29.0069 32.0022 29.0069 31.0563 28.9018C30.5309 28.7966 30.0054 28.6915 29.585 28.1657C29.2697 27.64 28.8493 27.2195 28.534 26.6938C28.4289 26.5886 28.2187 26.3783 28.2187 26.4835C27.7983 26.6937 27.483 26.904 27.1677 27.2195C26.5371 27.64 26.0116 28.1658 25.381 28.4812C24.8555 28.6915 24.33 28.7966 23.8045 28.9018C24.1198 29.7429 23.5943 30.2686 23.0688 30.6892C22.9637 30.7943 22.7535 30.8995 22.8586 31.0046C22.9637 31.5303 22.9637 32.1612 23.1739 32.6869C23.279 32.8972 23.8045 32.792 24.1198 32.8972C24.2249 32.8972 24.33 32.8972 24.5402 33.0023C24.5402 33.4229 24.6453 33.8435 24.5402 34.0537C24.1198 34.6846 23.4892 35.1052 22.9637 35.6309C22.8586 36.0515 22.7535 36.5772 22.6484 36.9977C22.6484 37.208 22.6484 37.5234 22.7535 37.6286C22.8586 37.7337 23.1739 37.8389 23.279 37.7337C23.4892 37.7337 23.6994 37.5235 23.8045 37.4183C24.4351 36.8926 25.381 37.1029 25.9065 37.944C25.5912 38.3646 25.2759 38.8903 24.9606 39.3109C24.4351 39.8366 24.0147 40.4674 23.3841 40.888C22.9637 41.3086 23.0688 41.8343 22.9637 42.36C22.7535 42.9909 23.0688 43.3063 23.279 43.6217C23.6994 43.2011 24.0147 42.5703 24.4351 42.5703C24.8555 42.5703 25.381 42.9909 26.0116 43.3063C24.4351 44.8834 23.6994 46.5657 24.2249 48.7737C24.8555 48.6686 25.0657 48.5634 25.4861 47.9326C25.5912 47.7223 25.6963 47.512 25.9065 47.512C26.2218 47.4069 26.6422 47.4069 27.0626 47.512C27.1677 47.512 27.1677 48.0377 27.1677 48.3531C27.1677 48.4583 27.0626 48.4583 27.0626 48.5634C26.9575 49.1943 26.7473 49.72 26.7473 50.3509C26.7473 51.0869 27.1677 51.5074 27.5881 51.5074C28.2187 51.4023 28.8493 51.0868 29.2697 50.456C29.4799 50.2457 29.3748 49.8252 29.4799 49.5097C29.4799 49.4046 29.4799 49.2995 29.585 49.1943C29.7952 48.6686 29.6901 48.248 29.4799 47.8274C29.1646 47.1966 29.2697 46.9863 30.2156 46.4606C30.636 46.2503 30.8462 46.4606 31.0563 46.9863C31.3716 47.8274 32.1073 47.9326 32.5277 47.3017C32.7379 46.8811 33.0532 46.5657 33.3685 46.1451C33.4736 46.04 33.3685 45.7246 33.2634 45.6194C33.0532 45.1989 32.7379 44.8834 32.5277 44.568C32.1073 43.7269 32.2124 42.9909 32.843 42.36C33.0532 42.1498 33.2634 41.9394 33.3685 41.7291C33.5787 40.9931 34.1042 40.888 34.6297 40.9931C35.0501 41.0983 35.2603 40.888 35.2603 40.5726C35.4705 40.5726 35.6807 40.6777 35.8909 40.6777C36.2062 40.5726 36.4164 40.2572 36.7317 40.0469C36.8368 39.9417 36.9419 39.8366 37.047 39.8366C37.6776 40.152 38.098 39.6263 38.5184 39.416C38.8337 39.2057 39.149 38.7852 39.4643 38.7852C39.9897 38.7852 40.305 38.5749 40.5152 38.0492C40.7254 38.1543 40.9356 38.2594 41.0407 38.1543C41.6713 37.944 42.3019 37.6286 42.8274 37.3132C43.2478 37.1029 43.6682 36.7874 44.0886 36.472C44.6141 36.1566 45.1396 35.8412 45.56 35.5257C46.2957 34.8949 47.0314 34.0537 47.8722 33.4229C48.2926 33.1075 48.9232 32.8972 49.4486 32.5818C49.4486 32.6869 49.5537 32.6869 49.5537 32.792C49.4486 33.0023 49.4486 33.3177 49.3436 33.528C48.8181 35.1052 47.7671 36.3669 46.8212 37.6286C46.611 37.8389 46.2957 37.8389 46.0855 37.944C45.6651 38.1543 45.3498 38.3646 44.9294 38.5749C44.7192 38.68 44.6141 38.7852 44.4039 38.8903C44.1937 38.9955 43.8784 39.1006 43.6682 39.1006C43.5631 39.2057 43.458 39.1006 43.3529 39.1006C43.1427 39.1006 42.8274 39.2057 42.7223 39.416C42.6172 39.6263 42.7223 40.0469 42.8274 40.152C43.0376 40.3623 43.1427 40.6777 43.2478 40.888C43.7733 41.5189 43.7733 42.2548 43.7733 43.096C43.7733 43.5166 43.7733 43.9371 43.7733 44.3577C43.7733 44.6731 43.8784 44.8834 43.5631 45.1988C43.3529 45.4091 43.2478 45.7246 43.1427 46.04C42.9325 46.6709 42.7223 47.3017 42.407 47.8274C42.1968 48.3531 42.1968 48.5635 42.7223 48.6686C43.458 48.8789 44.2988 48.8789 44.9294 49.1943C45.9804 49.8252 47.0314 49.6149 48.0824 49.8251C49.3435 50.0354 50.6047 49.72 51.971 49.6148C52.0761 49.6148 52.0761 49.5097 52.1812 49.4045C52.2863 49.2994 52.2863 49.2994 52.3914 49.2994C53.3373 48.984 54.2832 48.7737 55.124 48.1429C55.3342 47.9326 55.6495 47.8274 55.8597 47.7223C55.9648 47.6171 56.175 47.6171 56.2801 47.512C56.7005 47.1966 57.0158 46.8812 57.4362 46.5657C58.5922 45.9349 59.433 44.9886 60.1687 43.9372C60.484 43.4115 60.6942 42.7806 61.1146 42.4652C61.7452 41.9394 62.0605 41.3086 62.2707 40.6777C62.586 39.9417 62.6911 39.2057 62.7962 38.4697C62.9013 38.0492 62.7962 37.6286 62.7962 37.208C62.7962 36.472 63.0064 35.6309 62.9013 34.8949C62.7962 34.1589 62.586 33.528 62.3758 32.8972C61.7452 31.7406 61.0095 30.584 60.484 29.4275C59.7483 27.9555 58.6973 26.7989 57.6464 25.6423C57.1209 25.0115 56.4903 24.3806 55.9648 23.7498C55.5444 23.3292 55.2291 22.8035 54.8087 22.3829C54.1781 21.4366 53.5475 21.1212 52.9169 20.7006ZM28.8493 25.1166C29.2697 25.7475 29.585 26.4835 30.1105 27.0092C30.4258 27.4297 30.9513 27.5349 31.4767 27.7452C31.792 27.8503 32.2124 27.9555 32.5277 27.9555C33.2634 27.9555 33.9991 28.0606 34.7348 27.9555C35.1552 27.8503 35.5756 27.7452 35.996 27.9555C36.1011 28.0606 36.2062 28.0606 36.4164 27.9555C37.5725 27.6401 38.6235 27.3246 39.7795 27.0092C40.0948 26.904 40.5152 26.3783 40.6203 26.0629C40.8305 24.3806 40.9356 22.5932 41.0407 20.8058C41.0407 20.0698 40.9356 19.3338 40.8305 18.5978C40.6203 17.2309 40.4101 15.8641 39.9897 14.6023C39.6745 13.5509 39.149 12.6046 38.5184 11.7635C37.9929 10.9223 37.4674 10.1863 36.7317 9.66063C35.4705 8.6092 33.894 8.39892 32.4226 8.6092C32.3175 8.6092 32.3175 8.6092 32.2124 8.6092C31.3716 8.50406 30.7411 9.13493 30.0054 9.45036L29.9003 9.55551C29.6901 9.87094 29.585 10.0812 29.3748 10.3966C28.8493 11.1326 28.2187 11.8687 27.7983 12.7098C27.3779 13.5509 27.1677 14.6023 27.1677 15.5486C27.0626 17.2309 27.2728 18.8081 27.3779 20.4903C27.3779 20.5955 27.3779 20.5955 27.3779 20.7006C28.0085 21.4366 27.9034 22.3829 28.1136 23.3292C28.3238 23.96 28.6391 24.3806 29.0595 24.8012C29.1646 24.9063 29.2697 25.0115 29.3748 25.1166C29.1646 24.9063 29.0595 25.0115 28.8493 25.1166ZM36.7317 44.3577C36.8368 44.2526 36.9419 44.2526 36.9419 44.2526C37.5725 44.0423 38.2031 44.1474 38.5184 44.568C38.8337 45.0937 38.5184 45.5143 38.4133 45.9349C38.4133 46.04 38.2031 46.1451 38.2031 46.2503C38.2031 46.4606 38.098 46.6708 38.2031 46.776C38.7286 47.6171 39.3592 47.7223 39.9897 47.0915C40.9356 46.1452 41.6713 44.9886 41.6713 43.4115C41.6713 42.4652 41.356 41.7292 41.1458 40.7829C41.0407 40.5726 40.6203 40.2572 40.4101 40.2572C39.5694 40.4675 38.8337 40.6777 38.098 40.9931C37.5725 41.2034 37.047 41.5189 36.4164 41.8343C36.7317 42.4652 37.2572 43.2011 36.7317 44.3577ZM21.7025 19.2286C21.9127 18.9132 22.1229 18.7029 22.3331 18.4926C22.5433 18.2824 22.8586 18.0721 23.1739 17.8618C23.4892 17.5463 23.8045 17.0206 24.2249 16.7052C24.9606 16.0743 25.1708 15.2332 25.1708 14.2869C25.1708 13.8664 24.9606 13.7612 24.6453 13.7612C23.6994 13.6561 22.7535 13.8664 21.8076 14.2869C21.4923 14.3921 21.2822 14.8126 21.072 15.1281C20.5465 15.9692 20.6516 17.0206 20.4414 17.9669C20.4414 18.2824 20.6516 18.7029 20.8618 18.9132C21.1771 19.0183 21.4924 19.1235 21.7025 19.2286ZM23.279 27.0092C23.4892 26.2732 23.279 25.8526 22.9637 25.7475C22.7535 24.3806 23.3841 23.1189 22.7535 21.8572C23.4892 21.752 23.4892 21.7521 23.6994 20.9109C23.3841 20.9109 23.0688 20.9109 22.8586 20.8058C22.6484 20.5955 22.5433 20.2801 22.4382 19.9646C22.1229 19.8595 21.8076 19.7543 21.5975 19.7543C21.3873 20.0698 21.1771 20.4903 20.9669 20.4903C20.5465 20.4903 20.4414 20.7006 20.4414 21.1212C20.4414 21.4366 20.2312 21.8572 20.2312 22.1726C20.3363 22.8035 20.5465 23.4343 20.6516 24.0652C20.8618 25.3269 21.4923 26.168 22.4382 26.7989C22.6484 26.904 22.9637 26.904 23.279 27.0092ZM27.1677 24.8012C27.0626 24.5909 27.0626 24.5909 27.0626 24.5909C26.5371 23.6446 26.3269 22.488 26.0116 21.4366C25.9065 21.1212 25.5912 20.9109 25.4861 20.7006C25.2759 20.9109 24.9606 21.2263 24.8555 21.4366C24.7504 22.0675 24.7504 22.6983 24.4351 23.3292V23.5395C24.4351 23.8549 24.5402 24.1703 24.6453 24.4858C24.7504 25.0115 24.7504 25.5372 24.9606 25.9577C25.0657 26.168 25.381 26.2732 25.5912 26.2732C25.8014 26.2732 26.0116 26.168 26.1167 26.0629C26.5371 25.5372 26.8524 25.1166 27.1677 24.8012ZM23.279 11.9738C23.6994 11.9738 24.1198 12.0789 24.6453 12.0789C24.4351 11.8686 24.33 11.7635 24.33 11.6584C24.2249 11.4481 24.2249 11.1326 24.2249 10.9224C24.4351 11.0275 24.5402 11.0275 24.7504 11.1327C25.0657 11.2378 25.2759 11.2378 25.6963 11.4481C25.5912 11.1326 25.4861 10.9223 25.4861 10.8172C25.2759 10.1863 24.9606 9.45036 25.0657 8.92465C25.2759 8.08351 25.6963 7.24235 26.1167 6.50635C26.3269 6.19092 26.6422 6.0858 26.8524 5.77037C26.8524 5.66523 26.7473 5.66521 26.7473 5.56007C26.1167 5.66521 25.9065 5.77037 24.33 7.87322C23.6994 8.92465 22.8586 10.1864 23.279 11.9738ZM29.7952 5.98064L29.6901 5.87552C28.9544 6.29609 28.2187 6.71665 27.483 7.24236C26.6422 7.87322 26.1167 8.81951 26.2218 9.97608C26.2218 10.3966 26.432 10.7121 26.7473 10.7121C26.9575 10.7121 27.1677 10.3967 27.2728 10.0812C27.3779 9.7658 27.483 9.45034 27.6932 9.13492C28.3238 8.18863 29.0595 7.34752 29.6901 6.40123C29.6901 6.40123 29.6901 6.19092 29.7952 5.98064ZM35.8909 42.9909C35.6807 42.7806 35.4705 42.36 35.3654 42.4652C34.8399 42.5703 34.4195 42.7806 33.894 42.9909C33.7889 43.096 33.6838 43.4114 33.5787 43.6217C33.5787 43.7268 33.6838 43.832 33.7889 43.9372C33.9991 44.1475 34.2093 44.2526 34.5246 44.3577C34.7348 44.4629 35.0501 44.568 35.0501 44.4629C35.2603 44.0423 35.5756 43.5166 35.8909 42.9909ZM24.2249 18.9132C24.7504 19.1235 25.2759 19.3338 25.8014 19.5441C25.6963 18.9132 25.5912 18.4926 25.4861 17.8618C25.0657 18.2823 24.33 18.2823 24.2249 18.9132Z" fill="black"/>
<path d="M28.8492 25.1166C29.0594 25.0114 29.1645 25.0114 29.2696 24.9063C29.1645 24.8011 29.0594 24.5909 28.9543 24.5909C28.4288 24.2754 28.2186 23.8549 28.0084 23.1189C27.7982 22.2777 27.9033 21.2263 27.2727 20.4903C27.2727 20.4903 27.2727 20.3851 27.2727 20.28C27.1676 18.5977 27.0625 17.0206 27.0625 15.3383C27.0625 14.392 27.3778 13.4457 27.6931 12.4995C28.1135 11.6583 28.7441 10.9223 29.2696 10.1863C29.4798 9.87088 29.5849 9.66061 29.7951 9.34518L29.9002 9.24003C30.6359 8.9246 31.2665 8.29376 32.1073 8.3989C32.2124 8.3989 32.2123 8.3989 32.3174 8.3989C33.8939 8.18862 35.3653 8.3989 36.6265 9.45033C37.3622 9.97604 37.8877 10.8172 38.4132 11.5532C38.9387 12.3943 39.5693 13.3406 39.8846 14.392C40.305 15.6537 40.5152 17.0206 40.7254 18.3875C40.8305 19.1234 40.9356 19.8595 40.9356 20.5955C40.8305 22.3829 40.7254 24.0652 40.5152 25.8526C40.5152 26.2732 40.0948 26.6937 39.6744 26.7989C38.6234 27.2194 37.4673 27.4297 36.3112 27.7451C36.2061 27.7451 35.9959 27.7451 35.8908 27.7451C35.4704 27.5349 35.05 27.64 34.6296 27.7451C33.8939 27.8503 33.1582 27.7451 32.4225 27.7451C32.1072 27.7451 31.6869 27.64 31.3716 27.5348C30.8461 27.3246 30.3206 27.2194 30.0053 26.7989C29.5849 26.4834 29.2696 25.7474 28.8492 25.1166Z" fill="white"/>
<path d="M36.7314 44.3577C37.2569 43.3063 36.7314 42.5703 36.311 41.8343C36.9416 41.5189 37.4671 41.2034 37.9926 40.9932C38.7283 40.6777 39.5691 40.4675 40.3048 40.2572C40.515 40.2572 40.9354 40.5726 41.0405 40.7829C41.2507 41.6241 41.566 42.4652 41.566 43.4115C41.566 44.9886 40.8303 46.1452 39.8844 47.0915C39.2538 47.7224 38.6232 47.6172 38.0977 46.776C37.9926 46.6709 38.0977 46.4606 38.0977 46.2503C38.0977 46.1452 38.3079 46.04 38.3079 45.9349C38.413 45.5143 38.8334 45.0938 38.413 44.568C38.0977 44.1475 37.4671 43.9372 36.8365 44.2526C36.8365 44.2526 36.8365 44.2526 36.7314 44.3577Z" fill="white"/>
<path d="M21.7025 19.2286C21.4923 19.1235 21.177 19.0183 20.8617 18.808C20.6515 18.5978 20.3362 18.1772 20.4413 17.8618C20.5464 16.9155 20.4413 15.864 21.0719 15.0229C21.2821 14.7075 21.4923 14.392 21.8076 14.1818C22.7535 13.7612 23.5943 13.4458 24.6452 13.656C24.9605 13.656 25.1707 13.7612 25.1707 14.1818C25.1707 15.128 24.9605 15.9692 24.2248 16.6C23.8045 16.9155 23.5943 17.4412 23.1739 17.7566C22.9637 17.9669 22.6484 18.1772 22.3331 18.3875C22.1229 18.7029 21.9127 18.9132 21.7025 19.2286Z" fill="white"/>
<path d="M23.2788 27.009C22.9635 26.9039 22.6482 26.9039 22.438 26.6936C21.4921 26.0628 20.8616 25.2216 20.6514 23.9599C20.5463 23.3291 20.3361 22.6982 20.231 22.0674C20.231 21.7519 20.3361 21.3314 20.4412 21.0159C20.4412 20.5954 20.5463 20.4902 20.9667 20.3851C21.1769 20.3851 21.387 19.8593 21.5972 19.649C21.8074 19.7542 22.1227 19.7542 22.438 19.8593C22.5431 20.0696 22.6482 20.4902 22.8584 20.7005C23.0686 20.9108 23.3839 20.8056 23.6992 20.8056C23.5941 21.6468 23.489 21.6468 22.7533 21.7519C23.3839 23.0136 22.7533 24.2753 22.9635 25.6422C23.2788 25.8525 23.489 26.273 23.2788 27.009Z" fill="#F6E018"/>
<path d="M27.1675 24.8012C26.8522 25.2218 26.5369 25.6423 26.1165 25.9577C26.0114 26.0629 25.6961 26.168 25.591 26.168C25.3808 26.168 25.0655 26.0629 24.9604 25.8526C24.7502 25.432 24.7502 24.9063 24.6451 24.3806C24.54 24.0652 24.54 23.7498 24.4349 23.4343C24.4349 23.3292 24.3298 23.2241 24.4349 23.2241C24.7502 22.6984 24.8553 21.9623 24.8553 21.3315C24.8553 21.0161 25.2757 20.8058 25.4859 20.5955C25.6961 20.8058 26.0114 21.0161 26.0114 21.3315C26.3267 22.3829 26.5369 23.5395 27.0624 24.4857C27.1675 24.5909 27.1675 24.5909 27.1675 24.8012Z" fill="#F6E018"/>
<path d="M23.2788 11.9738C22.7533 10.1864 23.5941 8.92468 24.4349 7.76811C26.0113 5.66525 26.2215 5.5601 26.8521 5.45496C26.8521 5.5601 26.9572 5.56011 26.9572 5.66525C26.6419 5.87554 26.3266 6.08584 26.2216 6.40127C25.8012 7.13727 25.3808 7.9784 25.1706 8.81954C25.0655 9.45039 25.4859 10.0812 25.591 10.7121C25.591 10.8172 25.6961 11.0275 25.8012 11.343C25.3808 11.2378 25.0655 11.1327 24.8553 11.0275C24.6451 10.9224 24.4349 10.9224 24.3298 10.8172C24.3298 11.0275 24.4349 11.343 24.4349 11.5533C24.4349 11.6584 24.54 11.7635 24.7502 11.9738C24.1196 12.079 23.6992 11.9738 23.2788 11.9738Z" fill="#F6E018"/>
<path d="M29.7951 5.98063C29.69 6.19091 29.6901 6.4012 29.585 6.50634C28.9544 7.45263 28.2187 8.29378 27.5881 9.24007C27.3779 9.45035 27.3779 9.87092 27.1677 10.1863C27.0626 10.3966 26.8524 10.8172 26.6422 10.8172C26.3269 10.8172 26.1167 10.6069 26.1167 10.0812C26.1167 8.81951 26.6422 7.97836 27.3779 7.34751C28.0085 6.82179 28.8493 6.4012 29.585 5.98063C29.6901 5.87549 29.69 5.98063 29.7951 5.98063Z" fill="#F6E018"/>
<path d="M35.8908 42.9909C35.5755 43.5166 35.3653 44.0424 35.05 44.463C34.9449 44.5681 34.7347 44.4629 34.5245 44.3578C34.3143 44.2526 33.999 44.0424 33.7888 43.9372C33.6837 43.8321 33.5786 43.7269 33.5786 43.6218C33.6837 43.4115 33.7888 43.0961 33.8939 42.9909C34.3143 42.7806 34.8398 42.5703 35.3653 42.4652C35.4704 42.3601 35.6806 42.6755 35.8908 42.9909Z" fill="white"/>
<path d="M24.2251 18.9132C24.3302 18.1772 25.0659 18.2823 25.4863 17.7566C25.5914 18.3874 25.6965 18.9132 25.8016 19.4389C25.2761 19.3337 24.7506 19.1234 24.2251 18.9132Z" fill="white"/>
</svg>
