<svg width="144" height="128" viewBox="0 0 144 128" fill="none" xmlns="http://www.w3.org/2000/svg">
<path d="M128 0H0V128H128V110.5L130 102L128 89V0Z" fill="#9A82F9"/>
<g clip-path="url(#clip0)">
<path d="M143.93 119.382C143.896 119.365 143.843 119.33 143.774 119.295C143.652 119.226 143.617 119.052 143.669 118.93C143.634 118.878 143.617 118.826 143.582 118.791C143.408 118.722 143.129 118.6 142.99 118.565C142.468 118.409 141.928 118.322 141.406 118.218C141.023 118.148 140.64 118.061 140.257 117.974C139.49 117.922 138.707 117.888 137.941 117.853C135.434 117.731 132.926 117.662 130.419 117.592C129.932 117.575 129.462 117.749 128.974 117.731C128.26 117.714 127.546 117.627 126.623 117.54C125.544 118.166 124.116 117.835 122.723 117.835C122.689 117.749 122.636 117.679 122.601 117.592C123.298 117.106 124.012 116.637 124.708 116.133C125.283 115.716 125.927 115.333 126.38 114.795C127.111 113.909 127.72 112.918 128.347 111.963C128.434 111.824 128.399 111.615 128.469 111.476C128.782 110.729 128.922 109.791 129.479 109.304C130.402 108.488 130.628 107.428 130.698 106.42C130.837 103.762 130.837 101.068 130.733 98.3926C130.663 96.6203 130.558 94.7959 130.036 93.1279C129.148 90.2436 128.469 87.2551 126.815 84.6488C126.119 83.5368 125.596 82.3031 124.813 81.278C123.629 79.749 122.271 78.3416 121 76.8647C120.826 76.6562 120.617 76.4129 120.547 76.1523C120.286 75.1619 119.676 74.4322 118.928 73.7719C118.109 73.0595 117.308 72.3298 116.542 71.5305C115.95 70.905 115.445 70.1926 114.906 69.5323C114.436 68.9763 113.931 68.4551 113.513 67.8643C113.199 67.4126 113.077 66.8044 112.712 66.4048C110.657 64.1634 108.812 61.783 107.245 59.1767C105.939 57.0222 104.598 54.8677 103.432 52.6436C102.108 50.1068 100.802 47.5701 98.6086 45.6414C98.243 45.3287 97.8599 45.0333 97.564 44.6684C96.9546 43.9039 96.3452 43.1394 95.8228 42.3227C94.4996 40.2725 92.3406 39.2647 90.4601 37.8921C89.607 37.2665 88.5971 36.8148 87.6395 36.363C86.7689 35.946 85.8809 35.5464 84.9581 35.251C84.3661 35.0599 83.7045 35.0946 83.0951 34.9556C81.9112 34.695 80.7446 34.278 79.5432 34.139C78.1503 33.9652 76.7226 34.0348 75.2948 34C75.2252 34 75.1381 34.0869 75.0685 34.1043C74.0586 34.3649 73.0488 34.6255 72.0389 34.9035C70.7157 35.2684 69.3228 35.529 68.0865 36.0677C66.7981 36.6237 65.6664 37.5445 64.4128 38.2048C62.1667 39.4037 60.5823 41.2802 59.0675 43.2262C57.4482 45.2939 55.9508 47.4832 54.4012 49.603C53.4436 50.9061 52.4512 52.1745 51.5632 53.5298C50.5707 55.0414 49.735 56.6573 48.7251 58.1516C47.8546 59.4373 46.8447 60.6362 45.8697 61.8525C44.7553 63.2599 43.6236 64.6499 42.4919 66.0226C41.0816 67.7427 39.6364 69.4281 37.7734 70.7139C36.6242 71.4958 35.5273 72.3645 34.5523 73.3549C33.1072 74.8318 31.7491 76.3956 30.4606 78.0115C29.1896 79.61 28.0056 81.278 26.8913 82.9808C26.2819 83.9017 25.9859 85.0137 25.3939 85.9346C24.1926 87.7937 23.4439 89.7571 23.4265 91.9811C23.409 93.1627 23.3568 94.3442 23.3046 95.5257C23.2523 96.6725 23.0782 97.8366 23.1305 98.9834C23.1827 100.339 23.2349 101.729 23.5657 103.032C24.001 104.682 24.7149 106.264 25.3069 107.879C25.3765 108.071 25.4288 108.262 25.4984 108.435C25.8118 109.304 25.9859 110.277 26.5083 110.99C27.1873 111.911 28.1275 112.658 28.9981 113.44C29.5901 113.978 30.1995 114.482 30.8437 114.951C31.7491 115.611 32.6719 116.237 33.5947 116.862L33.525 117.158C33.0549 117.21 32.5674 117.314 32.0973 117.332C30.5477 117.384 28.9981 117.366 27.4485 117.453C26.4212 117.505 25.4113 117.783 24.4015 117.818C23.2697 117.87 22.1206 117.766 20.8147 117.714C20.6058 117.766 20.2228 117.922 19.8397 117.94C18.5861 118.009 17.3151 118.044 16.0615 118.096C15.5391 118.113 15.0168 118.166 14.4944 118.2C14.0766 118.218 13.6413 118.235 13.2234 118.235C12.231 118.218 11.2211 118.166 10.1938 118.131C9.91525 118.2 9.56702 118.391 9.23621 118.357C8.99245 118.339 8.74869 118.322 8.50493 118.287C8.40046 118.305 8.27858 118.322 8.17411 118.339C8.13929 118.357 8.12188 118.374 8.12188 118.357C8 118.426 8 118.426 8 118.478C8.01741 118.67 8.10447 118.843 8.17411 119.017C8.20894 119.087 8.20894 119.156 8.19152 119.208C8.53975 119.434 8.85316 119.695 9.30585 119.816C9.98489 120.007 10.7684 119.973 11.4649 119.99C12.8229 120.025 14.0591 120.181 15.3998 120.407C16.7405 120.65 18.0986 120.65 19.4393 120.737C19.7875 120.755 20.1705 120.789 20.5536 120.824C21.2326 120.772 21.9117 120.72 22.5907 120.702C23.618 120.668 24.6452 120.789 25.6725 120.789C27.4311 120.789 29.1722 120.737 30.9307 120.72C31.9928 120.702 33.0549 120.65 34.117 120.685C35.4403 120.737 36.7461 120.911 38.0694 120.928C39.5319 120.963 41.0119 120.859 42.4745 120.859C43.641 120.859 44.7902 120.98 45.9567 120.946C47.3496 120.894 48.7251 120.668 50.118 120.616C51.8069 120.529 53.5133 120.546 55.2022 120.511C55.2544 120.511 55.324 120.511 55.3763 120.511C57.5005 120.338 59.6246 120.146 61.7488 119.973C61.9578 119.955 62.1493 119.973 62.3582 119.955C63.5248 119.834 64.6739 119.643 65.8405 119.608C68.2258 119.538 70.6112 119.573 72.9965 119.573C73.6234 119.573 74.2502 119.573 74.877 119.556C76.5833 119.486 78.2722 119.347 79.9785 119.312C81.0232 119.278 82.0679 119.382 83.1125 119.399C83.5478 119.399 84.0005 119.278 84.4358 119.295C85.8984 119.365 87.3783 119.538 88.8409 119.521C90.5646 119.504 92.3057 119.26 94.0294 119.278C95.492 119.295 96.9371 119.556 98.3823 119.643C99.427 119.712 100.524 119.504 101.516 119.729C102.509 119.955 103.553 119.365 104.459 120.025C104.476 120.042 104.511 120.025 104.546 120.025C105.643 120.007 106.74 119.973 107.819 119.99C109.526 120.025 111.232 120.094 112.921 120.146C113.321 120.164 113.739 120.129 114.14 120.146C115.567 120.216 117.012 120.285 118.44 120.338C119.763 120.39 121.069 120.407 122.393 120.442C123.838 120.477 125.283 120.581 126.728 120.546C128.26 120.511 129.81 120.233 131.342 120.268C133.849 120.32 136.356 120.407 138.864 120.494C139.282 120.407 139.717 120.338 140.152 120.338C141.092 120.338 141.963 120.251 142.851 119.955C143.147 119.851 143.495 119.764 143.774 119.608C143.861 119.573 143.913 119.538 143.948 119.521C143.983 119.451 143.965 119.417 143.93 119.382ZM56.9781 63.0514C58.0576 62.6344 59.1894 62.3216 60.2689 61.8872C60.8434 61.6614 61.4006 61.3486 61.8881 60.9664C64.1342 59.1072 66.3454 57.2307 68.5392 55.3368C69.7058 54.329 70.6634 53.1823 71.3773 51.7922C71.7081 51.1494 72.3349 50.6802 72.805 50.1068C74.1631 48.4736 75.1381 46.6318 75.765 44.5989C75.8694 44.2514 76.0087 43.9039 76.1654 43.4695C77.9936 45.0854 78.8468 47.1878 79.6477 49.2728C79.8566 49.4292 80.083 49.5335 80.2397 49.7246C82.2071 52.0355 83.5478 54.8329 85.8113 56.9179C86.9779 58.0126 88.2489 58.9856 89.4851 60.0107C90.3557 60.7231 91.2088 61.5224 92.1838 62.0957C93.5768 62.895 95.0741 63.5379 96.5367 64.1982C96.9894 64.4067 97.5291 64.424 98.0166 64.5457C98.1211 64.563 98.243 64.6152 98.33 64.6847C98.7827 65.0322 98.7305 67.0651 98.2952 67.4299C98.0341 67.6384 97.7903 67.8817 97.6336 68.1597C96.9197 69.4107 96.3278 70.7312 95.5094 71.8954C94.9697 72.6425 94.0991 73.1638 93.3678 73.7893C93.2982 73.8414 93.1763 73.824 93.1415 73.8935C91.6963 75.5268 89.607 75.6311 87.7265 76.2218C86.4207 76.6214 85.08 76.8994 83.8438 77.4555C82.7295 77.9593 81.946 77.2991 81.0928 76.9863C80.1178 76.6041 79.2298 76.5693 78.3592 77.0732C77.8543 77.3686 77.419 77.4033 76.8619 77.1774C75.6605 76.7257 74.4417 76.6736 73.1707 76.9689C72.5787 77.1079 71.8822 76.8473 71.2554 76.6909C69.7058 76.3087 68.2607 75.7179 66.8155 75.0229C63.577 73.4765 60.9131 71.2177 58.371 68.7678C57.4656 67.8991 57.3786 66.7523 57.0129 65.6924C56.7866 65.0495 56.6473 64.3893 56.5602 63.7116C56.5428 63.4684 56.7866 63.1209 56.9781 63.0514ZM73.6234 89.2706C74.4417 89.4965 75.26 89.6529 76.0609 89.9135C76.2525 89.983 76.3569 90.3131 76.5136 90.5216C76.0958 90.7823 75.6953 91.1993 75.2426 91.2688C74.1457 91.4425 73.014 91.512 71.8996 91.512C70.8549 91.512 69.7929 91.4078 68.7482 91.3209C68.5915 91.3035 68.4174 91.095 68.3129 90.9213C67.4946 89.705 66.6414 88.5235 65.8927 87.2725C65.2137 86.1604 64.5869 85.0137 64.0471 83.8322C63.9252 83.5715 64.2212 82.8418 64.4302 82.7896C66.4673 82.3031 67.9473 80.8262 69.7754 79.9575C70.2456 79.7316 70.7157 79.4536 71.2032 79.2972C72.1956 78.9671 73.2055 78.5501 74.2327 78.4285C75.0163 78.3242 75.852 78.6196 76.6007 78.7238C75.6257 79.749 74.7203 80.7567 73.7801 81.695C72.5264 82.946 71.2206 84.1797 70.9942 86.0041C70.7505 87.9327 71.6733 88.732 73.6234 89.2706ZM73.2751 87.7068C71.8822 87.1856 71.5514 86.2647 72.5439 85.1527C74.1283 83.3804 75.7998 81.695 77.5757 79.8359C78.7249 81.2085 79.7696 82.4074 80.7446 83.6584C81.3888 84.4924 80.8839 86.0214 80.0307 86.6469C79.1428 87.2898 78.3766 88.1065 77.5583 88.8362C77.3494 89.0274 77.1404 89.2011 77.0882 89.2532C75.7127 88.6972 74.5113 88.176 73.2751 87.7068ZM79.0383 89.1837C79.6651 88.6451 80.4138 88.2455 80.9884 87.6547C81.354 87.2725 81.4759 86.6817 81.6848 86.1604C81.7545 86.0041 81.65 85.7782 81.737 85.6566C82.5031 84.336 81.5803 83.4325 80.9187 82.5116C80.1178 81.3649 79.2124 80.2876 78.2199 79.0018C79.4736 79.0366 80.5182 79.0018 81.5281 79.1408C82.0853 79.2277 82.5902 79.6274 83.0951 79.9054C84.7492 80.8262 86.3859 81.7471 88.0051 82.6506C87.4305 84.8573 86.5426 86.7338 85.2541 88.4018C84.5577 89.3054 83.7219 90.1046 82.921 90.9039C82.7469 91.0776 82.3987 91.1298 82.1375 91.1124C80.7446 91.0255 79.3343 90.9039 77.9414 90.7823C77.8717 90.678 77.8195 90.5738 77.7498 90.4695C78.1851 90.0351 78.5682 89.566 79.0383 89.1837ZM38.3132 116.063C36.9551 116.115 35.597 116.133 34.413 115.594C33.0897 115.003 31.9232 114.065 30.7218 113.214C30.2517 112.884 29.9557 112.345 29.5204 111.98C27.0828 109.93 26.0556 107.063 25.0979 104.196C24.889 103.57 25.0631 102.841 24.9761 102.18C24.9238 101.746 24.6801 101.329 24.6104 100.895C24.506 100.339 24.4189 99.7652 24.4363 99.2092C24.4711 97.1763 24.5756 95.1608 24.6278 93.1279C24.6452 92.763 24.5408 92.4155 24.6627 92.068C24.6975 91.7031 24.6801 91.3209 24.7845 90.9734C24.9586 90.3826 25.1328 89.7919 25.4113 89.2532C26.0904 87.9327 26.7694 86.6122 27.5529 85.3438C28.5802 83.6758 29.6597 82.0425 30.7914 80.444C31.662 79.2104 32.6371 78.0636 33.5947 76.8994C33.9603 76.4651 34.3956 76.0654 34.8135 75.6832C36.276 74.3974 37.7212 73.1116 39.2185 71.8606C39.8453 71.3394 40.5592 70.905 41.2557 70.4532C42.7182 69.5497 44.233 68.7331 45.6259 67.7253C46.2875 67.2388 47.0188 66.6654 47.8197 66.3179C48.6729 65.9357 49.5435 65.5534 50.4314 65.2407C51.9462 64.7368 53.4784 64.285 55.1325 63.7811C55.4285 64.8584 55.7071 65.8835 55.9683 66.9087C56.4035 68.681 57.692 69.8104 58.9804 70.9224C60.147 71.9128 61.3309 72.9031 62.6194 73.7198C63.9426 74.5712 65.3704 75.2662 66.7807 75.9786C67.5642 76.3782 68.3825 76.6736 69.2009 77.0037C69.7754 77.2296 70.35 77.4033 71.0465 77.6466C70.6634 77.9246 70.3674 78.22 70.0018 78.4111C68.4696 79.2104 66.9548 80.027 65.3878 80.7394C64.3605 81.2085 63.2462 81.4691 62.1841 81.8514C61.1742 82.2163 60.8783 82.4421 61.3309 83.2762C60.3385 83.6063 59.3635 84.0754 58.3536 84.2144C56.6125 84.4577 55.1325 85.3264 53.5829 86.0041C52.0159 86.6817 50.4314 87.3767 48.9863 88.2628C47.1581 89.3749 45.4518 90.678 43.6758 91.8769C42.8053 92.4677 41.8825 92.9889 41.0467 93.597C40.7159 93.8403 40.4199 94.2573 40.3503 94.6396C40.2806 94.9523 40.4722 95.4214 40.6985 95.6647C40.9771 95.9427 41.3253 96.0643 41.8128 95.6994C43.4321 94.4832 45.1384 93.3712 46.8099 92.2244C47.2278 91.929 47.6805 91.651 48.0113 91.2688C49.0734 90.0872 50.6578 90.0351 51.9462 89.3227C53.3391 88.5582 54.6798 87.7068 56.0727 86.9423C57.2219 86.3168 58.3884 85.7608 59.5724 85.2222C60.3385 84.8747 61.122 84.5619 61.9055 84.2839C62.4279 84.0928 62.8457 84.1623 63.194 84.7531C64.1342 86.3516 65.1963 87.8632 66.1539 89.4444C66.6762 90.2957 67.0941 91.1993 67.5468 92.0506C66.6936 93.3017 65.8927 94.5701 65.0047 95.7689C62.898 98.6359 60.6345 101.346 57.9183 103.675C56.8214 104.596 55.9334 105.742 54.8713 106.715C53.2173 108.227 51.6154 109.808 49.8046 111.094C48.0461 112.328 46.392 113.822 44.146 114.221C43.9544 114.256 43.7455 114.343 43.6062 114.482C42.0914 115.855 40.2632 115.976 38.3132 116.063ZM113.043 117.766C106.148 117.54 99.2354 117.279 92.3405 117.071C89.5721 116.984 86.7863 117.036 84.0179 117.054C83.13 117.054 82.242 117.14 81.3714 117.227C81.1451 117.245 80.9361 117.418 80.762 117.349C80.3267 117.297 79.9089 117.193 79.4736 117.21C79.0209 117.21 78.5856 117.349 78.1329 117.366C75.9913 117.453 73.8497 117.557 71.7081 117.575C70.2281 117.592 68.7482 117.436 67.2682 117.436C65.9972 117.436 64.7262 117.54 63.4551 117.61C63.3333 117.61 63.2288 117.644 63.1069 117.644C61.1742 117.679 59.259 117.696 57.3263 117.731C54.4012 117.766 51.4761 117.835 48.5684 117.818C47.6805 117.818 46.7751 117.54 45.8871 117.384C45.6607 117.349 45.4344 117.332 45.1906 117.314C44.146 117.279 43.0839 117.245 41.778 117.193C42.1088 116.967 42.2133 116.828 42.3178 116.81C42.8575 116.723 43.4321 116.758 43.937 116.602C44.7379 116.359 45.5389 116.046 46.2875 115.681C47.0188 115.333 47.7327 114.899 48.4291 114.447C49.8046 113.579 51.2672 112.797 52.5208 111.754C53.8267 110.677 54.8887 109.304 56.1075 108.123C57.7442 106.524 59.4505 104.995 61.0872 103.397C61.6443 102.841 62.1319 102.18 62.5149 101.503C63.0024 100.651 63.5944 99.9564 64.3431 99.2787C65.0744 98.6359 65.5097 97.6281 66.0668 96.7767C66.6936 95.8037 67.2508 94.7786 67.9298 93.8403C68.1388 93.5449 68.6263 93.3538 69.0093 93.319C69.758 93.2669 70.5241 93.3712 71.2728 93.3538C71.7778 93.3364 72.2827 93.2148 72.7876 93.18C73.397 93.1279 74.0064 93.0932 74.6158 93.0584C75.6082 92.9889 76.4788 92.6762 77.1927 91.8595C78.5159 93.1453 80.2223 92.4677 81.8067 92.624C82.329 92.6762 82.834 92.8499 83.3563 92.9542C83.5478 92.9889 83.7568 93.0063 84.0702 93.041C84.6447 93.875 85.3238 94.8828 86.0376 95.8732C86.4033 96.3945 86.8212 96.8636 87.2216 97.3501C88.6145 99.0181 89.99 100.704 91.4177 102.354C91.8356 102.841 92.4276 103.188 92.8629 103.675C93.6812 104.578 94.4125 105.534 95.2308 106.437C96.1014 107.41 96.9546 108.383 97.9122 109.27C98.7479 110.034 99.6707 110.729 100.594 111.372C101.708 112.136 102.892 112.831 104.058 113.544C104.929 114.082 105.765 114.656 106.67 115.125C107.593 115.594 108.568 115.976 109.543 116.324C110.988 116.828 112.451 117.279 114.018 117.783C113.652 117.783 113.356 117.766 113.043 117.766ZM120.878 116.393C119.816 117.227 118.51 117.366 117.204 117.071C115.828 116.758 114.505 116.185 113.112 115.976C111.302 115.716 109.804 114.847 108.22 114.082C106.148 113.075 104.407 111.633 102.735 110.104C102.404 109.791 102.056 109.461 101.638 109.304C100.489 108.852 99.7404 107.949 98.9046 107.115C98.1559 106.368 97.268 105.777 96.5367 105.03C95.6487 104.126 94.9 103.084 94.0294 102.18C91.3133 99.3309 88.5623 96.5335 85.8635 93.6839C85.3586 93.1627 85.0278 92.485 84.6447 91.9116C86.856 89.4096 87.9181 86.5079 88.7712 83.6237C90.4949 84.9616 92.0446 86.2647 93.716 87.4288C94.6911 88.1238 95.8576 88.5582 96.9023 89.149C97.2331 89.3227 97.4769 89.6876 97.8251 89.8092C99.4618 90.4174 100.715 91.7726 102.248 92.3982C104.111 93.1627 105.782 94.4658 107.854 94.7091C108.098 94.7438 108.307 95.0218 108.551 95.1261C109.195 95.4041 109.856 95.6473 110.501 95.9427C110.884 96.1165 111.214 96.3597 111.58 96.5682C111.719 96.6551 111.859 96.7941 112.015 96.8115C112.694 96.8636 113.391 96.9157 114.07 96.881C114.314 96.8636 114.662 96.7072 114.749 96.4987C114.836 96.3076 114.732 95.8732 114.575 95.7516C113.791 95.2129 112.99 94.6569 112.12 94.2747C109.961 93.3017 107.715 92.5024 105.573 91.4946C103.083 90.3305 100.646 89.0447 98.2082 87.759C96.7282 86.9771 95.2482 86.1778 93.8553 85.2569C91.5048 83.7105 89.2065 82.0773 86.8908 80.4787C86.1247 79.9401 85.3934 79.3667 84.4184 78.6543C85.0974 78.4285 85.5501 78.2547 86.0028 78.1505C87.7091 77.7335 89.4329 77.4033 91.1218 76.9342C92.6714 76.5172 93.9772 75.5963 95.2657 74.6407C97.1635 73.2506 98.6435 71.5131 99.723 69.4281C99.9493 68.9763 100.019 68.4551 100.228 68.0033C100.576 67.2909 100.942 66.5959 101.36 65.9357C101.725 65.3623 102.352 65.2233 102.892 65.5013C104.703 66.4222 106.444 67.4299 108.237 68.3682C109.055 68.8026 109.961 69.098 110.71 69.6192C111.441 70.1231 112.015 70.8355 112.66 71.461C113.391 72.156 114.105 72.851 114.836 73.5286C115.393 74.0499 116.02 74.5364 116.542 75.0924C117.395 76.0307 118.196 77.0211 119.032 77.9941C119.067 78.0462 119.102 78.0983 119.154 78.1157C120.634 78.776 121.226 80.3571 122.41 81.3301C125.109 83.5542 126.101 86.8207 127.25 89.8787C128.069 92.0159 128.312 94.3963 128.678 96.6898C128.87 97.9235 128.782 99.1919 128.835 100.46C128.87 101.364 129.078 102.302 128.957 103.188C128.765 104.526 128.417 105.847 128.034 107.132C127.773 108.018 127.25 108.835 126.972 109.721C126.641 110.781 126.188 111.737 125.352 112.484C123.89 113.804 122.427 115.16 120.878 116.393Z" fill="black"/>
<path d="M119.937 125.428C117.604 125.55 115.254 125.359 112.903 125.342C111.301 125.324 109.682 125.394 108.08 125.428C106.531 125.463 104.981 125.515 103.432 125.533C101.429 125.567 99.4269 125.689 97.4594 125.55C96.0143 125.446 94.5691 125.984 93.1414 125.446C93.0369 125.411 92.9151 125.463 92.7932 125.463C92.0619 125.55 91.348 125.741 90.6168 125.741C88.2662 125.741 85.9157 125.637 83.5652 125.62C81.4584 125.602 79.3516 125.637 77.2623 125.689C76.7225 125.706 76.2002 125.811 75.6604 125.863C74.8421 125.932 74.0063 126.037 73.188 126.037C72.3174 126.037 71.4643 125.863 70.5937 125.845C67.39 125.759 64.1689 125.706 60.9652 125.672C60.1992 125.672 59.4331 125.828 58.667 125.828C57.2392 125.811 55.7941 125.724 54.3663 125.689C49.7523 125.602 45.1209 125.533 40.5069 125.481C39.3578 125.463 38.226 125.585 37.0769 125.602C36.067 125.62 35.0398 125.567 34.0299 125.533C32.8633 125.498 31.6794 125.446 30.5128 125.411C30.4432 125.411 30.3909 125.428 30.3561 125.428C29.8164 125.498 29.2766 125.55 28.7543 125.62C28.6846 125.724 28.6672 125.828 28.7891 125.932C28.8239 125.967 28.8761 126.002 28.9458 126.019C28.998 126.037 29.0677 126.071 29.1199 126.089C29.2244 126.123 29.3463 126.176 29.4159 126.21C30.7217 126.401 32.0102 126.749 33.3334 126.818C34.0995 126.853 34.8656 126.818 35.6317 126.836C36.5023 126.871 37.3555 127.062 38.2086 127.149C39.6886 127.288 41.1686 127.166 42.6485 127.375C45.3473 127.375 48.046 127.392 50.7448 127.409C50.8667 127.409 50.9711 127.444 51.093 127.444C51.9984 127.513 52.8864 127.635 53.7918 127.67C55.1673 127.705 56.5428 127.652 57.9183 127.67C58.667 127.687 59.4156 127.757 60.1643 127.826C60.5474 127.861 60.913 127.965 61.2961 127.965C62.4278 127.948 63.5595 127.844 64.6739 127.861C66.2931 127.878 67.9124 128.052 69.5316 128.035C70.8897 128.017 72.2304 127.774 73.5885 127.687C75.0162 127.6 76.4613 127.635 77.8891 127.531C79.8391 127.392 81.7892 127.131 83.7567 126.992C84.7317 126.923 85.7416 126.94 86.7166 127.096C87.6394 127.235 88.5274 126.488 89.485 127.114C89.8333 127.34 90.4252 127.201 90.8953 127.166C91.853 127.079 92.7932 126.836 93.7508 126.818C96.6063 126.784 99.4617 126.818 102.3 126.818C102.352 126.818 102.422 126.818 102.474 126.818C104.441 126.714 106.409 126.61 108.376 126.506C109.874 126.419 111.354 126.315 112.851 126.262C114.435 126.21 116.02 126.141 117.604 126.176C118.666 126.193 119.711 126.384 120.773 126.488C121.296 126.54 121.818 126.523 122.358 126.54C121.731 125.411 120.947 125.376 119.937 125.428Z" fill="black"/>
<path d="M76.1827 43.4521C78.0109 45.068 78.8641 47.1704 79.665 49.2555C79.8739 49.4119 80.1003 49.5161 80.257 49.7072C82.2244 52.0181 83.5651 54.8155 85.8286 56.9006C86.9952 57.9952 88.2662 58.9682 89.5024 59.9934C90.373 60.7057 91.2261 61.505 92.2011 62.0784C93.5941 62.8777 95.0914 63.5205 96.554 64.1808C97.0067 64.3893 97.5464 64.4067 98.0339 64.5283C98.1384 64.5457 98.2603 64.5978 98.3474 64.6673C98.8 65.0148 98.7478 67.0477 98.3125 67.4126C98.0514 67.6211 97.8076 67.8643 97.6509 68.1423C96.937 69.3934 96.345 70.7139 95.5267 71.878C94.987 72.6252 94.1164 73.1464 93.3851 73.7719C93.3155 73.824 93.1936 73.8067 93.1588 73.8762C91.7136 75.5094 89.6243 75.6137 87.7438 76.2044C86.438 76.6041 85.0973 76.8821 83.8611 77.4381C82.7468 77.942 81.9633 77.2817 81.1101 76.969C80.1351 76.5867 79.2471 76.552 78.3765 77.0558C77.8716 77.3512 77.4363 77.386 76.8792 77.1601C75.6778 76.7083 74.459 76.6562 73.188 76.9516C72.596 77.0906 71.8995 76.83 71.2727 76.6736C69.7231 76.2913 68.278 75.7006 66.8328 75.0056C63.5943 73.4592 60.9304 71.2004 58.3883 68.7505C57.4829 67.8817 57.3959 66.735 57.0302 65.6751C56.8039 65.0322 56.6646 64.3719 56.5775 63.6943C56.5601 63.5032 56.8039 63.173 56.9954 63.0862C58.0749 62.6691 59.2067 62.3564 60.2862 61.922C60.8607 61.6961 61.4179 61.3834 61.9054 61.0011C64.1515 59.142 66.3627 57.2655 68.5565 55.3716C69.7231 54.3638 70.6807 53.217 71.3946 51.827C71.7254 51.1841 72.3522 50.715 72.8223 50.1416C74.1804 48.5083 75.1554 46.6666 75.7822 44.6337C75.8867 44.234 76.026 43.8865 76.1827 43.4521Z" fill="white"/>
<path d="M76.6008 78.7064C75.6257 79.7315 74.7204 80.7393 73.7801 81.6775C72.5265 82.9286 71.2207 84.1622 70.9943 85.9866C70.7506 87.9326 71.6734 88.7145 73.6408 89.2531C74.4592 89.479 75.2775 89.6354 76.0784 89.896C76.27 89.9655 76.3744 90.2957 76.5311 90.5042C76.1133 90.7648 75.7128 91.1818 75.2601 91.2513C74.1632 91.4251 73.0315 91.4946 71.9171 91.4946C70.8724 91.4946 69.8104 91.3903 68.7657 91.3034C68.609 91.2861 68.4349 91.0776 68.3304 90.9038C67.5121 89.6875 66.6589 88.506 65.9102 87.255C65.2312 86.143 64.6044 84.9962 64.0646 83.8147C63.9427 83.5541 64.2387 82.8243 64.4477 82.7722C66.4848 82.2857 67.9648 80.8088 69.7929 79.94C70.263 79.7141 70.7157 79.4361 71.2207 79.2797C72.2131 78.9496 73.223 78.5326 74.2502 78.411C75.0163 78.3067 75.8521 78.6021 76.6008 78.7064Z" fill="white"/>
<path d="M78.2196 78.9845C79.4732 79.0192 80.5179 78.9845 81.5278 79.1235C82.0849 79.2104 82.5899 79.61 83.0948 79.888C84.7489 80.8089 86.3855 81.7298 88.0048 82.6333C87.4302 84.84 86.5422 86.7165 85.2538 88.3845C84.5573 89.288 83.7216 90.0873 82.9207 90.8865C82.7466 91.0603 82.3983 91.1124 82.1372 91.095C80.7443 91.0082 79.3339 90.8865 77.941 90.7649C77.8714 90.6607 77.8192 90.5564 77.7495 90.4522C78.1674 90.0178 78.5678 89.5486 79.038 89.1664C79.6648 88.6278 80.4134 88.2281 80.988 87.6374C81.3537 87.2551 81.4755 86.6644 81.6845 86.1431C81.7541 85.9867 81.6497 85.7608 81.7367 85.6392C82.5028 84.3187 81.58 83.4152 80.9184 82.4943C80.1 81.3475 79.2121 80.2703 78.2196 78.9845Z" fill="white"/>
<path d="M59.4331 117.922C61.0349 117.836 60.3385 116.897 60.2689 116.254C60.2166 115.872 59.8336 115.559 59.7465 115.177C59.6943 114.969 59.938 114.499 60.0947 114.465C60.9653 114.308 61.8533 114.221 62.7413 114.169C63.3158 114.135 63.6641 114.117 63.4725 113.335C63.2114 112.328 63.0721 111.285 62.9502 110.243C62.8806 109.687 62.9502 109.096 62.9154 108.54C62.7587 105.986 62.5323 103.414 62.4104 100.86C62.3408 99.4004 62.393 97.9409 62.393 96.5161C63.2984 96.5682 64.2909 96.6377 65.2833 96.6725C65.5271 96.6899 65.7708 96.603 66.0146 96.5856C66.1365 96.5682 66.2758 96.5509 66.3628 96.603C67.2508 97.1937 68.0691 97.0721 68.8526 96.4292C69.8799 97.2806 71.0813 96.8289 72.213 96.9157C72.9791 96.9852 73.7278 97.0026 74.4939 97.02C74.7899 97.0374 75.0859 97.02 75.3819 97.02C75.5734 95.769 75.5908 95.7516 76.8619 95.769C79.3169 95.8037 81.7719 95.8037 84.2269 95.8906C85.3586 95.9427 86.4729 96.2034 87.6047 96.325C88.2837 96.3945 88.9802 96.3424 89.6592 96.4119C90.0074 96.4466 90.3557 96.6377 90.7039 96.6725C91.2088 96.7246 91.7312 96.7594 92.2535 96.7246C92.7236 96.6725 93.3678 97.3849 93.2111 97.9583C92.8629 99.3135 93.0544 100.634 93.2459 101.989C93.4375 103.275 93.5593 104.561 93.7683 105.847C93.8902 106.646 94.1339 107.41 94.2732 108.21C94.4647 109.339 94.6388 110.468 94.7955 111.58C94.9 112.31 94.9523 113.057 95.0915 113.787C95.1264 113.978 95.3701 114.239 95.5442 114.256C96.2755 114.326 97.0068 114.326 97.7381 114.326C98.0341 114.326 98.3475 114.204 98.8176 114.117C100.071 115.038 99.6533 116.915 100.454 118.235C100.158 118.6 99.8622 118.965 99.514 119.417C98.7653 118.287 97.7903 119.173 96.9197 119.156C94.3951 119.121 91.8879 119.33 89.3632 119.347C88.0748 119.365 86.7863 119.156 85.4979 119.139C84.4358 119.139 83.3911 119.365 82.329 119.347C80.1178 119.312 77.8717 119.33 75.6953 119.052C74.3546 118.878 73.1532 119.121 71.8648 119.26C69.6187 119.504 67.3204 119.573 65.0918 119.278C63.4203 119.052 61.5747 119.382 60.0425 118.322C59.9206 118.235 59.7639 118.131 59.4331 117.922ZM68.6089 105.273C68.2258 104.457 67.8776 103.779 67.599 103.084C67.1289 101.85 66.6762 100.617 66.328 99.3483C66.0494 98.3579 64.8654 97.6281 63.9252 98.0278C63.6989 98.1146 63.4725 98.4969 63.49 98.7575C63.5248 99.8695 63.6292 100.982 63.7163 102.076C63.7511 102.511 63.8556 102.945 63.8904 103.379C63.9601 104.943 63.9426 106.524 64.1168 108.088C64.1864 108.696 64.3779 109.252 64.3605 109.895C64.3431 110.66 64.5869 111.441 64.7958 112.206C64.9351 112.745 65.1266 113.301 65.4226 113.752C65.5097 113.874 66.0668 113.665 66.4151 113.631C68.3825 113.457 70.3674 113.283 72.3349 113.092C73.0662 113.023 73.7975 112.901 74.7029 112.779C75.4341 113.492 76.5136 112.97 77.6454 113.075C77.4364 112.241 77.3842 111.546 76.5136 111.233C75.5038 110.868 74.7551 110.312 74.4417 109.078C74.0412 107.497 74.1631 106.142 75.1556 104.804C74.8596 104.596 74.5287 104.422 74.285 104.161C73.2055 102.945 72.1608 101.694 71.0639 100.478C70.7679 100.148 70.2804 99.9564 70.054 99.6089C69.166 98.271 68.8004 98.0625 67.0593 98.3405C67.2682 99.2093 67.4075 100.078 67.6861 100.929C67.9647 101.816 68.3651 102.667 68.7308 103.518C68.9571 104.04 69.1835 104.509 69.9147 104.005C70.5415 103.57 71.2728 103.258 71.9519 102.893C71.7255 103.484 71.3425 103.918 71.0639 104.387C70.9246 104.613 70.8375 105.117 70.942 105.186C72.0041 105.986 72.1434 107.254 72.5787 108.349C72.8573 109.009 72.6831 109.808 72.1086 110.347C71.6385 110.781 71.3251 111.737 70.3674 111.042C70.3152 111.007 70.1933 111.059 70.1237 111.077C69.2879 111.389 68.5044 110.868 68.1214 110.434C67.5816 109.808 67.303 108.835 67.1812 107.984C66.9722 106.802 67.3727 105.742 68.6089 105.273ZM86.9779 104.179C88.2837 106.159 88.3359 106.246 88.3011 107.567C88.2837 108.453 88.0748 109.339 87.2042 109.721C86.351 110.104 85.4282 110.034 84.5751 109.53C84.3313 109.391 84.0179 109.356 83.7393 109.27C83.6349 109.652 83.4259 110.051 83.4608 110.434C83.5478 111.459 83.7568 112.484 83.9135 113.544C87.1171 113.735 90.5472 113.943 94.1687 114.152C94.012 112.692 93.9076 111.372 93.6986 110.051C93.5245 108.887 93.2285 107.723 93.0196 106.559C92.8629 105.638 92.7932 104.7 92.654 103.779C92.5321 102.98 92.3405 102.18 92.2361 101.364C92.1838 100.912 92.3405 100.391 92.1838 99.9912C91.9749 99.4699 91.6615 98.827 91.2088 98.5838C90.6342 98.2884 90.3557 98.9486 90.1119 99.4004C89.9726 99.6437 89.7637 99.8522 89.607 100.078C88.7364 101.433 87.8658 102.789 86.9779 104.179ZM75.5734 117.818C75.9391 117.818 76.2525 117.818 76.5659 117.818C79.6129 117.749 82.6598 117.662 85.7242 117.592C86.856 117.575 87.9877 117.558 89.102 117.575C90.9302 117.61 92.7584 117.697 94.604 117.714C96.0318 117.714 97.4769 117.644 98.922 117.592C98.835 117.071 98.7827 116.724 98.7305 116.376C98.2256 116.237 97.7729 116.046 97.3028 116.011C95.8228 115.889 94.4473 115.264 92.8803 115.403C91.0521 115.577 89.1891 115.299 87.3435 115.212C87.2042 115.212 87.0475 115.212 86.9082 115.177C85.4108 114.656 83.8612 114.673 82.3116 114.656C80.4486 114.638 78.603 114.499 76.74 114.395C76.6529 114.395 76.5659 114.221 76.4614 114.204C76.1828 114.117 75.8172 113.926 75.6431 114.03C75.4341 114.152 75.2774 114.552 75.2774 114.812C75.2948 115.768 75.4341 116.724 75.5734 117.818ZM61.3309 117.558C61.9577 117.558 62.4279 117.54 62.8806 117.558C64.3431 117.627 65.7882 117.749 67.2508 117.801C68.6437 117.836 70.0366 117.818 71.4295 117.801C72.3001 117.801 73.1532 117.801 74.0238 117.749C74.2153 117.731 74.5636 117.505 74.5462 117.384C74.4591 116.411 74.3024 115.455 74.1805 114.621C72.509 114.482 71.1684 115.577 69.6013 114.969C69.2357 114.83 68.7308 114.899 68.3129 115.003C67.4075 115.229 66.5369 115.803 65.5967 115.003C65.4052 114.847 64.9177 114.951 64.5869 115.021C63.5422 115.229 62.5149 115.472 61.3309 115.733C61.3309 116.202 61.3309 116.828 61.3309 117.558ZM89.1543 98.2189C88.0051 98.3926 87.0997 98.2536 86.4729 99.3309C85.8287 100.443 84.7666 101.312 83.8612 102.267C83.2692 102.893 83.6871 103.327 84.1746 103.588C84.6273 103.848 85.2193 104.491 85.7416 103.57C85.968 103.171 86.2988 102.841 86.56 102.458C87.3957 101.26 88.5971 100.234 88.719 98.6185C88.7016 98.5316 88.8757 98.4448 89.1543 98.2189ZM82.9384 113.283C82.7991 112.571 82.6947 111.858 82.538 111.163C82.4683 110.851 82.3464 110.451 82.1201 110.329C81.4585 109.965 80.7098 109.721 80.0307 109.443C79.7347 109.826 79.4387 110.329 79.0383 110.694C78.5856 111.111 78.3592 112.71 78.7771 113.127C78.8468 113.196 78.9686 113.283 79.0731 113.283C80.379 113.283 81.6848 113.283 82.9384 113.283ZM79.2472 105.76C79.5084 106.35 79.8218 106.785 79.9088 107.271C80.17 108.748 81.2321 109.374 82.6424 108.679C83.0081 108.505 83.4259 108.001 83.4259 107.654C83.4259 107.08 83.3737 106.316 82.625 106.107C81.7893 105.864 80.9187 105.69 80.0481 105.569C79.787 105.516 79.5084 105.69 79.2472 105.76ZM71.5688 107.723C71.3251 107.306 70.9594 106.628 70.5241 106.003C70.4545 105.899 69.9147 105.986 69.7406 106.142C69.2009 106.628 68.6785 107.15 68.2432 107.723C68.0343 108.001 67.895 108.453 67.9473 108.8C68.0343 109.322 69.4098 110.034 69.8799 109.93C70.942 109.687 71.5514 108.992 71.5688 107.723ZM84.0353 106.038C84.192 106.594 84.4184 106.959 84.3487 107.271C84.1224 108.314 84.7144 108.436 85.4979 108.436C85.6894 108.436 85.9506 108.401 86.0899 108.488C86.6122 108.853 87.0823 108.54 87.2042 108.192C87.4131 107.619 87.9529 106.924 87.1346 106.35C87.0475 106.281 86.943 106.194 86.856 106.194C85.968 106.125 85.0974 106.09 84.0353 106.038ZM77.123 109.548C77.0012 108.592 76.9141 107.602 76.7748 106.646C76.7052 106.177 76.0261 106.003 75.6431 106.316C74.9118 106.907 74.7899 107.845 75.4167 108.696C75.7649 109.2 75.9739 110.086 77.123 109.548ZM71.1161 98.3579C72.1782 99.4873 73.1184 100.512 74.076 101.52C74.2153 101.26 74.372 100.964 74.5462 100.651C74.6506 100.773 74.7551 100.895 74.877 101.034C75.1033 100.825 75.2948 100.651 75.4167 100.53C74.6854 99.9217 73.9368 99.4178 73.3448 98.7749C72.7354 98.1494 72.0912 98.1668 71.1161 98.3579ZM78.2722 109.53C79.1602 108.957 79.4213 108.54 78.7597 107.862C78.5159 107.619 78.4985 107.132 78.3592 106.767C78.2722 106.559 78.1677 106.368 78.0807 106.159C77.9936 106.194 77.8891 106.211 77.8021 106.246C77.9414 107.271 78.0981 108.331 78.2722 109.53ZM81.4585 102.893C80.9361 102.493 80.5705 102.128 80.1352 101.955C80.0133 101.902 79.4213 102.58 79.4562 102.632C79.7347 103.032 80.0655 103.414 80.4834 103.675C80.5879 103.727 81.0232 103.258 81.4585 102.893ZM85.0278 98.3579C84.3487 98.1841 83.896 98.0799 83.4433 97.9583C83.4433 98.6533 83.4433 99.2093 83.4433 99.7827C83.513 99.8174 83.5826 99.8522 83.6697 99.8869C84.0702 99.4178 84.488 98.9486 85.0278 98.3579ZM75.9042 101.711C75.5038 101.92 75.1556 102.094 74.877 102.215C75.4167 102.789 75.9042 103.31 76.3918 103.831C76.444 103.814 76.4962 103.796 76.5485 103.779C76.3395 103.119 76.148 102.458 75.9042 101.711ZM78.5682 105.204C79.0035 104.769 79.195 104.3 78.7423 103.814C78.6726 103.727 78.2025 103.814 78.1677 103.901C78.0284 104.352 77.715 104.908 78.5682 105.204ZM78.1155 101.642C78.2896 101.642 78.4637 101.624 78.6378 101.624C78.6552 101.173 78.6726 100.738 78.6901 100.287C78.4463 100.321 78.011 100.356 78.011 100.373C78.011 100.808 78.0632 101.225 78.1155 101.642ZM74.5984 98.271C74.5636 98.3405 74.5287 98.3926 74.4765 98.4621C74.8247 98.7575 75.173 99.0529 75.6257 99.4351C75.9565 98.132 75.0337 98.4795 74.5984 98.271ZM82.1897 100.182C82.1201 100.113 82.0504 100.061 81.9634 99.9912C81.737 100.217 81.4585 100.426 81.3192 100.704C81.2495 100.825 81.441 101.068 81.5803 101.416C81.8589 100.877 82.0156 100.53 82.1897 100.182Z" fill="black"/>
<path d="M75.5737 117.818C75.4518 116.723 75.3125 115.768 75.2429 114.812C75.2255 114.552 75.3996 114.152 75.6085 114.03C75.8001 113.926 76.1483 114.117 76.4269 114.204C76.5313 114.239 76.601 114.395 76.7055 114.395C78.5685 114.499 80.4141 114.621 82.2771 114.656C83.8267 114.673 85.3763 114.656 86.8737 115.177C87.013 115.229 87.1523 115.212 87.309 115.212C89.1546 115.299 91.035 115.594 92.8458 115.403C94.4302 115.247 95.7883 115.889 97.2683 116.011C97.7384 116.046 98.1911 116.237 98.696 116.376C98.7482 116.723 98.8179 117.071 98.8875 117.592C97.4424 117.627 95.9972 117.714 94.5695 117.714C92.7413 117.696 90.9131 117.61 89.0675 117.575C87.9358 117.557 86.804 117.575 85.6897 117.592C82.6427 117.662 79.5957 117.749 76.5313 117.818C76.2353 117.818 75.9219 117.818 75.5737 117.818Z" fill="white"/>
<path d="M61.3311 117.558C61.3311 116.828 61.3311 116.202 61.3311 115.733C62.515 115.472 63.5423 115.229 64.587 115.021C64.9178 114.951 65.4053 114.83 65.5968 115.003C66.537 115.803 67.4076 115.229 68.313 115.003C68.7309 114.899 69.2184 114.83 69.6014 114.969C71.1684 115.577 72.5265 114.482 74.1806 114.621C74.3025 115.455 74.4592 116.411 74.5462 117.384C74.5637 117.488 74.2154 117.731 74.0239 117.749C73.1708 117.801 72.3002 117.801 71.4296 117.801C70.0367 117.801 68.6438 117.836 67.2509 117.801C65.7884 117.749 64.3432 117.627 62.8807 117.558C62.428 117.54 61.9579 117.558 61.3311 117.558Z" fill="white"/>
<path d="M79.2476 105.76C79.5087 105.69 79.8047 105.516 80.0659 105.569C80.9365 105.708 81.7896 105.864 82.6428 106.107C83.3915 106.316 83.4437 107.08 83.4437 107.654C83.4437 108.001 83.0258 108.505 82.6602 108.679C81.2499 109.356 80.1878 108.748 79.9266 107.271C79.8221 106.785 79.5087 106.35 79.2476 105.76Z" fill="white"/>
<path d="M71.5688 107.723C71.5514 108.992 70.942 109.687 69.8973 109.93C69.4272 110.034 68.0517 109.304 67.9646 108.8C67.9124 108.47 68.0517 108.001 68.2606 107.723C68.6959 107.15 69.2182 106.611 69.758 106.142C69.9321 105.986 70.4719 105.916 70.5415 106.003C70.9594 106.611 71.325 107.306 71.5688 107.723Z" fill="white"/>
<path d="M84.0356 106.038C85.0977 106.09 85.9683 106.125 86.8389 106.177C86.9434 106.177 87.0304 106.264 87.1175 106.333C87.9358 106.906 87.3961 107.601 87.1871 108.175C87.0652 108.522 86.5951 108.853 86.0728 108.47C85.9335 108.366 85.6897 108.418 85.4808 108.418C84.6973 108.418 84.1053 108.314 84.3316 107.254C84.4187 106.959 84.1749 106.576 84.0356 106.038Z" fill="white"/>
<path d="M77.1229 109.547C75.9738 110.104 75.7823 109.2 75.4166 108.713C74.7898 107.862 74.9117 106.924 75.643 106.333C76.026 106.02 76.7051 106.177 76.7747 106.663C76.914 107.601 77.0011 108.574 77.1229 109.547Z" fill="white"/>
<path d="M78.2722 109.53C78.0981 108.331 77.9414 107.289 77.7847 106.246C77.8717 106.212 77.9762 106.194 78.0632 106.159C78.1503 106.368 78.2722 106.559 78.3418 106.768C78.4811 107.132 78.4985 107.602 78.7423 107.862C79.4213 108.522 79.1601 108.939 78.2722 109.53Z" fill="white"/>
</g>
<defs>
<clipPath id="clip0">
<rect width="136" height="94" fill="white" transform="translate(8 34)"/>
</clipPath>
</defs>
</svg>
