<svg width="72" height="72" viewBox="0 0 72 72" fill="none" xmlns="http://www.w3.org/2000/svg">
<path d="M42.0708 17.8157L44.796 24.2908L44.285 26.5911C44.285 26.5911 41.9005 32.4697 34.1507 32.2142C26.3158 31.9586 24.4422 26.9319 23.5054 22.9276C22.3983 18.4121 36.0243 15.4302 36.0243 15.4302L42.0708 17.8157Z" fill="white"/>
<path d="M0.000976562 48.913C0.171301 49.1686 0.341636 49.5094 0.597123 49.6798C0.682286 49.765 0.852605 49.765 0.937767 49.765C1.78939 49.2538 2.64101 49.5946 3.49264 49.5946C3.5778 49.5946 3.66298 49.765 3.74814 49.8502C3.8333 50.617 4.00362 51.3838 4.08878 52.2358C4.17395 53.5989 4.25909 55.0473 4.25909 56.4104C4.25909 57.1772 4.08878 57.944 4.08878 58.796C4.17395 60.4147 4.2591 62.1187 4.42943 63.7375C4.42943 63.9931 4.59974 64.3338 4.68491 64.5894C4.77007 62.6299 4.77007 60.7555 4.77007 58.796C4.77007 56.0697 4.77007 53.2581 4.77007 50.5318C4.77007 49.9354 5.11073 49.5946 5.79203 49.6798C6.55849 49.6798 7.2398 49.6798 8.00626 49.6798C9.53918 49.5946 10.9869 49.5094 12.5199 49.4242C13.7973 49.4242 15.1599 49.5094 16.4373 49.5094C18.2257 49.5094 19.929 49.5094 21.7174 49.5094C21.8877 49.5094 22.058 49.4242 22.2284 49.4242C22.7393 49.339 23.2503 49.0834 23.7613 49.0834C24.9536 48.9982 26.1458 49.0834 27.2529 49.0834C28.2749 49.0834 29.2968 49.0834 30.3188 49.0834C31.1704 49.0834 31.9369 49.1686 32.7885 49.1686C33.3846 49.1686 33.9808 49.0834 34.5769 49.0834C35.3434 49.0834 36.1098 49.1686 36.8763 49.1686C38.835 49.2538 40.7086 49.2538 42.6673 49.339C44.0299 49.4242 45.4777 49.4242 46.8403 49.5094C48.6287 49.5946 50.5023 49.8502 52.2907 49.9354C53.6533 50.0206 55.0159 49.9354 56.3785 49.9354C57.2301 49.9354 58.0817 50.0206 58.8482 50.1058C60.2108 50.191 61.6585 50.191 63.0211 50.2762C64.0431 50.3614 65.065 50.3614 66.0018 50.4466C66.4276 50.4466 66.7683 50.8726 66.7683 51.2134C66.7683 52.4062 66.6831 53.6841 66.6831 54.8769C66.6831 55.5585 66.5128 56.2401 66.5128 56.9216C66.4276 58.1996 66.3425 59.3924 66.2573 60.6703C66.2573 61.0963 66.1721 61.5223 66.1721 61.9483C66.2573 61.9483 66.3425 61.9483 66.3425 61.9483C66.4276 61.5223 66.5128 61.0963 66.5979 60.5851C66.6831 59.8184 66.7682 58.9664 66.8534 58.1996C66.9386 57.3476 67.0238 56.4956 67.1089 55.6437C67.1941 54.7917 67.2792 54.0249 67.3644 53.1729C67.4496 52.6617 67.5347 52.1506 67.5347 51.5542C67.5347 50.7022 68.1309 50.1058 68.8973 50.191C69.4935 50.2762 70.1747 50.2762 70.7709 50.3614C71.7928 50.3614 71.7928 50.3614 71.7928 49.339C71.7928 48.9982 71.7928 48.7426 71.7928 48.4019C71.7077 47.8907 71.6225 47.2943 71.4522 46.7831C71.367 46.5275 71.1115 46.3571 70.8561 46.2719C70.5154 46.1867 70.1747 46.2719 69.9193 46.2719C68.727 46.2719 67.5347 46.1867 66.2573 46.1867C65.6612 46.1867 65.065 46.1867 64.4689 46.1867C63.1914 46.1015 61.914 45.9311 60.6366 45.9311C58.9333 45.8459 57.1449 45.8459 55.4417 45.7607C53.9939 45.6755 52.6313 45.6755 51.1835 45.5903C51.0984 45.5903 51.0132 45.5903 50.8429 45.5903C50.0764 45.5051 49.3951 45.3347 48.6287 45.3347C47.9474 45.2495 47.3513 45.3347 46.67 45.3347C45.4777 45.3347 44.2854 45.2495 43.008 45.2495C42.1563 45.2495 41.3899 45.3347 40.5383 45.3347C38.324 45.3347 36.195 45.2495 33.9808 45.1643C33.8956 45.1643 33.8956 45.1643 33.8104 45.0791C34.0659 44.8235 34.3214 44.5679 34.5769 44.2271C35.0027 43.716 35.4285 43.2048 35.8543 42.6936C35.9395 42.6084 36.1098 42.5232 36.2801 42.5232C36.6208 42.5232 37.0466 42.6084 37.3873 42.6936C38.0686 42.6936 38.7499 42.7788 39.4312 42.7788C40.3679 42.7788 41.3047 42.7788 42.2415 42.7788C42.3267 42.7788 42.4118 42.7788 42.497 42.7788C43.008 43.1196 43.6041 43.0344 44.1151 43.0344C44.2854 43.0344 44.4557 43.0344 44.6261 43.1196C45.2222 43.5456 45.9035 43.716 46.67 43.6308C46.9254 43.6308 47.0958 43.4604 47.3512 43.3752C47.1809 43.1196 47.0106 42.9492 46.7551 42.7788C46.67 42.6936 46.4996 42.6936 46.3293 42.6936C45.8183 42.6084 45.3073 42.6084 44.7964 42.438C43.8596 42.2676 42.8376 42.012 41.9009 41.8416C41.1344 41.7564 40.3679 41.7564 39.5163 41.6712C39.6015 41.4156 39.6866 41.16 39.6866 40.9044C39.7718 40.6488 39.857 40.4784 39.857 40.2229C39.6866 39.3709 39.6015 38.4337 38.5795 37.9225C39.5163 37.6669 40.4531 37.4113 41.3899 37.3261C42.4118 37.2409 43.3486 36.9001 44.2002 36.4742C44.1151 36.3038 44.0299 36.2186 43.9447 36.0482C42.497 36.9001 40.9641 36.3889 39.346 36.5593C39.7718 35.537 40.1976 34.685 40.6234 33.833C40.8789 33.2366 41.1344 32.6402 40.5383 32.1291C40.4531 32.0439 40.5383 31.7883 40.6234 31.7031C41.475 30.8511 42.497 30.1695 43.0931 29.0619C43.3486 28.6359 43.7744 28.21 44.0299 27.784C44.3706 27.0172 44.6261 26.08 44.9667 25.1428C46.67 25.8244 48.4584 26.506 49.9913 27.5284C51.6094 28.5508 52.8868 29.8287 54.0791 31.4475C53.8236 31.4475 53.7384 31.5327 53.6532 31.4475C52.2907 31.3623 50.8429 31.3623 49.4803 31.2771C48.9693 31.2771 48.4584 31.1919 47.9474 31.1067C47.4364 30.9363 47.4364 31.4475 47.0958 31.6179C47.0106 31.6179 47.0106 31.9587 47.0106 31.9587C47.1809 32.1291 47.4364 32.2143 47.6919 32.2995C47.9474 32.3847 48.2029 32.2143 48.4584 32.2995C48.9693 32.3847 49.4803 32.4699 49.9061 32.4699C50.1616 32.4699 50.4171 32.5551 50.5874 32.4699C51.0984 32.0439 51.6945 32.2143 52.2055 32.2143C53.0571 32.2143 53.9087 32.3847 54.6752 32.2995C55.4417 32.2143 56.123 32.3847 56.8043 32.3847C57.8262 32.3847 58.9333 32.4699 59.9553 32.555C60.8069 32.6402 61.6585 32.7254 62.5953 32.8106C62.8508 32.8106 63.1063 32.8106 63.3618 32.8106C63.7024 32.8106 63.9579 32.7254 64.2985 32.7254C65.4057 32.7254 66.5979 32.8958 67.705 32.7254C68.1308 32.6402 68.5567 32.8958 68.8973 32.8106C69.1528 32.8106 69.4935 32.6402 69.5786 32.3847C69.7489 32.0439 69.4083 31.8735 69.1528 31.7883C68.216 31.2771 67.1089 31.2771 66.087 31.2771C64.8095 31.2771 63.5321 31.3623 62.2546 31.4475C61.1475 31.4475 59.9553 31.4475 58.8482 31.4475C58.6778 31.4475 58.4224 31.4475 58.252 31.5327C57.2301 31.7031 56.2081 31.7031 55.3565 31.5327C55.1862 31.1919 55.101 30.9363 54.9307 30.7659C54.4197 30.3399 53.9088 29.9991 53.4829 29.4879C52.461 28.21 51.1835 27.1876 49.8209 26.3356C48.9693 25.8244 48.1177 25.3984 47.2661 24.8872C46.7551 24.6316 46.2441 24.3761 45.7332 24.2057C45.3073 24.1205 45.137 23.9501 45.2222 23.6093C45.3073 22.8425 45.3925 22.1609 45.4777 21.3941C45.4777 21.2237 45.5628 21.1385 45.4777 20.9681C45.3925 20.6274 45.3925 20.2014 45.3073 19.8606C45.137 19.0938 45.0519 18.327 44.7964 17.5602C44.626 17.049 44.2854 16.6231 44.0299 16.1119C43.3486 14.6635 42.0712 13.8115 40.7086 13.0447C40.0273 12.6188 39.2608 12.3632 38.4944 12.1928C37.5576 11.9372 36.5356 11.7668 35.5137 11.5112C35.0879 11.3408 34.4066 11.5964 34.1511 11C34.1511 11 33.8956 11 33.8104 11.0852C33.6401 11.1704 33.3846 11.426 33.3846 11.3408C32.9588 11.0852 32.6182 11.3408 32.2775 11.426C31.8517 11.5112 31.3407 11.5112 30.9149 11.6816C30.2336 11.9372 29.6375 12.3632 29.0413 12.704C27.5936 13.3855 26.4013 14.3227 25.2942 15.3451C24.8684 15.7711 24.5278 16.3675 24.1871 16.8787C23.6761 17.475 23.1651 18.1566 22.7393 18.753C21.8877 19.9458 21.7174 21.3089 21.7174 22.6721C21.7174 23.7797 21.8877 24.9724 22.569 25.9096C22.2283 25.9948 21.8877 26.08 21.5471 26.08C19.5883 26.08 17.7147 26.08 15.756 26.08C15.4154 26.08 15.0747 26.1652 14.7341 26.1652C13.5418 26.08 12.3495 25.9948 11.1572 25.9096C10.5611 25.8244 9.87981 25.654 9.36883 25.3984C8.85786 25.0576 8.68755 25.0576 8.26173 25.5688C8.68755 25.7392 9.02819 25.9096 9.454 25.9948C10.4759 26.3356 11.4979 26.6764 12.5199 26.8468C13.7973 27.1024 15.1599 27.1024 16.5225 27.2728C17.1186 27.358 17.7147 27.5284 18.3109 27.5284C19.3328 27.5284 20.4399 27.4432 21.4619 27.4432C21.8877 27.4432 22.3987 27.4432 22.8245 27.2728C23.591 27.0172 24.3574 26.8468 25.209 26.932C25.9755 27.0172 26.6568 27.0172 27.3381 26.506C27.9342 26.08 28.7007 25.8244 29.4671 25.4836C29.5523 25.3984 29.7227 25.3132 29.7227 25.228C29.6375 25.0576 29.5523 24.8872 29.4671 24.8872C29.2968 24.802 29.1265 24.8872 28.9562 24.8872C27.9342 25.228 26.9974 25.654 25.9755 25.8244C25.1239 25.9948 24.1871 25.8244 23.3355 25.8244V25.7392C23.5058 25.654 23.7613 25.5688 23.8464 25.654C24.5277 26.08 25.209 25.5688 25.8052 25.5688C25.9755 25.5688 26.231 25.654 26.4013 25.5688C27.0826 25.3132 27.7639 25.1428 28.36 24.802C29.893 23.8649 31.5962 23.0981 32.7033 21.5645C33.1291 21.0533 33.4698 20.457 33.8104 19.8606C34.2362 19.0938 34.6621 18.327 35.173 17.5602C35.2582 17.7306 35.4285 17.901 35.4285 17.9862C35.5988 18.327 35.7692 18.753 36.0247 19.0938C36.7911 20.031 37.5576 21.0533 38.324 21.9905C38.5795 22.2461 38.835 22.5017 39.1757 22.5869C39.9421 22.7573 40.7086 23.0981 41.3047 23.6093C41.986 24.2057 42.8376 24.2057 43.4338 24.6317C43.8596 24.8872 44.0299 25.0576 43.8596 25.5688C43.6041 26.1652 43.3486 26.7616 43.008 27.2728C42.2415 28.2952 41.5602 29.4879 40.6234 30.3399C39.1757 31.6179 37.3873 32.0439 35.5137 32.0439C35.3434 32.0439 35.173 32.0439 35.0027 32.0439C33.7253 32.3847 32.533 31.8735 31.3407 31.5327C30.9149 31.4475 30.6594 31.3623 30.3188 31.6179C30.1484 31.7031 29.893 31.7883 29.6375 31.7883C29.382 31.7883 29.0413 31.6179 28.7859 31.7031C27.9342 31.8735 27.0826 31.7883 26.1458 31.7031C24.9536 31.6179 23.7613 31.5327 22.6542 31.5327C22.1432 31.5327 21.7174 31.6179 21.2064 31.6179C20.6954 31.6179 20.1845 31.4475 19.5883 31.5327C17.7999 31.6179 15.9263 31.6179 14.1379 31.7031C13.2011 31.7883 12.2644 31.8735 11.3276 31.9587C10.3908 32.0439 9.454 32.0439 8.60238 32.1291C8.43205 32.1291 8.26174 32.1291 7.92109 32.2143C8.26174 32.7254 8.51723 33.2366 8.85788 33.7478C9.19853 33.0662 9.7095 33.2366 10.1353 33.2366C10.8166 33.2366 11.4979 33.2366 12.094 33.1514C13.0308 33.0662 13.9676 32.981 14.9896 32.8958C15.5857 32.8958 16.267 32.8958 16.9483 32.8958C17.9703 32.8958 18.907 33.0662 19.929 33.0662C21.2916 33.0662 22.569 32.981 23.9316 32.8958C24.8684 32.8958 25.8052 32.8958 26.742 32.8958C27.5936 32.8958 28.5304 32.8958 29.382 32.8958C29.5523 32.8958 29.6375 32.8106 29.8078 32.8106C30.1484 32.8106 30.4891 32.7254 30.9149 32.8106C31.5111 32.8958 32.1072 33.1514 32.7033 33.2366C33.044 33.3218 33.4698 33.3218 33.8104 33.3218C34.0659 33.3218 34.3214 33.407 34.5769 33.407C34.8324 33.407 35.0879 33.407 35.3433 33.407C35.8543 33.407 36.3653 33.4922 37.0466 33.5774C36.7911 34.1738 36.4505 34.8554 36.0247 35.4518C35.8543 35.7074 35.8543 35.8778 35.7692 36.1334C35.5988 36.5593 35.4285 36.9853 35.173 37.3261C34.8324 37.6669 34.2363 37.9225 33.8956 38.2633C33.1291 38.9449 32.9588 40.1377 33.3846 41.0748C33.6401 41.586 33.5549 42.012 33.3846 42.5232C33.1291 43.1196 33.1291 43.8012 32.9588 44.4827C32.9588 44.5679 33.044 44.6531 33.044 44.7383C33.044 44.8235 33.044 44.9939 33.1291 45.1643C32.3627 45.1643 31.6814 45.1643 31.0001 45.1643C30.8298 44.0568 29.893 44.3976 29.2117 44.142C29.4672 43.8012 29.2968 43.4604 28.9562 43.3752C28.4452 43.2048 28.0194 43.2048 27.5084 43.2048C27.1678 43.2048 26.7419 43.29 26.4013 43.29C24.2722 43.3752 22.1432 43.3752 20.0141 43.4604C18.2257 43.4604 16.3522 43.5456 14.5637 43.5456C12.3495 43.5456 10.1353 43.5456 7.92109 43.4604C7.83593 43.4604 7.75075 43.4604 7.66559 43.4604C7.92107 43.9716 8.43207 44.2272 8.85788 44.142C9.45402 44.0568 10.0501 43.9716 10.6463 43.9716C11.4127 43.9716 12.1792 43.8864 13.0308 43.8864C15.0747 43.8864 17.0335 43.8864 19.0774 43.8864C19.2477 43.8864 19.418 43.8864 19.5883 43.8864C19.5883 43.9716 19.5883 43.9716 19.5883 44.0568C15.756 44.3124 12.0089 44.3124 8.0914 44.3124C8.17656 44.4827 8.17657 44.7383 8.26173 44.7383C8.51722 44.8235 8.85787 44.9087 9.11336 44.9087C10.3908 44.9087 11.6682 44.8235 12.9457 44.7383C13.627 44.7383 14.3083 44.7383 14.9896 44.7383C16.8631 44.7383 18.8219 44.6531 20.6954 44.6531C21.7174 44.6531 22.6542 44.8235 23.6761 44.9087C23.9316 44.9087 24.1019 44.9087 24.3574 44.9087C25.4645 44.5679 26.4865 44.9939 27.5936 45.0791C27.3381 45.1643 27.1678 45.2495 26.9123 45.2495C23.5058 45.2495 20.0993 45.2495 16.6928 45.2495C16.0967 45.2495 15.5005 45.3347 14.9896 45.3347C14.6489 45.3347 14.2231 45.2495 13.8825 45.2495C12.2644 45.2495 10.5611 45.3347 8.94302 45.4199C8.7727 45.4199 8.51723 45.4199 8.3469 45.4199C7.06947 45.4199 5.8772 45.5051 4.59976 45.5051C4.08879 45.5051 3.5778 45.5051 3.06683 45.5051C2.38553 45.5051 1.70423 45.7607 1.02293 45.4199C1.02293 45.4199 0.937762 45.4199 0.8526 45.4199C0.597113 45.5903 0.256464 45.8459 0.000976562 46.0163C0.597113 46.6979 0.511951 48.6574 0.000976562 48.913ZM6.72882 39.4561C6.72882 39.5413 6.72882 39.6265 6.72882 39.7117C6.89915 39.7969 7.06945 39.8821 7.23978 39.8821C7.75075 39.8821 8.34691 39.7969 8.85788 39.7117C9.62434 39.6265 10.476 39.6265 11.2424 39.5413C13.2011 39.3709 15.0747 39.2005 17.0334 39.1153C19.2477 39.0301 21.4619 38.9449 23.6761 38.9449C24.0168 38.9449 24.3574 39.0301 24.6129 39.1153C23.5058 39.2857 22.3987 39.4561 21.2916 39.5413C19.5883 39.6265 17.8851 39.6265 16.1818 39.7117C14.2231 39.7969 12.2644 39.7969 10.3908 39.8821C10.2205 39.8821 10.0501 39.9673 9.87981 40.0525C9.87981 40.1377 9.87981 40.1377 9.87981 40.2229C10.1353 40.3081 10.3908 40.4785 10.6463 40.4785C11.7534 40.3933 12.8605 40.3081 14.0528 40.2229C14.8192 40.1377 15.5857 40.0525 16.3522 39.9673C17.2038 39.9673 18.1406 39.9673 18.9922 39.9673C19.2477 39.9673 19.418 39.8821 19.6735 39.8821C20.3548 39.8821 20.9509 39.8821 21.6322 39.8821C22.058 39.8821 22.569 39.8821 22.9948 39.8821C23.3355 39.8821 23.7613 39.7117 24.1019 39.7969C24.6129 39.9673 25.0387 39.7969 25.4645 39.7117C25.8052 39.6265 26.1458 39.6265 26.4865 39.5413C27.5084 39.5413 28.5304 39.5413 29.4671 39.5413C29.893 39.5413 30.4039 39.5413 30.8298 39.5413C31.0852 39.5413 31.2556 39.4561 31.0852 39.2005C30.8297 38.8597 30.4891 38.6893 30.0633 38.6893C29.382 38.7745 28.7007 38.8597 27.8491 38.9449C28.0194 38.6893 28.1046 38.6041 28.1897 38.5189C27.9342 38.4337 27.7639 38.2633 27.5936 38.1781C27.5936 38.0929 27.5936 38.0929 27.6787 38.0077C28.7007 38.0077 29.7226 38.0077 30.6594 38.0077C30.7446 37.4965 30.2336 36.9853 29.7227 36.9001C29.1265 36.8149 28.6155 36.7298 28.1045 36.7298C26.9974 36.7298 25.8903 36.7298 24.6981 36.7298C24.4426 36.7298 24.1019 36.7298 23.8464 36.7298C23.4206 36.7298 22.9948 36.8149 22.4839 36.8149C21.5471 36.7297 20.6954 36.6445 19.7586 36.5593C18.5664 36.5593 17.3741 36.6445 16.1818 36.6445C15.5857 36.6445 14.9896 36.6445 14.3934 36.6445C13.4566 36.7297 12.605 36.8149 11.6682 36.9001C11.4127 36.9001 11.0721 36.9853 10.8166 36.9853C10.1353 36.9853 9.53918 37.0705 8.85788 37.0705C8.34691 37.0705 7.92109 37.1557 7.49528 37.4965C7.83593 37.6669 8.17657 37.8373 8.60238 38.0929C7.92108 38.8597 7.32496 39.2005 6.72882 39.4561ZM47.2661 42.7788C47.9474 42.9492 48.3732 43.4604 49.2248 43.3752C50.3319 43.2048 51.439 43.4604 52.5461 43.4604C54.4197 43.5456 56.2081 43.6308 58.0817 43.8012C59.9553 43.8864 61.7437 43.9716 63.6173 44.142C64.2134 44.142 64.8095 44.2272 65.4057 44.3124C65.8315 44.3124 66.1721 44.3124 66.5979 44.3976C67.1089 44.3976 67.6199 44.3976 68.216 44.3976C68.9825 44.3976 69.749 44.4827 70.6006 44.4827C70.7709 44.4827 70.9412 44.3975 71.0264 44.2271C71.1115 44.142 71.0264 43.8864 70.9412 43.8012C70.5154 43.29 69.9193 43.2048 69.3231 43.2048C68.3864 43.2048 67.5347 43.2048 66.5979 43.2048C66.4276 43.2048 66.1721 43.1196 66.0018 43.1196C66.0018 43.0344 66.0018 43.0344 66.0018 42.9492C66.1721 42.9492 66.3424 42.9492 66.5128 42.9492C67.4496 42.9492 68.3864 42.9492 69.3231 42.9492C69.4935 42.9492 69.6638 42.7788 69.8341 42.6936C69.7489 42.5232 69.5786 42.2676 69.4934 42.2676C69.1528 42.0972 68.8122 42.012 68.4715 42.012C67.0238 41.9268 65.6612 41.9268 64.2134 41.8416C62.2547 41.7564 60.2108 41.7564 58.252 41.6712C57.7411 41.6712 57.2301 41.586 56.7191 41.5008C56.4636 41.5008 56.123 41.5008 55.8675 41.4156C55.4417 41.3304 54.9307 41.2452 54.5049 41.2452C52.3758 41.16 50.2468 41.0748 48.0326 40.9896C47.9474 40.9896 47.8622 40.9896 47.6919 40.9896C47.5216 40.9896 47.3513 40.9896 47.1809 40.9896C47.2661 41.16 47.2661 41.4156 47.3512 41.5008C47.5216 41.6712 47.6919 41.7564 47.9474 41.7564C49.1397 41.7564 50.4171 41.7564 51.6094 41.7564C53.2274 41.8416 54.9307 41.9268 56.5488 42.0972C57.1449 42.0972 57.6559 42.1824 58.252 42.2676C59.4443 42.3528 60.6366 42.438 61.8288 42.5232C62.9359 42.6084 63.9579 42.6084 65.065 42.6936C65.2353 42.6936 65.4908 42.864 65.6611 42.864C65.6611 42.9492 65.6611 42.9492 65.6611 43.0344C65.1502 43.0344 64.6392 43.1196 64.1282 43.1196C62.7656 43.0344 61.3179 42.864 59.9553 42.864C57.7411 42.7788 55.612 42.7788 53.3978 42.6936C52.7165 42.6936 51.95 42.6084 51.2687 42.6084C49.821 42.5232 48.5435 42.3528 47.2661 42.7788ZM8.26173 29.1471C8.43206 29.2323 8.60239 29.3175 8.77271 29.3175C10.3908 29.4027 12.0089 29.5731 13.627 29.6583C14.0528 29.6583 14.3934 29.7435 14.8192 29.8287C15.756 29.9139 16.6076 29.4879 17.5444 29.6583C18.2257 29.8287 18.9922 29.8287 19.7586 29.8287C21.1212 29.9139 22.569 29.9991 23.9316 29.9991C25.3794 29.9991 26.9123 29.9991 28.36 30.2547C28.6155 30.3399 28.871 30.3399 29.1265 30.2547C29.2968 30.2547 29.5523 30.0843 29.5523 29.9139C29.5523 29.6583 29.5523 29.3175 29.382 29.2323C29.0413 29.0619 28.6155 28.8915 28.1897 28.8915C27.2529 28.8063 26.3162 28.8063 25.3794 28.7211C25.3794 28.6359 25.3794 28.636 25.3794 28.5508C25.5497 28.4656 25.72 28.4656 25.8903 28.3804C26.742 28.21 27.6787 28.2952 28.5304 27.8692C29.382 27.4432 29.5523 27.358 28.7859 26.6764C28.7859 26.6764 28.7007 26.6764 28.7859 26.6764C28.36 26.8468 28.0194 27.0172 27.6787 27.0172C26.8271 27.1876 25.9755 27.2728 25.209 27.358C23.9316 27.5284 22.569 27.6988 21.2916 27.784C20.0993 27.8692 18.9922 27.784 17.7999 27.784C17.2038 27.784 16.6928 27.784 16.0967 27.784C14.5638 27.6988 13.116 27.6136 11.5831 27.4432C10.8166 27.358 10.0502 27.0172 9.28369 26.932C8.68756 26.8468 8.09141 26.506 7.41011 26.8468C7.32495 26.932 7.15463 27.0172 7.15463 27.1024C7.15463 27.1876 7.23978 27.358 7.32494 27.358C7.92108 27.5284 8.43205 27.6988 9.02819 27.784C9.62433 27.8692 10.2205 27.8692 10.8166 27.9544C12.094 28.0396 13.4566 28.21 14.7341 28.2952C15.8412 28.2952 16.9483 28.2952 18.0554 28.4656C18.6515 28.5508 19.2477 28.4656 19.8438 28.4656C20.1845 28.4656 20.44 28.4656 20.7806 28.4656C20.7806 28.5508 20.7806 28.5508 20.7806 28.6359C20.44 28.7211 20.0993 28.8063 19.8438 28.8063C18.7367 28.8063 17.6296 28.8063 16.5225 28.7211C15.1599 28.5508 13.7973 28.5508 12.3495 28.6359C11.1572 28.6359 9.87982 28.7211 8.68755 28.6359C8.60238 28.6359 8.26173 28.5508 8.26173 29.1471ZM68.6418 37.5817C68.727 37.5817 68.8122 37.5817 68.8973 37.5817C69.1528 37.4965 69.3231 37.4965 69.5786 37.4113C69.4935 37.1557 69.4083 36.8149 69.238 36.6445C69.1528 36.4742 68.8121 36.4742 68.6418 36.4742C67.5347 36.4742 66.3424 36.4741 65.2353 36.389C63.1914 36.3038 61.1476 36.0482 59.1037 35.963C57.6559 35.8778 56.2081 36.1334 54.7604 36.1334C53.0571 36.1334 51.2687 36.0482 49.5655 35.963C49.0545 35.963 48.5435 35.6222 48.0326 35.7926H47.9474C47.6919 35.7926 47.5216 35.7926 47.2661 35.7926C46.8403 35.7926 46.8403 36.0482 46.9254 36.3038C47.0106 36.5594 47.2661 36.8149 47.4364 36.8149C48.6287 36.8149 49.9061 36.7298 51.0984 36.7298C51.5242 36.7298 51.95 36.7297 52.461 36.6445C52.7165 36.6445 52.9719 36.5593 53.2274 36.5593C53.7384 36.5593 54.1642 36.7298 54.6752 36.7298C55.6972 36.7298 56.6339 36.7298 57.6559 36.7298C57.7411 36.7298 57.8262 36.7297 57.9114 36.8149C58.1669 36.8149 58.5075 36.9001 58.763 36.9001C59.1036 36.9001 59.4443 36.8149 59.7849 36.9001C60.8921 36.9853 61.914 37.1557 63.0211 37.2409C64.8947 37.4113 66.7683 37.4965 68.6418 37.5817ZM46.67 39.2005V39.2857C47.0958 39.4561 47.4364 39.7969 47.8622 39.7969C49.4803 39.8821 51.1835 39.9673 52.8016 40.0525C54.0791 40.1377 55.4417 40.1377 56.7191 40.1377C57.5707 40.1377 58.4223 40.1377 59.274 40.1377C60.7217 40.2229 62.2547 40.308 63.7024 40.3932C64.0431 40.3932 64.2986 40.3932 64.6392 40.3932C66.5128 40.3932 68.3012 40.3081 70.1748 40.3081C70.5154 40.3081 70.5154 40.0525 70.3451 39.8821C70.2599 39.7117 70.0044 39.6265 69.8341 39.5413C69.4083 39.4561 69.0676 39.4561 68.6418 39.4561C67.0237 39.3709 65.3205 39.7117 63.7024 39.5413C61.5734 39.3709 59.4443 39.3709 57.3152 39.3709C56.9746 39.3709 56.7191 39.3709 56.3785 39.2857C55.5268 39.2005 54.59 39.1153 53.7384 39.1153C52.972 39.1153 52.2907 39.2005 51.5242 39.2005C49.9913 39.2005 48.5435 39.2005 47.0106 39.2005C46.9254 39.2005 46.7551 39.2005 46.67 39.2005ZM7.58045 36.0482C7.58045 36.1334 7.49528 36.1334 7.49528 36.2186C7.75076 36.389 8.09141 36.6445 8.3469 36.6445C9.87982 36.6445 11.4127 36.5594 12.8605 36.4742C13.7973 36.4742 14.7341 36.4742 15.6709 36.4742C16.267 36.4742 16.8631 36.389 17.3741 36.3038C18.5664 36.2186 19.7586 36.4742 21.0361 36.3038C22.1432 36.2186 23.3355 36.3038 24.4426 36.3038C24.7832 36.3038 25.209 36.1334 25.5497 36.1334C26.6568 36.1334 27.8491 36.1334 28.9562 36.2186C29.0413 36.2186 29.0413 36.1334 29.1265 36.0482C28.871 35.1962 28.5304 34.9406 27.5936 35.0258C26.4013 35.111 25.1239 35.2814 23.9316 35.3666C21.7174 35.4518 19.418 35.4518 17.2038 35.537C16.3522 35.537 15.5857 35.6222 14.7341 35.6222C14.0528 35.6222 13.2863 35.6222 12.605 35.7074C11.0721 35.963 9.62434 36.3038 8.00626 35.963C7.92109 35.963 7.75077 36.0482 7.58045 36.0482ZM46.9254 44.0568C46.9254 44.142 46.9254 44.142 46.9254 44.2271C47.3512 44.5679 47.8622 44.6531 48.4584 44.6531C49.2248 44.6531 49.9913 44.8235 50.7577 44.8235C51.0984 44.8235 51.439 44.8235 51.7797 44.8235C52.461 44.9087 53.1423 44.9939 53.8236 45.0791C55.612 45.2495 57.3152 45.4199 59.1037 45.5903C59.5295 45.5903 59.9553 45.5903 60.3811 45.5903C61.5734 45.6755 62.7656 45.7607 63.9579 45.8459C64.3837 45.8459 64.8095 45.9311 65.1502 46.0163C65.4057 46.0163 65.576 46.0163 65.8315 46.0163C66.087 46.0163 66.2573 45.9311 66.5128 45.9311C67.1941 45.9311 67.7902 45.9311 68.4715 45.9311C68.6418 45.9311 68.8121 45.7607 68.9825 45.6755C68.8121 45.5051 68.6418 45.2495 68.3863 45.1643C67.6199 45.0791 66.8534 44.9939 66.087 44.9939C64.8095 44.9087 63.6173 44.9087 62.3398 44.8235C61.0624 44.7383 59.8701 44.7383 58.5927 44.6531C57.4004 44.5679 56.2081 44.3976 55.0159 44.3124C52.972 44.142 50.9281 44.0568 48.8842 43.9716C48.7139 43.9716 48.4584 43.9716 48.288 43.9716C47.8622 44.0568 47.3512 44.0568 46.9254 44.0568ZM45.7332 33.833C46.3293 33.833 46.7551 33.7478 47.2661 33.7478C47.6919 33.7478 48.0326 33.6626 48.4584 33.6626C48.8842 33.5774 49.3951 33.4922 49.8209 33.4922C50.2468 33.4922 50.5874 33.5774 51.0132 33.6626C51.2687 33.6626 51.5242 33.5774 51.6945 33.6626C52.6313 34.259 53.7384 33.833 54.7604 34.0886C54.8455 34.0886 55.0159 34.0034 55.1862 34.0034C55.4417 34.0034 55.7823 33.9182 56.123 33.9182C56.4636 33.9182 56.7191 34.0034 57.0597 34.0034C58.6778 34.0034 60.2959 34.0034 61.914 34.0034C62.0843 34.0034 62.1695 34.0034 62.3398 34.0034C63.1063 34.0886 63.9579 34.259 64.7244 34.259C65.2353 34.259 65.7463 34.1738 66.2573 34.1738C66.5128 34.1738 66.8534 34.1738 66.8534 33.7478C66.8534 33.407 66.5128 33.3218 66.2573 33.3218C65.2353 33.2366 64.2134 33.2366 63.2766 33.1514C62.936 33.1514 62.6805 33.0662 62.3398 32.981C61.0624 32.981 59.7849 32.981 58.5075 32.981C58.1669 32.981 57.9114 32.981 57.5707 32.981C56.9746 32.981 56.2933 33.0662 55.6972 33.0662C54.9307 33.0662 54.0791 33.0662 53.3126 33.0662C52.3758 33.0662 51.5242 33.1514 50.5874 33.0662C49.0545 32.981 47.6067 32.8106 46.0738 32.7254C45.9035 33.3218 45.8183 33.5774 45.7332 33.833ZM68.4715 36.0482C68.4715 35.2814 67.8754 34.8554 67.1089 34.8554C65.4057 34.8554 63.6173 34.9406 61.914 34.9406C60.5514 34.9406 59.274 34.9406 57.9114 34.8554C57.1449 34.8554 56.4636 34.7702 55.6972 34.7702C54.8455 34.7702 53.9088 34.8554 53.0571 34.8554C52.0352 34.8554 51.0984 34.7702 50.0764 34.7702C49.31 34.7702 48.4584 34.7702 47.7771 34.5998C47.1809 34.4294 47.0106 34.685 46.8403 35.0258C46.6699 35.2814 46.7551 35.4518 47.0958 35.4518C47.2661 35.4518 47.4364 35.3666 47.6067 35.3666C48.3732 35.1962 49.2248 35.0258 49.9913 35.0258C50.4171 35.0258 50.7577 35.3666 51.1835 35.3666C52.0352 35.2814 52.8868 35.6222 53.8236 35.537C55.101 35.4518 56.4636 35.7074 57.7411 35.7074C59.3591 35.7926 61.0624 35.7926 62.6805 35.7926C63.7876 35.7926 64.8947 35.8778 66.0018 35.963C66.7682 35.963 67.6199 36.0482 68.4715 36.0482ZM7.75075 34.4294C7.75075 34.5146 7.66559 34.5998 7.66559 34.5998C7.92107 34.685 8.09141 34.8554 8.3469 34.8554C9.36885 34.8554 10.3056 34.8554 11.3276 34.8554C11.8386 34.8554 12.3495 34.8554 12.8605 34.8554C13.116 34.8554 13.3715 34.9406 13.627 34.9406C14.4786 34.9406 15.2451 34.8554 16.0967 34.7702C17.289 34.685 18.4812 34.685 19.6735 34.5998C19.8438 34.5998 19.929 34.5998 20.0993 34.5998C21.0361 34.5998 22.058 34.685 22.9948 34.685C23.5909 34.685 24.1871 34.5146 24.7832 34.5146C26.0607 34.4294 27.4233 34.4294 28.7007 34.4294L28.7859 34.3442C28.5304 33.9182 28.2749 33.6626 27.6787 33.6626C25.8903 33.7478 24.0168 33.7478 22.2284 33.833C21.2064 33.833 20.2696 33.833 19.2477 33.833C17.1186 33.9182 14.9896 34.0034 12.8605 34.1738C11.3276 34.259 9.87982 34.259 8.3469 34.3442C8.09141 34.4294 7.92108 34.4294 7.75075 34.4294ZM8.00626 42.1824C8.00626 42.5232 8.26173 42.6936 8.68755 42.6936C9.96498 42.6936 11.3276 42.6936 12.605 42.6936C13.4566 42.6936 14.3083 42.5232 15.0747 42.5232C16.778 42.5232 18.4812 42.6084 20.1845 42.6936C21.5471 42.6936 22.8245 42.6936 24.1871 42.6936C25.0387 42.6936 25.8052 42.6084 26.6568 42.6936C27.4233 42.7788 28.1046 42.7788 28.7859 42.6084C29.0413 42.5232 29.382 42.6084 29.6375 42.6084C29.8078 42.6084 29.9781 42.5232 30.1485 42.438C30.0633 42.2676 30.0633 42.0972 29.9781 42.012C29.893 41.9268 29.7226 41.8416 29.5523 41.7564C29.0413 41.6712 28.6155 41.586 28.1045 41.586C27.3381 41.586 26.5716 41.6712 25.8052 41.6712C23.8464 41.7564 21.8877 41.7564 20.0141 41.7564C18.0554 41.8416 16.0115 41.9268 14.0528 41.9268C12.0089 42.2676 10.0502 42.1824 8.00626 42.1824ZM26.5716 31.1067C26.3161 30.5103 25.9755 30.3399 25.5497 30.3399C25.0387 30.3399 24.6129 30.3399 24.1019 30.3399C22.8245 30.3399 21.5471 30.3399 20.1845 30.3399C19.0774 30.3399 17.9702 30.3399 16.8631 30.4251C16.4373 30.4251 16.0967 30.4251 15.6709 30.4251C15.2451 30.4251 14.8192 30.5955 14.3934 30.5103C13.2012 30.5103 12.094 30.4251 10.9018 30.3399C9.96499 30.2547 9.02819 30.2547 8.17657 30.1695C8.00624 30.1695 7.75077 30.0843 7.58045 29.9991C7.41012 29.9991 7.06946 29.9139 6.9843 29.9991C6.89914 30.2547 6.81397 30.5955 6.89913 30.9363C6.89913 31.0215 7.23979 31.1919 7.41011 31.1919C7.83592 31.1919 8.26173 31.1067 8.68755 31.0215C9.19852 31.0215 9.79465 31.0215 10.3056 30.9363C11.1572 30.7659 11.9237 30.8511 12.7753 30.9363C14.3082 31.1067 15.8412 31.1067 17.3741 31.1067C17.9703 31.1067 18.5664 30.9363 19.1625 31.0215C20.5251 31.1067 21.8877 30.8511 23.3355 31.1067C24.4426 31.1919 25.5497 31.1067 26.5716 31.1067ZM46.3293 37.6669C46.3293 37.7521 46.3293 37.7521 46.2441 37.8373C46.5848 38.0077 47.0106 38.1781 47.3512 38.2633C47.9474 38.3485 48.5435 38.2633 49.1397 38.3485C50.2468 38.4337 51.439 38.6041 52.5461 38.6041C53.2274 38.6893 53.8236 38.6041 54.5049 38.6041C55.1862 38.6041 55.8675 38.5189 56.6339 38.5189C57.4856 38.5189 58.3372 38.6041 59.1888 38.6041C60.2959 38.6041 61.403 38.4337 62.5953 38.4337C63.8727 38.4337 65.2353 38.5189 66.5128 38.6041C66.6831 38.6041 66.7683 38.6041 66.9386 38.6041C67.0237 38.6041 67.1089 38.4337 67.1941 38.3485C67.1089 38.2633 67.0237 38.0929 66.9386 38.0929C66.5128 38.0077 66.0018 37.8373 65.576 37.8373C64.2134 37.8373 62.8508 37.8373 61.5734 37.8373C61.403 37.8373 61.2327 37.8373 61.1475 37.9225C60.1256 38.0077 59.0185 38.0929 57.9965 38.1781C56.2933 38.1781 54.59 38.1781 52.8868 38.0929C51.5242 38.0077 50.1616 37.9225 48.799 37.8373C47.9474 37.6669 47.1809 37.6669 46.3293 37.6669ZM8.0914 41.586C8.34689 41.5008 8.60239 41.4156 8.85788 41.4156C9.62434 41.3304 10.3908 41.3304 11.1572 41.3304C11.6682 41.3304 12.2644 41.2452 12.7753 41.2452C13.2863 41.2452 13.7973 41.16 14.3083 41.16C15.1599 41.0748 15.9263 40.9044 16.778 40.9044C17.7999 40.8192 18.907 40.9044 19.929 40.9044C20.44 40.9044 20.9509 40.9896 21.4619 41.0748C22.7393 41.16 24.0168 41.16 25.2942 41.16C26.4013 41.16 27.5936 41.16 28.7007 41.0748C28.871 41.0748 28.9562 40.9044 29.1265 40.9044C28.9562 40.734 28.871 40.5636 28.7007 40.4785C28.6155 40.3933 28.4452 40.4785 28.2749 40.4785C27.0826 40.4785 25.9755 40.5637 24.7832 40.5637C22.3987 40.6489 20.0993 40.734 17.7148 40.734C16.4373 40.734 15.1599 40.8192 13.8825 40.8192C12.6902 40.9044 11.4979 40.9896 10.3056 40.9896C9.70949 40.9896 9.11335 41.0748 8.51721 40.9896C7.92107 40.9044 7.92107 40.9044 8.0914 41.586Z" fill="white"/>
<path d="M0 48.9118C0.510974 48.6562 0.596147 46.6967 0.170335 46.1003C0.425822 45.9299 0.766471 45.6743 1.02196 45.5039C1.02196 45.5039 1.10713 45.5039 1.19229 45.5039C1.87359 45.8447 2.55488 45.5891 3.23618 45.5891C3.74716 45.5891 4.25812 45.5891 4.76909 45.5891C6.04653 45.5891 7.2388 45.5039 8.51623 45.5039C8.68656 45.5039 8.94205 45.5039 9.11238 45.5039C10.7305 45.4187 12.4337 45.4187 14.0518 45.3335C14.3924 45.3335 14.8183 45.4187 15.1589 45.4187C15.755 45.4187 16.3512 45.3335 16.8622 45.3335C20.2686 45.3335 23.6751 45.3335 27.0816 45.3335C27.3371 45.3335 27.5074 45.2483 27.7629 45.1631C26.6558 45.0779 25.6339 44.7371 24.5268 44.9927C24.3564 45.0779 24.1009 44.9927 23.8454 44.9927C22.8235 44.9075 21.8867 44.7371 20.8648 44.7371C18.9912 44.7371 17.0325 44.8223 15.1589 44.8223C14.4776 44.8223 13.7963 44.8223 13.115 44.8223C11.8376 44.8223 10.5601 44.9075 9.28271 44.9927C9.02723 44.9927 8.68658 44.9075 8.43109 44.8223C8.34593 44.8223 8.34592 44.5667 8.26075 44.3963C12.1782 44.3963 15.9254 44.3963 19.7577 44.1407C19.7577 44.0555 19.7577 44.0555 19.7577 43.9703C19.5873 43.9703 19.417 43.9703 19.2467 43.9703C17.2028 43.9703 15.2441 43.9703 13.2002 43.9703C12.4337 43.9703 11.6672 44.1407 10.8156 44.0555C10.2195 44.0555 9.62335 44.1407 9.02721 44.2259C8.51624 44.3111 8.09043 44.0555 7.83494 43.5443C7.92011 43.5443 8.00526 43.5443 8.09042 43.5443C10.3046 43.5443 12.5189 43.6295 14.7331 43.6295C16.5215 43.6295 18.3951 43.5443 20.1835 43.5443C22.3125 43.5443 24.4416 43.4591 26.5707 43.3739C26.9113 43.3739 27.3371 43.2888 27.6778 43.2888C28.1887 43.2888 28.6997 43.3739 29.1255 43.4591C29.4662 43.5443 29.6365 43.8851 29.381 44.2259C30.0623 44.4815 31.0842 44.1407 31.1694 45.2483C31.8507 45.2483 32.532 45.2483 33.2985 45.2483C33.2985 45.0779 33.2985 44.9927 33.2133 44.8223C33.2133 44.7371 33.1282 44.6519 33.1282 44.5667C33.2133 43.8851 33.2985 43.2036 33.554 42.6072C33.7243 42.096 33.8095 41.67 33.554 41.1588C33.1282 40.3068 33.2985 39.0289 34.0649 38.3473C34.4907 38.0065 35.0017 37.8361 35.3424 37.4101C35.683 37.0693 35.8533 36.6433 35.9385 36.2173C36.0237 35.9617 36.1088 35.7913 36.194 35.5357C36.6198 34.9394 36.8753 34.2578 37.2159 33.6614C36.6198 33.5762 36.1088 33.5762 35.5127 33.491C35.2572 33.491 35.0017 33.491 34.7462 33.491C34.4908 33.491 34.2353 33.491 33.9798 33.4058C33.6391 33.4058 33.2133 33.4058 32.8727 33.3206C32.2765 33.2354 31.6804 32.9798 31.0842 32.8946C30.7436 32.8094 30.403 32.8946 29.9771 32.8946C29.8068 32.8946 29.7217 32.9798 29.5513 32.9798C28.6997 32.9798 27.7629 32.9798 26.9113 32.9798C25.9745 32.9798 25.0377 32.9798 24.1009 32.9798C22.7384 32.9798 21.4609 33.1502 20.0983 33.1502C19.0764 33.1502 18.1396 33.065 17.1176 32.9798C16.4363 32.9798 15.8402 32.8946 15.1589 32.9798C14.2221 33.065 13.2853 33.1502 12.2634 33.2354C11.5821 33.3206 10.9008 33.2354 10.3046 33.3206C9.87883 33.3206 9.36786 33.2354 9.02721 33.8318C8.68656 33.2354 8.43107 32.8094 8.09042 32.2982C8.34591 32.2982 8.60141 32.213 8.77173 32.213C9.70852 32.1278 10.6453 32.1278 11.4969 32.0426C12.4337 31.9574 13.3705 31.8722 14.3073 31.7871C16.0957 31.7019 17.9693 31.6167 19.7577 31.6167C20.2686 31.6167 20.7796 31.7018 21.3757 31.7018C21.8867 31.7018 22.3125 31.6167 22.8235 31.6167C24.0158 31.6167 25.2081 31.7019 26.3152 31.7871C27.1668 31.8722 28.0184 31.9574 28.9552 31.7871C29.2107 31.7019 29.5513 31.8722 29.8068 31.8722C30.0623 31.8722 30.3178 31.787 30.4881 31.7018C30.8288 31.4463 31.1694 31.5315 31.5101 31.6167C32.7023 31.9574 33.8946 32.4686 35.1721 32.1278C35.3424 32.0426 35.5127 32.1278 35.683 32.1278C37.5566 32.213 39.4302 31.7018 40.7928 30.4239C41.7296 29.5719 42.4108 28.4643 43.1773 27.3568C43.518 26.8456 43.7734 26.2492 44.0289 25.6528C44.2844 25.1416 44.0289 25.0564 43.6031 24.7156C42.9218 24.2896 42.0702 24.2044 41.4741 23.6933C40.8779 23.1821 40.1966 22.8413 39.345 22.6709C39.0043 22.5857 38.7489 22.3301 38.4934 22.0745C37.7269 21.1373 36.9604 20.2001 36.194 19.1778C35.9385 18.837 35.7682 18.411 35.5979 18.0702C35.5127 17.8998 35.4275 17.8146 35.3424 17.6442C34.8314 18.4962 34.4908 19.263 33.9798 19.9446C33.6391 20.5409 33.2985 21.0521 32.8727 21.6485C31.6804 23.0969 30.0623 23.9488 28.5294 24.886C27.9332 25.2268 27.252 25.3972 26.5707 25.6528C26.4003 25.738 26.1448 25.6528 25.9745 25.6528C25.2932 25.5676 24.6971 26.0788 24.0158 25.738C23.9306 25.6528 23.6751 25.8232 23.5048 25.8232V25.9084C24.3564 25.9084 25.2932 26.0788 26.1448 25.9084C27.1668 25.738 28.1887 25.2268 29.1255 24.9712C29.2958 24.886 29.4662 24.886 29.6365 24.9712C29.8068 25.0564 29.892 25.2268 29.892 25.312C29.892 25.3972 29.8068 25.5676 29.6365 25.5676C28.9552 25.9084 28.1887 26.164 27.5074 26.59C26.8261 27.016 26.1448 27.016 25.3784 27.016C24.5268 26.9308 23.7603 27.1012 22.9938 27.3568C22.568 27.5272 22.0571 27.442 21.6312 27.5272C20.6093 27.5272 19.5022 27.6124 18.4802 27.6124C17.8841 27.6124 17.288 27.442 16.6918 27.3568C15.3292 27.1864 14.0518 27.1864 12.6892 26.9308C11.6673 26.7604 10.6453 26.4196 9.62336 26.0788C9.19755 25.9936 8.8569 25.8232 8.43109 25.6528C8.8569 25.0564 9.02722 25.1416 9.53819 25.4824C10.0492 25.8232 10.7305 25.9084 11.3266 25.9936C12.5189 26.164 13.7111 26.2492 14.9034 26.2492C15.2441 26.2492 15.5847 26.164 15.9254 26.164C17.8841 26.164 19.7577 26.164 21.7164 26.164C22.057 26.164 22.3977 26.0788 22.7383 25.9936C21.9719 24.9712 21.8016 23.8637 21.8867 22.7561C21.8867 21.3929 22.0571 19.9446 22.9087 18.837C23.3345 18.1554 23.9306 17.559 24.3564 16.9626C24.6971 16.4514 25.0377 15.8551 25.4636 15.4291C26.5707 14.4067 27.8481 13.3843 29.2107 12.7879C29.892 12.4471 30.4881 12.0212 31.0842 11.7656C31.5101 11.5952 31.9359 11.5952 32.4468 11.51C32.7875 11.4248 33.1282 11.1692 33.554 11.4248C33.6391 11.4248 33.8095 11.2544 33.9798 11.1692C34.0649 11.084 34.3204 11.084 34.3204 11.084C34.6611 11.6804 35.2572 11.51 35.683 11.5952C36.6198 11.8508 37.6418 12.0212 38.6637 12.2768C39.4302 12.5323 40.1966 12.7879 40.8779 13.1287C42.1553 13.8955 43.4328 14.7475 44.1993 16.1959C44.4547 16.707 44.7954 17.133 44.9657 17.6442C45.2212 18.411 45.3064 19.1778 45.4767 19.9446C45.5619 20.2853 45.647 20.7113 45.647 21.0521C45.647 21.2225 45.647 21.3077 45.647 21.4781C45.5618 22.2449 45.4767 22.9265 45.3915 23.6933C45.3064 24.1192 45.5619 24.2044 45.9025 24.2896C46.4135 24.46 46.9244 24.7156 47.4354 24.9712C48.287 25.3972 49.2238 25.8232 49.9903 26.4196C51.3529 27.2716 52.6303 28.2939 53.6523 29.5719C54.0781 30.0831 54.6742 30.4239 55.1 30.8499C55.2704 31.0203 55.3555 31.2759 55.5258 31.6167C56.3775 31.8722 57.3994 31.8722 58.4214 31.6167C58.5917 31.6167 58.8472 31.5315 59.0175 31.5315C60.1246 31.5315 61.3169 31.5315 62.424 31.5315C63.7014 31.5315 64.9789 31.3611 66.2563 31.3611C67.2782 31.3611 68.3854 31.2759 69.3221 31.8722C69.5776 32.0426 69.9183 32.213 69.748 32.4686C69.6628 32.639 69.3221 32.8946 69.0666 32.8946C68.6408 32.8946 68.215 32.7242 67.8744 32.8094C66.6821 32.8946 65.575 32.7242 64.4679 32.8094C64.1272 32.8094 63.8717 32.8946 63.5311 32.8946C63.2756 32.8946 63.0201 32.8946 62.7646 32.8946C61.913 32.8094 61.0614 32.7242 60.1246 32.639C59.1026 32.5538 57.9956 32.4686 56.9736 32.4686C56.2923 32.4686 55.611 32.2982 54.8445 32.3834C53.9929 32.4686 53.1413 32.2982 52.3748 32.2982C51.8638 32.2982 51.2677 32.1278 50.7567 32.5538C50.5864 32.639 50.3309 32.639 50.0755 32.5538C49.5645 32.4686 49.0535 32.3834 48.6277 32.3834C48.3722 32.3834 48.1167 32.4686 47.8612 32.3834C47.6057 32.2982 47.3503 32.213 47.1799 32.0426C47.1799 32.0426 47.1799 31.7018 47.2651 31.7018C47.5206 31.5315 47.6057 31.1055 48.1167 31.1907C48.6277 31.3611 49.1387 31.3611 49.6496 31.3611C51.0122 31.4463 52.46 31.4463 53.8226 31.5315C53.9078 31.5315 54.0781 31.5315 54.2484 31.5315C53.1413 29.9127 51.7787 28.6347 50.1606 27.6124C48.5425 26.59 46.8393 25.9084 45.136 25.2268C44.7954 26.164 44.5399 27.016 44.1993 27.8679C44.0289 28.3791 43.518 28.7199 43.2625 29.1459C42.6663 30.2535 41.6444 30.9351 40.7928 31.7871C40.7076 31.8722 40.6224 32.1278 40.7076 32.213C41.3037 32.8094 41.0483 33.3206 40.7928 33.917C40.367 34.769 40.0263 35.6209 39.5153 36.6433C41.1334 36.4729 42.6663 36.8989 44.1141 36.1321C44.1993 36.3025 44.2844 36.3877 44.3696 36.5581C43.4328 36.9841 42.5812 37.3249 41.5592 37.4101C40.6224 37.4953 39.6856 37.7509 38.7489 38.0065C39.6856 38.5177 39.856 39.4549 40.0263 40.3068C40.0263 40.4772 39.9411 40.7328 39.856 40.9884C39.7708 41.244 39.6856 41.4996 39.6856 41.7552C40.5373 41.8404 41.3037 41.8404 42.0702 41.9256C43.0922 42.096 44.0289 42.3516 44.9657 42.522C45.4767 42.6072 45.9877 42.6924 46.4986 42.7776C46.669 42.7776 46.8393 42.7776 46.9244 42.8628C47.0948 43.0332 47.2651 43.2888 47.5206 43.4591C47.2651 43.5443 47.0948 43.7147 46.8393 43.7147C46.0728 43.7999 45.3915 43.6295 44.7954 43.2036C44.6251 43.1184 44.4547 43.1184 44.2844 43.1184C43.6883 43.1184 43.1773 43.1184 42.6663 42.8628C42.5812 42.8628 42.496 42.8628 42.4108 42.8628C41.4741 42.8628 40.5373 42.8628 39.6005 42.8628C38.9192 42.8628 38.2379 42.8628 37.5566 42.7776C37.2159 42.7776 36.7901 42.6924 36.4495 42.6072C36.2792 42.6072 36.1088 42.6072 36.0237 42.7776C35.5979 43.2887 35.1721 43.7999 34.7462 44.3111C34.4908 44.5667 34.2353 44.8223 33.9798 45.1631C34.0649 45.1631 34.0649 45.2483 34.1501 45.2483C36.3643 45.3335 38.4934 45.3335 40.7076 45.4187C41.5592 45.4187 42.3257 45.3335 43.1773 45.3335C44.3696 45.3335 45.5618 45.4187 46.8393 45.4187C47.5206 45.4187 48.1167 45.4187 48.798 45.4187C49.5645 45.5039 50.2458 45.5891 51.0122 45.6743C51.0974 45.6743 51.1826 45.6743 51.3529 45.6743C52.8006 45.7595 54.1632 45.7595 55.611 45.8447C57.3143 45.9299 59.1027 45.9299 60.8059 46.0151C62.0833 46.1003 63.3608 46.1855 64.6382 46.2707C65.2344 46.2707 65.8305 46.2707 66.4266 46.2707C67.6189 46.2707 68.8112 46.3559 70.0886 46.3559C70.4292 46.3559 70.7699 46.2707 71.0254 46.3559C71.2809 46.4411 71.5363 46.6115 71.6215 46.8671C71.7918 47.3782 71.877 47.8894 71.9622 48.4858C72.0473 48.7414 71.9622 49.0822 71.9622 49.423C71.9622 50.4454 71.9622 50.4454 70.9402 50.4454C70.3441 50.4454 69.6628 50.3602 69.0666 50.275C68.3002 50.1898 67.704 50.7862 67.704 51.6381C67.704 52.1493 67.5337 52.6605 67.5337 53.2569C67.4486 54.1089 67.3634 54.8756 67.2782 55.7276C67.1931 56.5796 67.1079 57.4316 67.0227 58.2836C66.9376 59.0503 66.8524 59.9023 66.7673 60.6691C66.6821 61.0951 66.5969 61.5211 66.5118 62.0323C66.4266 62.0323 66.3415 62.0323 66.3415 62.0323C66.3415 61.6063 66.4266 61.1803 66.4266 60.7543C66.5118 59.4763 66.5969 58.2836 66.6821 57.0056C66.7673 56.324 66.8524 55.6424 66.8524 54.9608C66.9376 53.7681 66.9376 52.4901 66.9376 51.2973C66.9376 50.9565 66.5118 50.5306 66.1711 50.5306C65.1492 50.4454 64.1272 50.4454 63.1904 50.3602C61.8278 50.275 60.3801 50.275 59.0175 50.1898C58.1659 50.1898 57.3143 50.1046 56.5478 50.0194C55.1852 50.0194 53.8226 50.0194 52.46 50.0194C50.6716 49.9342 48.798 49.6786 47.0096 49.5934C45.647 49.5082 44.1993 49.5082 42.8367 49.423C40.8779 49.3378 39.0043 49.3378 37.0456 49.2526C36.2791 49.2526 35.5127 49.1674 34.7462 49.1674C34.1501 49.1674 33.554 49.2526 32.9578 49.2526C32.1062 49.2526 31.3397 49.1674 30.4881 49.1674C29.4662 49.1674 28.4442 49.1674 27.4223 49.1674C26.23 49.1674 25.0377 49.1674 23.9306 49.1674C23.4196 49.1674 22.9087 49.423 22.3977 49.5082C22.2274 49.5082 22.057 49.5934 21.8867 49.5934C20.0983 49.5934 18.3951 49.5934 16.6067 49.5934C15.3292 49.5934 13.9666 49.423 12.6892 49.5082C11.1563 49.5082 9.70851 49.6786 8.17559 49.7638C7.40913 49.7638 6.72782 49.7638 5.96136 49.7638C5.36523 49.7638 4.93943 50.0194 4.93943 50.6158C4.93943 53.3421 4.93943 56.1536 4.93943 58.88C4.93943 60.8395 4.93942 62.7138 4.85426 64.6734C4.7691 64.4178 4.68395 64.077 4.59879 63.8214C4.51362 62.2027 4.34328 60.4987 4.25812 58.88C4.25812 58.1132 4.42845 57.3464 4.42845 56.4944C4.42845 55.1312 4.34328 53.6829 4.25812 52.3197C4.17295 51.5529 4.0878 50.701 3.91747 49.9342C3.91747 49.849 3.74716 49.5934 3.662 49.6786C2.81037 49.7638 1.95875 49.3378 1.10713 49.849C1.02196 49.9342 0.766482 49.849 0.766482 49.7638C0.34067 49.5082 0.170325 49.2526 0 48.9118ZM13.626 48.7414C14.6479 48.6562 15.4996 48.571 16.4363 48.571C16.9473 48.571 17.4583 48.571 17.9693 48.571C19.5873 48.4858 21.2054 48.3154 22.8235 48.3154C25.8042 48.3154 28.87 48.4006 31.8507 48.4858C33.554 48.4858 35.2572 48.571 36.8753 48.6562C39.0895 48.7414 41.3037 48.7414 43.4328 48.8266C44.6251 48.8266 45.9025 48.9118 47.0948 48.9118C48.4574 48.9118 49.9051 48.9118 51.2677 48.8266C52.46 48.8266 53.6523 48.6562 54.7594 48.7414C56.3775 48.7414 58.0807 48.9118 59.6988 48.997C61.402 49.0822 63.1053 49.1674 64.7234 49.2526C66.2563 49.3378 67.8744 49.423 69.4073 49.423C70.6847 49.423 70.6847 49.423 70.6847 48.145C70.6847 47.4634 70.5996 47.3783 69.9183 47.3783C68.215 47.3783 66.4266 47.3783 64.7234 47.3783C64.553 47.3783 64.3827 47.3783 64.2124 47.3783C63.3608 47.2931 62.5943 47.2079 61.7427 47.1227C60.4652 47.0375 59.1027 47.1226 57.8252 47.0375C56.5478 46.9523 55.3555 46.7819 54.0781 46.6967C52.2897 46.6115 50.5013 46.4411 48.7129 46.3559C48.287 46.3559 47.8612 46.2707 47.4354 46.2707C45.3064 46.2707 43.0921 46.1855 40.9631 46.1855C40.7076 46.1855 40.4521 46.2707 40.1966 46.2707C39.4302 46.1855 38.7489 46.1003 37.9824 46.1003C35.8533 46.1003 33.6391 46.1003 31.5101 46.0151C30.9139 46.0151 30.2326 46.1003 29.6365 46.1003C29.2107 46.1003 28.87 46.0151 28.4442 46.0151C26.1449 46.1003 23.8455 46.1003 21.5461 46.1855C20.8648 46.1855 20.1835 46.0151 19.5022 46.0151C17.6286 46.0151 15.755 46.1003 13.8815 46.1855C13.115 46.1855 12.4337 46.2707 11.6672 46.2707C10.5601 46.3559 9.45303 46.3559 8.34592 46.4411C6.38719 46.5263 4.5136 46.5263 2.55487 46.6115C2.12906 46.6115 1.6181 46.6967 1.19229 46.7819C1.27746 47.4634 1.27744 48.0598 1.3626 48.7414C2.64004 48.8266 3.91747 48.997 5.10974 48.997C7.06847 48.997 9.11237 48.9118 11.0711 48.8266C11.9227 48.8266 12.7744 48.8266 13.7111 48.8266V48.9118C13.7963 48.9118 13.7963 48.9118 13.626 48.7414ZM39.0895 40.3068C39.0895 40.2216 39.0895 40.2216 39.0895 40.1364C39.0895 38.6881 37.9824 37.9213 36.6198 38.4325C36.4495 38.5177 36.194 38.6029 36.0237 38.6029C35.4275 38.5177 34.9166 38.8585 34.4056 39.1141C33.9798 39.3696 33.6391 40.2216 33.8946 40.4772C34.1501 40.7328 34.4056 40.9884 34.6611 41.1588C35.3424 41.4144 36.0237 41.7552 36.7901 41.9256C37.8972 42.096 39.1747 41.4996 39.0895 40.3068ZM36.5347 35.9617C37.1308 36.1321 37.6418 36.3877 38.1527 36.4729C38.5785 36.5581 38.9192 36.4729 39.0895 36.0469C39.2598 35.4506 39.5153 34.9394 39.7708 34.343C39.9411 34.0022 40.1115 33.6614 40.1966 33.2354C40.2818 32.8094 40.1115 32.5538 39.6856 32.7242C39.345 32.8094 38.9192 32.9798 38.6637 33.2354C38.3231 33.5762 38.1527 34.0022 37.8972 34.343C37.4714 34.8542 37.0456 35.3654 36.5347 35.9617ZM34.3204 41.8404C34.1501 42.2664 33.9798 42.522 33.8946 42.7776C33.8946 42.8628 33.8946 43.1184 33.9798 43.2036C34.0649 43.2887 34.3204 43.2888 34.4056 43.2888C34.6611 43.1184 34.9166 42.8628 35.1721 42.6072C35.2572 42.522 35.2572 42.2664 35.1721 42.2664C34.9166 42.096 34.5759 42.0108 34.3204 41.8404ZM27.7629 44.2259C26.4855 43.8851 25.3784 44.0555 24.1861 43.9703C24.1861 44.0555 24.1861 44.1407 24.1861 44.2259C25.3784 44.2259 26.4855 44.2259 27.7629 44.2259ZM37.4714 37.2397C37.4714 37.1545 37.4714 37.1545 37.4714 37.0693C36.5346 36.5581 36.1088 36.6433 36.1088 37.3249C36.5347 37.2397 37.0456 37.2397 37.4714 37.2397ZM21.8867 44.1407V44.2259C22.2274 44.2259 22.6532 44.2259 22.9938 44.2259V44.1407C22.6532 44.1407 22.3125 44.1407 21.8867 44.1407Z" fill="black"/>
<path d="M6.72775 39.456C7.32388 39.2004 7.83483 38.8596 8.51613 38.5188C8.09032 38.2632 7.83484 38.0928 7.40903 37.9224C7.83484 37.5816 8.26066 37.4964 8.77163 37.4964C9.45293 37.4964 10.0491 37.4112 10.7304 37.4112C11.071 37.4112 11.3265 37.326 11.582 37.326C12.5188 37.2408 13.3704 37.0704 14.3072 37.0704C14.9033 36.9852 15.4995 37.0704 16.0956 37.0704C17.2879 37.0704 18.4801 36.9852 19.6724 36.9852C20.6092 36.9852 21.4608 37.1556 22.3976 37.2408C22.8234 37.2408 23.2492 37.1556 23.7602 37.1556C24.0157 37.1556 24.3563 37.1556 24.6118 37.1556C25.7189 37.1556 26.826 37.1556 28.0183 37.1556C28.6144 37.1556 29.1254 37.2408 29.6364 37.326C30.1474 37.4112 30.6583 37.8372 30.5732 38.4336C29.5512 38.4336 28.6144 38.4336 27.5925 38.4336C27.5925 38.5188 27.5925 38.5188 27.5073 38.604C27.6777 38.6892 27.848 38.7744 28.1034 38.9448C28.0183 39.03 27.9331 39.1152 27.7628 39.3708C28.5293 39.2856 29.2106 39.2004 29.977 39.1152C30.4028 39.03 30.7435 39.2856 30.999 39.6264C31.1693 39.882 30.999 39.9671 30.7435 39.9671C30.3177 39.9671 29.8067 39.9671 29.3809 39.9671C28.3589 39.9671 27.337 39.9671 26.4002 39.9671C26.0596 39.9671 25.7189 40.0524 25.3783 40.1375C24.9525 40.2227 24.5266 40.3931 24.0157 40.2227C23.675 40.1375 23.2492 40.3079 22.9086 40.3079C22.4828 40.3079 21.9718 40.3079 21.546 40.3079C20.8647 40.3079 20.2685 40.3079 19.5872 40.3079C19.3317 40.3079 19.1614 40.3931 18.9059 40.3931C18.0543 40.3931 17.1175 40.3931 16.2659 40.3931C15.4994 40.3931 14.733 40.5635 13.9665 40.6487C12.8594 40.7339 11.7523 40.8191 10.56 40.9043C10.3046 40.9043 10.0491 40.7339 9.79357 40.6487C9.79357 40.5635 9.79357 40.5635 9.79357 40.4783C9.96389 40.3931 10.1342 40.3079 10.3045 40.3079C12.2633 40.2227 14.222 40.2227 16.0956 40.1375C17.7988 40.0524 19.5021 40.0523 21.2053 39.9671C22.3124 39.8819 23.4195 39.7116 24.5266 39.5412C24.186 39.456 23.8453 39.3708 23.5899 39.3708C21.3756 39.3708 19.1614 39.456 16.9472 39.5412C14.9885 39.6264 13.1149 39.8819 11.1562 39.9671C10.3897 40.0523 9.53809 40.0524 8.77163 40.1375C8.26066 40.1375 7.66453 40.2227 7.15356 40.3079C6.98323 40.3079 6.8129 40.2227 6.64258 40.1375C6.72774 39.6264 6.72775 39.5412 6.72775 39.456ZM12.9446 38.2632C15.9253 38.3484 18.8208 38.4336 21.8014 38.4336C21.8014 38.3484 21.8014 38.2632 21.8014 38.2632C18.8208 37.8372 15.8401 37.8372 12.9446 38.2632Z" fill="black"/>
<path d="M47.265 42.7788C48.5424 42.438 49.8198 42.5232 51.0121 42.6084C51.6934 42.6084 52.4599 42.6936 53.1412 42.6936C55.3554 42.7788 57.4844 42.7788 59.6986 42.864C61.0612 42.9492 62.509 43.0344 63.8716 43.1196C64.3826 43.1196 64.8936 43.1196 65.4045 43.0344C65.4045 42.9492 65.4045 42.9492 65.4045 42.864C65.2342 42.7788 64.9787 42.6936 64.8084 42.6936C63.7013 42.6084 62.6793 42.6084 61.5722 42.5232C60.38 42.438 59.1877 42.3528 57.9954 42.2676C57.3993 42.1824 56.8883 42.1824 56.2922 42.0972C54.6741 42.012 52.9708 41.8416 51.3528 41.7564C50.1605 41.6712 48.883 41.7564 47.6908 41.7564C47.5204 41.7564 47.265 41.586 47.0947 41.5008C47.0095 41.4156 47.0095 41.16 46.9243 40.9896C47.0946 40.9896 47.265 40.9896 47.4353 40.9896C47.5205 40.9896 47.6056 40.9896 47.7759 40.9896C49.905 41.0748 52.0341 41.16 54.2483 41.2452C54.6741 41.2452 55.1851 41.4156 55.6109 41.4156C55.8664 41.4156 56.207 41.4156 56.4625 41.5008C56.9735 41.586 57.4844 41.6712 57.9954 41.6712C59.9541 41.7564 61.998 41.7564 63.9568 41.8416C65.4045 41.9268 66.7671 41.9268 68.2149 42.012C68.5555 42.012 68.8962 42.0972 69.2368 42.2676C69.4072 42.3528 69.4923 42.6084 69.5775 42.6936C69.4071 42.7788 69.2368 42.9492 69.0665 42.9492C68.1297 42.9492 67.1929 42.9492 66.2561 42.9492C66.0858 42.9492 65.9155 42.9492 65.7452 42.9492C65.7452 43.0344 65.7452 43.0344 65.7452 43.1196C65.9155 43.1196 66.171 43.2048 66.3413 43.2048C67.2781 43.2048 68.1297 43.2048 69.0665 43.2048C69.6626 43.2048 70.2588 43.29 70.6846 43.8011C70.7697 43.8863 70.8549 44.1419 70.7697 44.2271C70.6846 44.3123 70.5143 44.4827 70.3439 44.4827C69.5775 44.4827 68.811 44.4827 67.9594 44.3975C67.4484 44.3975 66.9375 44.3975 66.3413 44.3975C65.9155 44.3975 65.5748 44.3975 65.149 44.3123C64.5529 44.3123 63.9568 44.2271 63.3606 44.1419C61.4871 44.0567 59.6987 43.8863 57.8251 43.8011C55.9515 43.7159 54.1631 43.5456 52.2896 43.4604C51.1824 43.3752 50.0753 43.2048 48.9682 43.3752C48.3721 43.4603 47.9463 42.9492 47.265 42.7788Z" fill="black"/>
<path d="M8.2606 29.1471C8.2606 28.4655 8.60124 28.6359 9.02705 28.6359C10.2193 28.7211 11.4968 28.7211 12.6891 28.6359C14.0517 28.6359 15.4142 28.6359 16.862 28.7211C17.9691 28.8063 19.0762 28.8063 20.1833 28.8063C20.524 28.8063 20.8646 28.7211 21.1201 28.6359C21.1201 28.5507 21.1201 28.5507 21.1201 28.4655C20.7795 28.4655 20.524 28.4655 20.1833 28.4655C19.5872 28.4655 18.9911 28.5507 18.3949 28.4655C17.2878 28.2951 16.1807 28.3803 15.0736 28.2951C13.7962 28.2099 12.4336 28.0396 11.1561 27.9544C10.56 27.8692 9.96384 27.8692 9.3677 27.784C8.77156 27.6988 8.17542 27.5284 7.66445 27.358C7.57929 27.358 7.49414 27.1876 7.49414 27.1024C7.49414 27.0172 7.57929 26.932 7.74962 26.8468C8.34575 26.506 9.02706 26.7616 9.6232 26.932C10.3897 27.1024 11.1561 27.358 11.9226 27.4432C13.4555 27.6136 14.9033 27.6988 16.4362 27.784C16.9472 27.784 17.5433 27.784 18.1394 27.784C19.3317 27.784 20.4388 27.8692 21.6311 27.784C22.9937 27.6988 24.2711 27.5284 25.5486 27.358C26.4002 27.2728 27.2518 27.1876 28.0183 27.0172C28.3589 26.932 28.6996 26.7616 29.1254 26.6764C29.0402 26.6764 29.1254 26.6764 29.1254 26.6764C29.8919 27.358 29.6364 27.4432 28.8699 27.8692C28.0183 28.2951 27.0815 28.21 26.2299 28.3803C26.0596 28.3803 25.8892 28.4655 25.7189 28.5507C25.7189 28.6359 25.7189 28.6359 25.7189 28.7211C26.6557 28.8063 27.5925 28.8063 28.5292 28.8915C28.9551 28.8915 29.3809 29.0619 29.7215 29.2323C29.8919 29.3175 29.8919 29.6583 29.8919 29.9139C29.8919 30.0843 29.6364 30.2547 29.466 30.2547C29.2106 30.3399 28.9551 30.2547 28.6996 30.2547C27.2518 29.9991 25.7189 29.9991 24.2711 29.9991C22.9085 29.9991 21.4608 29.9139 20.0982 29.8287C19.3317 29.8287 18.6504 29.8287 17.8839 29.6583C16.9472 29.4027 16.0955 29.9139 15.1588 29.8287C14.7329 29.8287 14.3923 29.7435 13.9665 29.6583C12.3484 29.5731 10.7303 29.4027 9.11222 29.3175C8.51608 29.3175 8.34576 29.2323 8.2606 29.1471Z" fill="black"/>
<path d="M68.6408 37.5817C66.7672 37.4965 64.8936 37.4113 63.0201 37.2409C61.913 37.1557 60.891 36.9853 59.7839 36.9001C59.4433 36.9001 59.1026 36.9001 58.7619 36.9001C58.5065 36.9001 58.1658 36.8149 57.9103 36.8149C57.8252 36.8149 57.74 36.7297 57.6548 36.7297C56.6329 36.7297 55.6961 36.7297 54.6742 36.7297C54.1632 36.7297 53.7374 36.6445 53.2264 36.5593C52.9709 36.5593 52.7154 36.5593 52.4599 36.6445C52.0341 36.6445 51.6083 36.6445 51.0973 36.7297C49.9051 36.8149 48.6276 36.8149 47.4354 36.8149C47.265 36.8149 47.0095 36.4741 46.9244 36.3037C46.8392 36.0481 46.8392 35.7925 47.265 35.7925C47.5205 35.7925 47.6909 35.7925 47.9463 35.7925H48.0315C48.5425 35.5369 49.0534 35.8777 49.5644 35.9629C51.2677 36.0481 53.0561 36.1333 54.7593 36.1333C56.2071 36.1333 57.6549 35.9629 59.1026 35.9629C61.1465 36.0481 63.1904 36.2185 65.2343 36.3889C66.3414 36.4741 67.5337 36.3889 68.6408 36.4741C68.8111 36.4741 69.1518 36.4741 69.2369 36.6445C69.4073 36.8149 69.4924 37.1557 69.5776 37.4113C69.3221 37.4965 69.1518 37.4965 68.8963 37.5817C68.8111 37.6669 68.7259 37.5817 68.6408 37.5817Z" fill="black"/>
<path d="M46.6689 39.2006C46.8393 39.2006 46.9244 39.2006 47.0948 39.2006C48.6277 39.2006 50.0754 39.2006 51.6084 39.2006C52.3748 39.2006 53.0561 39.1154 53.8226 39.1154C54.6742 39.1154 55.611 39.2006 56.4626 39.2858C56.8033 39.2858 57.0588 39.371 57.3994 39.371C59.5285 39.4561 61.6575 39.3709 63.7866 39.5413C65.4898 39.7117 67.1079 39.371 68.726 39.4562C69.1518 39.4562 69.5776 39.4561 69.9183 39.5413C70.0886 39.5413 70.2589 39.7117 70.4292 39.8821C70.5996 40.1377 70.5144 40.3081 70.2589 40.3081C68.3853 40.3933 66.5969 40.3933 64.7234 40.3933C64.3827 40.3933 64.1272 40.3933 63.7866 40.3933C62.3388 40.3081 60.8059 40.2229 59.3581 40.1377C58.5065 40.1377 57.6549 40.1377 56.8033 40.1377C55.5258 40.1377 54.1632 40.0525 52.8858 40.0525C51.2677 39.9673 49.5645 39.9673 47.9464 39.7969C47.5206 39.7969 47.1799 39.4562 46.7541 39.2858C46.669 39.2858 46.6689 39.2858 46.6689 39.2006Z" fill="black"/>
<path d="M7.57959 36.0482C7.74991 36.0482 7.92022 36.0482 8.09054 36.0482C9.62347 36.389 11.1564 35.963 12.6893 35.7926C13.3706 35.7074 14.1371 35.7074 14.8184 35.7074C15.67 35.7074 16.4365 35.6222 17.2881 35.6222C19.5023 35.537 21.8017 35.537 24.0159 35.4518C25.2082 35.3666 26.4856 35.1962 27.6779 35.111C28.6147 35.0258 28.9554 35.3666 29.2109 36.1334C29.1257 36.2186 29.1257 36.3038 29.0405 36.3038C27.9334 36.3038 26.7411 36.2186 25.634 36.2186C25.2934 36.2186 24.8676 36.389 24.5269 36.389C23.4198 36.389 22.2275 36.3038 21.1204 36.389C19.9281 36.4742 18.6507 36.3038 17.4584 36.389C16.8623 36.389 16.2661 36.5594 15.7552 36.5594C14.8184 36.5594 13.8816 36.5594 12.9448 36.5594C11.4119 36.6446 9.87898 36.7298 8.43121 36.7298C8.17573 36.7298 7.83508 36.4742 7.57959 36.3038C7.57959 36.1334 7.57959 36.0482 7.57959 36.0482Z" fill="black"/>
<path d="M46.9243 44.0566C47.3501 44.0566 47.8611 44.0566 48.2869 44.0566C48.4572 44.0566 48.7127 44.0566 48.8831 44.0566C50.927 44.1418 52.9708 44.3122 55.0147 44.3974C56.207 44.4826 57.3993 44.653 58.5915 44.7382C59.869 44.8234 61.0612 44.8234 62.3387 44.9086C63.6161 44.9938 64.8935 44.9938 66.0858 45.079C66.8523 45.079 67.6187 45.1642 68.3852 45.2494C68.5555 45.2494 68.7258 45.5902 68.9813 45.7606C68.811 45.8458 68.6407 46.0162 68.4704 46.0162C67.7891 46.0162 67.1929 46.0162 66.5116 46.0162C66.2561 46.0162 66.0858 46.1014 65.8303 46.1014C65.5748 46.1014 65.4045 46.1866 65.149 46.1014C64.7232 46.1014 64.2974 45.931 63.9568 45.931C62.7645 45.8458 61.5722 45.7606 60.38 45.6754C59.9541 45.6754 59.5283 45.6754 59.1025 45.6754C57.3141 45.505 55.6109 45.3346 53.8225 45.1642C53.1412 45.079 52.4599 44.9938 51.7786 44.9086C51.4379 44.9086 51.0973 44.9086 50.7566 44.9086C49.9902 44.8234 49.2237 44.7382 48.4573 44.7382C47.8611 44.7382 47.3501 44.653 46.9243 44.3122C46.9243 44.227 46.9243 44.1418 46.9243 44.0566Z" fill="black"/>
<path d="M45.7319 33.8329C45.8171 33.5773 45.8171 33.3217 45.9023 32.8958C47.4352 33.0661 48.8829 33.1513 50.4159 33.2365C51.3526 33.3217 52.2043 33.2365 53.1411 33.2365C53.9075 33.2365 54.7591 33.2365 55.5256 33.2365C56.1217 33.2365 56.803 33.2365 57.3992 33.1513C57.7398 33.1513 57.9953 33.1513 58.3359 33.1513C59.6134 33.1513 60.8908 33.1513 62.1682 33.1513C62.5089 33.1513 62.7644 33.2365 63.105 33.3217C64.127 33.4069 65.1489 33.4069 66.0857 33.4921C66.3412 33.4921 66.6819 33.4921 66.6819 33.9181C66.6819 34.2589 66.4264 34.3441 66.0857 34.3441C65.5747 34.3441 65.0638 34.5145 64.5528 34.4293C63.7863 34.4293 62.9347 34.2589 62.1682 34.1737C61.9979 34.1737 61.9128 34.1737 61.7424 34.1737C60.1243 34.1737 58.5063 34.1737 56.8882 34.1737C56.5475 34.1737 56.2921 34.0885 55.9514 34.0885C55.6959 34.0885 55.3553 34.0885 55.0146 34.1737C54.8443 34.1737 54.7591 34.2589 54.5888 34.2589C53.5669 34.0033 52.4597 34.4293 51.523 33.8329C51.3526 33.7477 51.0972 33.8329 50.8417 33.8329C50.4159 33.8329 50.0752 33.6625 49.6494 33.6625C49.2236 33.6625 48.7126 33.7477 48.2868 33.8329C47.861 33.8329 47.5203 33.9181 47.0945 33.9181C46.839 33.8329 46.3281 33.8329 45.7319 33.8329Z" fill="black"/>
<path d="M68.4705 36.048C67.6189 35.9628 66.7673 35.8776 65.9156 35.8776C64.8085 35.7924 63.7014 35.7924 62.5943 35.7072C60.9762 35.622 59.273 35.7072 57.6549 35.622C56.3774 35.5368 55.0148 35.3664 53.7374 35.4516C52.8006 35.5368 51.949 35.196 51.0974 35.2812C50.6716 35.2812 50.3309 34.9404 49.9051 34.9404C49.1386 35.0256 48.287 35.196 47.5206 35.2812C47.3502 35.2812 47.1799 35.3664 47.0096 35.3664C46.6689 35.3664 46.5838 35.196 46.7541 34.9404C47.0096 34.5996 47.1799 34.344 47.6909 34.5144C48.4573 34.77 49.2238 34.6848 49.9903 34.6848C51.0122 34.77 51.949 34.77 52.971 34.77C53.8226 34.77 54.7594 34.6848 55.611 34.6848C56.3775 34.6848 57.0588 34.77 57.8252 34.77C59.1878 34.77 60.4652 34.8552 61.8278 34.8552C63.5311 34.8552 65.3195 34.77 67.0227 34.77C67.8744 34.8552 68.4705 35.2812 68.4705 36.048Z" fill="black"/>
<path d="M7.7499 34.4293C7.92022 34.4293 8.09055 34.4293 8.26088 34.4293C9.7938 34.3441 11.2416 34.3441 12.7745 34.2589C14.9035 34.1737 17.0326 34.0033 19.1617 33.9181C20.1836 33.9181 21.1204 33.9181 22.1423 33.9181C23.9308 33.9181 25.8043 33.8329 27.5928 33.7477C28.1889 33.7477 28.4444 34.0033 28.6999 34.4293C28.6999 34.5144 28.6147 34.5145 28.6147 34.5145C27.3373 34.5145 25.9747 34.5997 24.6972 34.5997C24.1011 34.5997 23.505 34.77 22.9088 34.77C21.972 34.77 20.9501 34.77 20.0133 34.6848C19.843 34.6848 19.7578 34.5996 19.5875 34.6848C18.3952 34.6848 17.2029 34.77 16.0107 34.8552C15.159 34.8552 14.3926 34.9404 13.541 35.0256C13.2855 35.0256 13.03 34.9404 12.7745 34.9404C12.2635 34.9404 11.7525 34.9404 11.2416 34.9404C10.2196 34.9404 9.28283 34.9404 8.26088 34.9404C8.00539 34.9404 7.83508 34.77 7.57959 34.6848C7.74991 34.5996 7.7499 34.5144 7.7499 34.4293Z" fill="black"/>
<path d="M8.00537 42.1825C10.0493 42.1825 12.008 42.1825 13.8816 42.1825C15.8403 42.1825 17.8842 42.0121 19.8429 42.0121C21.8017 41.9269 23.7604 41.9269 25.634 41.9269C26.4004 41.9269 27.1669 41.8417 27.9334 41.8417C28.4443 41.8417 28.8701 41.9269 29.3811 42.0121C29.5514 42.0121 29.7218 42.0973 29.8069 42.2677C29.8921 42.3529 29.9773 42.5233 29.9773 42.6937C29.8069 42.7789 29.6366 42.7788 29.4663 42.864C29.2108 42.864 28.8701 42.7788 28.6146 42.864C27.9333 42.9492 27.2521 43.0344 26.4856 42.9492C25.7191 42.864 24.8675 42.9492 24.0159 42.9492C22.6533 42.9492 21.3758 42.9492 20.0132 42.9492C18.31 42.9492 16.6067 42.864 14.9035 42.7788C14.0519 42.7788 13.2003 42.864 12.4338 42.9492C11.1564 42.9492 9.79376 42.9492 8.51632 42.9492C8.26084 42.6936 8.00537 42.6085 8.00537 42.1825Z" fill="black"/>
<path d="M26.5706 31.1067C25.4635 31.1067 24.4416 31.2771 23.5048 31.1067C22.1422 30.8512 20.7796 31.0215 19.3318 31.0215C18.7357 31.0215 18.1396 31.1067 17.5434 31.1067C16.0105 31.1067 14.4776 31.1067 12.9447 30.9364C12.093 30.8512 11.3266 30.766 10.475 30.9364C9.96399 31.0216 9.45303 30.9364 8.85689 31.0215C8.43108 31.0215 8.00527 31.1919 7.57946 31.1919C7.40913 31.1919 7.06848 31.1067 7.06848 30.9364C6.98332 30.6808 7.06848 30.34 7.15364 29.9992C7.15364 29.914 7.49428 29.9992 7.74977 29.9992C7.92009 29.9992 8.17559 30.1696 8.34591 30.1696C9.2827 30.2548 10.1343 30.34 11.0711 30.34C12.2634 30.4252 13.3705 30.4252 14.5627 30.5104C14.9886 30.5104 15.4144 30.4252 15.8402 30.4252C16.1808 30.4252 16.6066 30.4252 17.0324 30.4252C18.1396 30.4252 19.2467 30.34 20.3538 30.34C21.6312 30.34 22.9086 30.34 24.2712 30.34C24.7822 30.34 25.208 30.34 25.719 30.34C25.9745 30.34 26.4003 30.5104 26.5706 31.1067Z" fill="black"/>
<path d="M46.3278 37.6667C47.1795 37.6667 47.9459 37.6667 48.7975 37.6667C50.1601 37.7519 51.5227 37.8371 52.8853 37.9223C54.5886 38.0075 56.2918 38.0075 57.9951 38.0075C59.017 38.0075 60.1241 37.8372 61.1461 37.752C61.3164 37.752 61.4867 37.6667 61.5719 37.6667C62.9345 37.6667 64.2971 37.6667 65.5745 37.6667C66.0003 37.6667 66.5113 37.8371 66.9371 37.9223C67.0223 37.9223 67.1074 38.0927 67.1926 38.1779C67.1074 38.2631 67.0223 38.3483 66.9371 38.4335C66.8519 38.4335 66.6816 38.4335 66.5113 38.4335C65.2339 38.3483 63.8713 38.2631 62.5938 38.2631C61.4867 38.2631 60.3796 38.3483 59.1873 38.4335C58.3357 38.4335 57.4841 38.3483 56.6325 38.3483C55.9512 38.3483 55.2699 38.4335 54.5034 38.4335C53.8221 38.4335 53.226 38.4335 52.5447 38.4335C51.4376 38.3483 50.2453 38.1779 49.1382 38.1779C48.5421 38.0927 47.9459 38.1779 47.3498 38.0927C46.924 38.0075 46.5833 37.8371 46.2427 37.6667C46.3278 37.7519 46.3278 37.7519 46.3278 37.6667Z" fill="black"/>
<path d="M8.09068 41.5859C7.92035 40.9043 8.00552 40.9043 8.60165 40.9043C9.19779 40.9895 9.79393 40.9043 10.3901 40.9043C11.5823 40.8191 12.7746 40.7339 13.9669 40.7339C15.2443 40.6487 16.5218 40.6487 17.7992 40.6487C20.1837 40.5635 22.4831 40.4783 24.8677 40.4783C26.0599 40.4783 27.1671 40.3931 28.3593 40.3931C28.5297 40.3931 28.6148 40.3931 28.7851 40.3931C28.9555 40.4783 29.0406 40.6487 29.211 40.8191C29.0406 40.9043 28.9555 40.9895 28.7851 40.9895C27.678 40.9895 26.4858 41.0747 25.3786 41.0747C24.1012 41.0747 22.8238 41.0747 21.5463 40.9895C21.0354 40.9895 20.5244 40.8191 20.0134 40.8191C18.9915 40.8191 17.8844 40.8191 16.8624 40.8191C16.0108 40.8191 15.2443 40.9895 14.3927 41.0747C13.8817 41.1599 13.3707 41.1599 12.8598 41.1599C12.3488 41.1599 11.7527 41.245 11.2417 41.245C10.4752 41.245 9.70876 41.3303 8.9423 41.3303C8.60165 41.4155 8.34616 41.5007 8.09068 41.5859Z" fill="black"/>
<path d="M13.626 48.7426C13.7963 48.8278 13.8815 48.913 13.9666 48.9981V48.9129C13.115 48.9129 12.2634 48.9129 11.3266 48.9129C9.36785 48.9129 7.32396 49.0834 5.36522 49.0834C4.08779 49.0834 2.89552 48.913 1.61809 48.8278C1.53293 48.1462 1.53292 47.5498 1.44775 46.8682C1.87357 46.783 2.38454 46.783 2.81036 46.6978C4.76909 46.6126 6.64265 46.6126 8.60138 46.5274C9.70849 46.5274 10.8156 46.4422 11.9227 46.357C12.6892 46.357 13.3705 46.2718 14.1369 46.2718C16.0105 46.1866 17.8841 46.1014 19.7576 46.1014C20.4389 46.1014 21.1202 46.2718 21.8015 46.2718C24.1009 46.2718 26.4003 46.1866 28.6997 46.1014C29.1255 46.1014 29.4661 46.1866 29.892 46.1866C30.4881 46.1866 31.1694 46.1014 31.7655 46.1014C33.8946 46.1014 36.1088 46.1014 38.2379 46.1866C39.0043 46.1866 39.6856 46.357 40.4521 46.357C40.7076 46.357 40.9631 46.2718 41.2186 46.2718C43.3476 46.2718 45.5618 46.357 47.6909 46.357C48.1167 46.357 48.5425 46.357 48.9683 46.4422C50.7567 46.5274 52.5451 46.6126 54.3335 46.783C55.611 46.8682 56.8032 47.0386 58.0807 47.1238C59.3581 47.209 60.7207 47.1238 61.9982 47.209C62.8498 47.209 63.6162 47.3794 64.4679 47.4646C64.6382 47.4646 64.8085 47.4646 64.9788 47.4646C66.6821 47.4646 68.4705 47.4646 70.1737 47.4646C70.855 47.4646 70.9402 47.5498 70.9402 48.2314C70.9402 49.5093 70.9402 49.5945 69.6628 49.5093C68.1298 49.5093 66.5118 49.4241 64.9788 49.3389C63.2756 49.2537 61.5723 49.1685 59.9543 49.0834C58.3362 48.9982 56.6329 48.8278 55.0148 48.8278C53.8226 48.8278 52.7154 48.9129 51.5232 48.9129C50.1606 48.9129 48.7128 48.9981 47.3502 48.9981C46.158 48.9981 44.8805 48.9981 43.6883 48.9129C41.474 48.8277 39.2598 48.8278 37.1307 48.7426C35.4275 48.6574 33.7243 48.6574 32.1062 48.5722C29.1255 48.487 26.0597 48.4018 23.079 48.4018C21.4609 48.4018 19.8428 48.5722 18.2247 48.6574C17.7138 48.6574 17.2028 48.6574 16.6918 48.6574C15.4995 48.6574 14.6479 48.6574 13.626 48.7426Z" fill="white"/>
<path d="M39.0901 40.3081C39.1752 41.5009 37.8126 42.0973 36.7907 41.8417C36.1094 41.6713 35.3429 41.4157 34.6616 41.0749C34.321 40.9045 34.0655 40.6489 33.8951 40.3933C33.6397 40.0525 33.8952 39.2857 34.4061 39.0301C34.9171 38.7746 35.3429 38.4338 36.0242 38.519C36.1945 38.519 36.45 38.4338 36.6203 38.3486C37.9829 37.8374 39.0901 38.6042 39.0901 40.0525C39.0901 40.2229 39.0901 40.2229 39.0901 40.3081Z" fill="white"/>
<path d="M36.5352 35.9629C36.961 35.3665 37.4719 34.8554 37.8126 34.3442C38.0681 34.0034 38.2384 33.4922 38.579 33.2366C38.8345 32.981 39.2603 32.8106 39.601 32.7254C40.0268 32.6402 40.1971 32.8106 40.1119 33.2366C40.0268 33.5774 39.8565 34.0034 39.6861 34.3442C39.4307 34.9406 39.2603 35.4517 39.0049 36.0481C38.8345 36.4741 38.4939 36.5593 38.0681 36.4741C37.6423 36.3037 37.1313 36.1333 36.5352 35.9629Z" fill="#9A82F9"/>
<path d="M34.3204 41.8417C34.5758 41.9269 34.9165 42.0973 35.172 42.1825C35.2572 42.1825 35.2572 42.438 35.172 42.5232C34.9165 42.7788 34.661 43.0344 34.4055 43.2048C34.3204 43.29 34.0649 43.2048 33.9797 43.1196C33.8945 43.0344 33.8945 42.864 33.8945 42.6937C33.9797 42.5233 34.15 42.2677 34.3204 41.8417Z" fill="#9A82F9"/>
<path d="M27.7633 44.2271C26.4859 44.2271 25.3788 44.2271 24.1865 44.2271C24.1865 44.1419 24.1865 44.0567 24.1865 43.9715C25.3788 43.9715 26.5711 43.8011 27.7633 44.2271Z" fill="white"/>
<path d="M37.4715 37.241C37.0457 37.241 36.5347 37.3262 36.1089 37.3262C36.1089 36.6446 36.4495 36.5594 37.4715 37.0706C37.4715 37.0706 37.4715 37.1558 37.4715 37.241Z" fill="#9A82F9"/>
<path d="M21.8867 44.142C22.2274 44.142 22.6531 44.142 22.9938 44.142V44.2272C22.6531 44.2272 22.2274 44.2272 21.8867 44.2272C21.8867 44.142 21.8867 44.142 21.8867 44.142Z" fill="white"/>
<path d="M12.9448 38.2632C15.9255 37.8372 18.821 37.8372 21.8017 38.2632C21.8017 38.3484 21.8017 38.4336 21.8017 38.4336C18.821 38.4336 15.8403 38.3484 12.9448 38.2632Z" fill="white"/>
</svg>
