<svg width="72" height="72" viewBox="0 0 72 72" fill="none" xmlns="http://www.w3.org/2000/svg">
<path d="M6.18588 68.7812C6.18588 68.6829 6.18588 68.5847 6.18588 68.3882C6.28407 67.7988 5.89129 67.3076 5.79309 66.8165C5.79309 66.7182 5.6949 66.5218 5.6949 66.4235C5.6949 66.1288 5.69491 65.8341 5.49852 65.4412C5.30213 65.1464 5.40032 64.6553 5.49852 64.2623C5.59671 63.3782 5.6949 62.5923 5.79309 61.7082C5.79309 61.4135 5.79309 61.217 5.79309 60.9223C5.89129 60.4311 5.5967 60.1364 5.30212 59.9399C4.81114 59.4488 4.61476 58.9576 4.41837 58.2699C4.32017 57.877 4.12378 57.5823 3.82919 57.2875C3.6328 57.0911 3.43642 56.7964 3.53462 56.5017C3.53462 56.0105 3.53462 55.5193 3.53462 55.0281C3.53462 54.7334 3.33822 54.4387 3.24003 54.144C3.14183 53.9475 3.04364 53.7511 3.04364 53.4564C3.04364 52.7687 2.94545 52.081 3.04364 51.4916C3.14184 50.9022 3.33822 50.3128 3.33822 49.7234C3.33822 49.5269 3.43642 49.3304 3.53462 49.0357C3.53462 49.0357 3.43641 48.9375 3.33822 48.8392C3.82919 48.6428 3.82919 48.2498 3.82919 47.8569C3.82919 47.5622 4.02558 47.1692 4.12378 46.8745C4.32017 46.2851 4.61476 45.7939 4.51657 45.1063C4.41837 44.6151 4.81115 44.2222 5.00754 43.8292C5.20393 43.4363 5.40031 42.9451 5.5967 42.4539C5.79309 42.061 6.08768 41.5698 6.28407 41.1769C6.48046 40.8821 6.57865 40.5874 6.77504 40.2927C6.87324 40.1945 7.06963 40.0962 7.16783 39.998C7.06963 39.1139 7.56061 38.4262 7.95339 37.7386C8.34617 37.1492 8.64075 36.5598 9.22992 36.1668C9.32811 36.0686 9.32812 35.8721 9.32812 35.7739C9.6227 35.3809 9.91729 35.0862 10.1137 34.6933C10.4083 34.0056 11.0956 33.6127 11.3902 32.925C11.5866 32.6303 11.8812 32.4338 11.9794 32.1391C12.274 32.0409 12.6667 32.0409 12.6667 31.5497C12.6667 31.4515 12.7649 31.4515 12.8631 31.3533C13.1577 31.0585 13.5505 30.6656 13.9433 30.3709C14.0415 30.2727 14.2379 30.2726 14.4343 30.1744C14.3361 29.585 14.5324 29.0938 15.1216 28.8974C15.2198 28.8974 15.2198 28.7991 15.318 28.7991C15.4162 28.7009 15.6126 28.5044 15.7108 28.4062C15.809 27.8168 16.6927 27.0309 17.3801 27.0309C17.4783 26.7362 17.4783 26.3432 17.5765 26.0485C17.9693 25.1644 17.6747 24.182 18.0675 23.2979C18.2639 22.9049 18.5585 22.512 18.7548 22.0208C18.7548 21.9226 18.7548 21.8244 18.7548 21.7261C18.853 21.235 18.853 20.7438 18.9512 20.2526V20.1544C19.4422 20.1544 19.344 19.6632 19.344 19.3685C19.2458 18.779 19.7368 18.3861 19.9332 17.8949C20.0314 17.502 20.326 17.2073 20.326 16.8143C20.326 16.6179 20.5223 16.5196 20.6205 16.3232C20.8169 16.0285 21.0133 15.832 21.2097 15.5373C21.3079 15.439 21.3079 15.3408 21.3079 15.2426C21.4061 14.6531 21.7007 14.2602 22.0935 13.8673L22.1917 13.769C22.2899 12.9831 22.879 12.5902 23.1736 12.0008C23.4682 11.6078 23.861 11.3131 24.1556 10.9202C24.4502 10.5272 24.5483 10.1343 24.8429 9.74134L24.7447 9.64309C24.9411 9.64309 25.1375 9.64309 25.3339 9.54485C25.4321 9.15191 25.8249 8.85722 26.2177 8.85722C26.3158 8.85722 26.5122 8.85721 26.5122 8.75898C27.1014 8.16956 27.887 7.58016 28.5743 6.99074C29.0653 6.5978 29.7527 6.40132 30.2437 5.91014C30.6364 5.51719 31.1274 5.41895 31.6184 5.22247C31.7166 5.12424 31.8148 5.02601 32.0112 4.92778C32.6003 4.73131 33.1895 4.53483 33.7787 4.33836C34.8588 3.94541 36.0372 4.04366 37.1173 4.04366C37.4119 4.04366 37.8047 3.94542 38.0011 4.04366C38.5902 4.53484 39.3758 4.04365 40.0632 4.4366C40.1614 4.4366 40.2595 4.4366 40.2595 4.4366C40.8487 4.33836 41.2415 4.7313 41.7325 4.82954C42.3216 5.02601 42.9108 5.12424 43.5 5.32072C43.6964 5.41895 43.7946 5.51718 43.991 5.61541C44.5801 5.71365 44.8747 6.20485 45.3657 6.40132C45.5621 6.49955 45.7585 6.69603 45.8567 6.8925C46.1512 7.28544 46.8386 7.38367 47.035 7.77662C47.3296 8.16956 47.7224 8.16955 48.0169 8.56249C48.2133 8.95544 48.7043 9.25015 49.0971 9.64309C49.1953 9.74133 49.2935 9.9378 49.3917 10.1343C49.6863 10.7237 50.079 11.3131 50.57 11.8043C50.8646 12.099 50.8646 12.4919 51.1592 12.7867C51.552 13.1796 51.3556 13.6708 51.6502 13.9655C52.0429 14.4567 52.1411 15.1443 52.5339 15.6355C52.5339 15.7337 52.5339 15.832 52.5339 15.9302C52.5339 16.1267 52.7303 16.3231 52.7303 16.4214C52.9267 16.9126 53.4177 17.2073 53.4177 17.7967C53.4177 18.0914 53.6141 18.4844 53.7123 18.7791C53.9086 19.172 54.2032 19.4667 54.3014 19.8596C54.3996 20.1543 54.3996 20.5473 54.4978 20.9402C54.4978 21.1367 54.3996 21.4314 54.7924 21.5297C54.6942 21.7261 55.087 21.9226 54.7924 22.2173C54.6942 22.3156 54.7924 22.512 54.7924 22.512C55.1852 22.8067 55.087 23.3961 55.3816 23.7891C55.7743 24.2803 55.578 24.8697 55.6762 25.3609C55.7744 25.9503 55.7743 26.5397 55.8725 27.0309C55.8725 27.1291 55.9707 27.1291 56.0689 27.2273C56.3635 27.4238 56.6581 27.522 56.9527 27.7185C57.2473 27.915 57.5419 28.2097 57.9346 28.4062C58.131 28.5044 58.3274 28.6026 58.4256 28.7991C58.8184 28.9956 59.113 29.2903 59.4076 29.585C59.604 29.7815 59.8004 30.0762 59.9967 30.1744C60.4877 30.6656 61.0769 30.9603 61.5679 31.4515C61.9606 31.8444 62.3534 32.2374 62.7462 32.6303C63.139 33.0233 63.63 33.4162 63.8263 33.8092C64.1209 34.3003 64.7101 34.4968 64.8083 35.0862C64.8083 35.2827 65.1029 35.3809 65.2011 35.4792C65.4957 35.8721 65.7902 36.3633 66.0848 36.7562C66.3794 37.2474 66.674 37.8368 66.9686 38.328C67.0668 38.4263 66.9686 38.5245 66.9686 38.721C66.9686 38.8192 67.0668 38.9174 67.165 39.0156C67.4595 39.2121 67.6559 39.5069 67.7541 39.8998C67.7541 40.1945 68.0487 40.5874 68.1469 40.8822C68.2451 41.1769 68.3433 41.3733 68.4415 41.668C68.3433 41.8645 68.0487 42.1592 68.4415 42.3557V42.4539C68.5397 42.9451 68.5397 43.5345 68.6379 44.0257C68.6379 44.4186 68.5397 44.7133 68.8343 45.1063C68.9325 45.2045 68.9325 45.401 68.9325 45.4992C68.9325 46.0886 68.9325 46.6781 68.9325 47.2675C68.9325 47.464 68.8343 47.6604 68.7361 47.7587C68.7361 47.8569 68.7361 48.0534 68.6379 48.2499C68.5397 48.9375 68.5397 49.6251 68.4415 50.3128C68.4415 50.411 68.2451 50.5093 68.1469 50.6075C68.2451 50.7057 68.3433 50.7058 68.3433 50.7058C68.2451 51.0005 68.1469 51.1969 68.1469 51.3934C68.0487 51.6881 68.0487 51.9828 67.9505 52.2775C67.9505 52.3757 67.9505 52.3758 67.9505 52.474C68.3433 52.7687 67.7542 52.9652 67.8523 53.2599C67.5578 53.2599 67.6559 53.5546 67.6559 53.6528C67.5577 53.8493 67.4596 54.0458 67.3614 54.2422C67.2632 54.4387 67.2632 54.6352 67.165 54.8316C67.165 54.9299 67.0668 55.0281 66.9686 55.2246C66.7722 55.7158 66.2812 56.1087 66.2812 56.6981C66.2812 57.2875 66.183 57.7787 66.2812 58.3682C66.3794 58.8593 66.2812 59.2523 66.3794 59.6452C66.4776 60.0382 66.2812 60.5294 66.2812 61.0205C66.2812 61.5117 66.3794 62.0029 66.3794 62.5923C66.4776 62.9852 66.2812 63.1817 66.0848 63.3782C65.9866 63.3782 65.9866 63.5746 65.9866 63.5746C66.3794 64.1641 66.3794 64.2623 65.7902 64.8517C65.9866 65.2447 66.0848 65.6376 65.7902 66.0305C65.6921 66.1288 65.6921 66.4235 65.7902 66.62C65.8884 67.1111 65.4957 67.5041 65.2993 67.9953C65.2993 68.0935 65.2011 68.0935 65.0047 68.1917C64.9065 67.2094 64.8083 66.3253 64.8083 65.4412C64.8083 64.8517 64.8083 64.1641 64.8083 63.5746C64.7101 62.9852 64.5137 62.3958 64.4155 61.7082C64.4155 61.6099 64.4155 61.5117 64.4155 61.3152C64.3173 60.9223 64.6119 60.5293 64.2191 60.2346C64.1209 60.1364 64.2191 59.9399 64.2191 59.7435C64.2191 59.3505 63.8263 59.0558 63.5318 59.154C63.4336 59.154 63.3354 59.3505 63.2372 59.4488C62.9426 59.6452 62.5498 59.7435 62.2552 59.9399C61.4697 60.3329 60.5859 60.2346 59.8003 60.4311C59.2112 60.5294 58.7202 60.7258 58.131 60.6276C57.7383 60.6276 57.3455 60.4311 56.9527 60.3329C56.8545 60.3329 56.8545 60.2346 56.8545 60.2346C56.5599 60.2346 56.1671 60.3329 55.9707 59.9399C55.2834 60.0382 54.6942 59.7435 54.105 59.4488C53.9087 59.3505 53.6141 59.4487 53.4177 59.154C53.3195 58.9576 52.9267 59.0558 52.6321 58.9576C52.2393 58.8593 51.8465 58.7611 51.4538 58.6628C50.9628 58.4664 50.57 58.2699 50.079 58.0735C49.9809 57.9752 49.7845 57.9752 49.5881 57.7787C49.8827 58.2699 49.6863 58.7611 50.079 59.154C50.3736 59.4487 50.079 60.0382 49.6863 60.1364C49.3917 60.1364 49.0971 60.2346 48.9007 60.3329C48.7043 60.4311 48.6061 60.6276 48.6061 60.8241C48.5079 61.5117 48.4097 62.1994 48.4097 62.9853C48.4097 63.1817 48.5079 63.4764 48.6061 63.6729C48.7043 63.9676 48.6061 64.2623 48.2133 64.2623C47.6242 64.2623 47.035 64.1641 46.4458 64.0658C46.2494 64.0658 46.1512 64.0658 45.9549 64.0658C45.7585 64.6552 45.5621 65.3429 45.0711 65.6376C44.9729 65.9323 44.8747 66.227 44.6783 66.4235C44.2855 66.8165 44.0892 67.4059 43.991 67.897C43.8928 68.0935 43.8928 68.3882 43.5 68.3882C43.4018 68.3882 43.3036 68.4865 43.2054 68.5847C42.9108 68.8794 42.518 68.8794 42.2234 68.6829C42.1252 68.5847 41.9289 68.5847 41.8307 68.5847C41.4379 68.4865 40.9469 68.5847 40.5541 68.3882C39.965 68.0935 39.3758 68.0935 38.7866 67.897C38.1974 67.6023 37.5101 67.7988 36.9209 67.5041C35.939 67.0129 34.957 67.3076 33.9751 67.2094C33.4841 67.1111 32.9931 67.2094 32.6003 66.8165H32.5021C31.8148 66.62 31.1274 66.62 30.44 66.3253C29.9491 66.1288 29.4581 65.9323 28.8689 65.9323C28.5743 65.9323 28.2798 65.6376 27.9852 65.5394C27.396 65.3429 27.5924 64.8517 27.4942 64.4588C27.4942 64.0658 27.396 63.6729 27.396 63.3782C27.396 63.1817 27.4942 62.9852 27.4942 62.6905C27.396 62.5923 27.1996 62.4941 27.0032 62.4941C26.5122 62.4941 26.3159 62.2976 26.3159 61.8064C26.3159 61.4135 26.3159 60.9223 26.3159 60.5294C26.3159 60.2346 26.5122 59.8417 26.6104 59.547C26.6104 59.4488 26.5122 59.2523 26.5122 59.154C26.5122 58.8593 26.414 58.5646 26.5122 58.2699C26.5122 58.0734 26.7086 57.9752 26.7086 57.7787C26.7086 56.8946 26.7086 56.1087 26.7086 55.2246C26.3158 55.1264 26.0213 55.3228 25.8249 55.814C25.7267 56.1087 25.5303 56.3052 25.1375 56.3052C25.1375 56.4034 25.1375 56.5999 25.0393 56.6981C24.9411 56.6981 24.8429 56.6981 24.7447 56.6981C24.2538 56.8946 23.861 57.0911 23.37 57.1893C23.0754 57.1893 22.7808 57.484 22.5844 57.6805C22.1917 57.9752 21.7989 58.0734 21.6025 58.4664C21.5043 58.5646 21.2097 58.5646 21.1115 58.6628C20.4242 59.154 19.7368 59.547 18.853 59.6452C18.6566 59.6452 18.5584 59.8417 18.3621 59.9399C18.0675 60.1364 17.8711 60.3329 17.5765 60.5294C17.4783 60.6276 17.3801 60.6276 17.2819 60.6276C16.9873 60.6276 16.6927 60.7258 16.4964 61.0205C16.4964 61.1188 16.3 61.217 16.2018 61.217C15.5144 61.3152 14.9252 61.6099 14.2379 61.8064C13.5505 62.0029 12.9613 61.8064 12.274 62.0029C11.6848 62.1994 11.0956 62.1011 10.6047 62.1011C10.0155 62.1011 9.42631 62.0029 8.83714 61.9047C8.64075 61.9047 8.44436 61.7082 8.24797 61.6099C7.95338 61.5117 7.75699 61.4135 7.5606 61.7082C7.16782 62.1011 6.87324 62.3958 6.87324 63.0835C6.97144 63.7711 6.87324 64.4588 6.87324 65.1464C6.87324 65.4411 7.06963 65.8341 6.67685 66.0305C6.67685 66.0305 6.67685 66.227 6.67685 66.3253C6.67685 67.0129 6.67685 67.6023 6.67685 68.29C6.67685 68.3882 6.67685 68.3882 6.57865 68.4864C6.28407 68.7812 6.18588 68.7812 6.18588 68.7812ZM10.4083 36.0686C10.3101 36.4615 10.2119 36.8545 10.0155 37.1492C10.0155 37.1492 9.91729 37.2474 9.81909 37.2474C9.7209 37.3456 9.6227 37.4439 9.6227 37.5421C9.42631 37.8368 9.32811 38.2298 9.22992 38.5245C8.83714 39.2121 8.44436 39.8016 8.05158 40.391C7.75699 40.8822 7.6588 41.4716 7.06963 41.7663C6.97143 41.7663 6.97144 41.9627 6.97144 41.9627C6.97144 42.061 6.87324 42.1592 6.87324 42.1592C6.38227 42.3557 6.18588 42.8469 5.98949 43.3381C5.7931 43.8292 5.69491 44.4186 5.49852 44.9098C5.30213 45.5975 5.20393 46.1869 5.00754 46.8745C4.90935 47.071 5.00753 47.3657 4.81114 47.5622C4.41836 47.9551 4.51656 48.4463 4.41837 48.9375C4.32017 49.9198 4.41837 50.804 4.41837 51.7863C4.51656 51.7863 4.61475 51.8846 4.81114 51.8846C4.32017 52.081 4.02559 52.6705 4.22198 52.8669C4.61476 53.2599 4.41837 53.6528 4.41837 53.9475C4.41837 54.2422 4.41837 54.4387 4.51657 54.7334C4.61476 55.1264 5.10573 55.4211 4.71295 55.814C4.71295 55.814 4.81114 56.0105 4.81114 56.1087C4.81114 56.207 4.90934 56.207 4.90934 56.3052C4.90934 56.8946 5.30213 57.3858 5.49852 57.877C5.59671 58.2699 5.8913 58.5646 5.98949 58.9576C6.08769 59.547 6.57866 59.7435 6.87324 60.0382C7.06963 60.2346 7.36422 60.4311 7.6588 60.5294C7.95339 60.7258 8.24797 61.0205 8.54255 61.1187C9.03353 61.3152 9.6227 61.3152 10.2119 61.3152C10.8992 61.217 11.6848 61.217 12.3722 60.9223C12.9613 60.7258 13.5505 60.7258 14.1397 60.4311C14.5324 60.2346 15.0234 60.1364 15.318 59.9399C15.7108 59.6452 16.2018 59.3505 16.6927 59.2523C17.3801 59.0558 18.0675 58.6629 18.6566 58.3682C18.853 58.2699 19.0494 58.2699 19.1476 58.1717C19.6386 57.877 20.1296 57.5823 20.6205 57.2875L20.7187 57.1893C21.0133 56.9928 21.3079 56.7964 21.6025 56.5017C22.0935 56.1087 22.6826 55.814 23.1736 55.4211C23.4682 55.2246 23.7628 54.9299 24.0574 54.7334C24.352 54.5369 24.5483 54.3405 24.8429 54.0458C25.0393 53.8493 25.3339 53.6528 25.5303 53.5546C25.9231 53.2599 26.6104 53.0634 26.5122 52.2775C27.1996 52.5722 27.396 51.9828 27.7888 51.6881C28.2798 51.2952 28.5743 50.9022 28.9671 50.5093C28.5743 50.1163 28.0834 49.7234 27.6906 49.3304C27.396 49.0357 27.0032 48.6428 26.8068 48.2499C26.6104 47.8569 26.4141 47.3657 26.3159 46.9728C26.2177 46.3834 26.2177 45.7939 26.1195 45.2045C26.1195 45.1063 26.0213 45.008 25.9231 44.9098C26.1195 44.7133 26.4141 43.1416 26.3159 42.5522C26.2177 42.5522 26.0213 42.5522 25.9231 42.5522C25.7267 42.6504 25.5303 42.8469 25.3339 42.9451C24.8429 43.1416 24.352 43.338 23.861 43.6328C23.7628 43.731 23.6646 43.731 23.5664 43.8292C23.1736 44.0257 22.879 44.2222 22.4862 44.3204C22.2899 44.4187 21.9953 44.5169 21.7989 44.6151C21.5043 44.7133 21.3079 44.8116 21.0133 44.9098C20.8169 45.008 20.5224 44.9098 20.4242 45.008C19.9332 45.401 19.5404 45.2045 19.0494 45.008C18.6566 45.401 18.2639 45.2045 17.7729 45.2045C17.8711 45.1063 17.8711 45.008 17.9693 45.008C18.5584 44.6151 19.2458 45.0081 19.835 44.6151C20.1296 44.4186 20.5223 44.4186 20.8169 44.2222C21.2097 43.9275 21.7989 43.731 22.2899 43.5345C22.3881 43.5345 22.4862 43.5345 22.4862 43.4363C22.879 43.1416 23.37 42.8469 23.7628 42.5522C24.0574 42.3557 24.352 42.1592 24.1556 41.7663C24.0574 41.4716 23.9592 41.1768 23.861 41.0786C23.2718 40.6857 22.7808 40.2927 22.1917 40.1945C21.7007 39.998 21.5043 39.6051 21.3079 39.2121C21.1115 38.8192 21.1115 38.328 20.8169 37.9351C20.6205 37.6404 20.4242 37.3456 20.2278 37.0509C20.0314 36.7562 19.7368 36.3633 19.5404 35.9704C19.344 35.6756 19.1476 35.3809 19.2458 34.988C19.2458 34.7915 19.1476 34.4968 19.0494 34.3003C18.853 33.9074 18.5584 33.6127 18.3621 33.2197C18.1657 32.6303 18.1657 32.1392 17.8711 31.5497C17.6747 31.255 17.7729 30.8621 17.6747 30.4691C17.5765 29.7815 17.4783 29.1921 17.3801 28.5044H17.2819C17.2819 28.6027 17.2819 28.7991 17.1837 28.8974C16.4964 29.3885 15.9072 29.7815 15.2198 30.2727C15.0234 30.4691 14.827 30.6656 14.6306 30.8621C14.5324 30.9603 14.4343 31.0585 14.2379 31.1568C14.0415 31.4515 13.7469 31.7462 13.5505 32.0409C13.3541 32.2374 13.2559 32.5321 13.0595 32.7286C12.8631 32.925 12.7649 33.1215 12.5686 33.318C12.274 33.6127 12.274 34.2021 11.783 34.2021C11.4884 34.595 11.3902 34.8897 11.0956 35.1845C10.8992 35.6756 10.9974 36.265 10.4083 36.0686ZM49.3917 39.1139C49.2935 39.6051 49.2935 40.0962 49.1953 40.4892C49.1953 40.5874 49.0971 40.6857 48.9989 40.6857C48.7043 40.8821 48.8025 41.4716 48.9989 41.5698C49.2935 41.668 49.5881 41.668 49.8827 41.9627C49.9809 42.1592 50.2754 42.1592 50.4718 42.2575C51.061 42.4539 51.6502 42.6504 52.2393 42.7486C52.4357 42.8469 52.6321 42.7486 52.7303 42.9451C52.9267 43.2398 53.2213 43.3381 53.6141 43.3381C54.4978 43.4363 55.4798 43.0433 56.2653 43.6328C56.4617 43.731 56.6581 43.8292 56.8545 43.9274C56.8545 44.0257 56.8545 44.0257 56.8545 44.1239C56.6581 44.2222 56.3635 44.2222 56.1671 44.3204C55.9707 44.3204 55.7744 44.3204 55.578 44.3204C55.4798 44.3204 55.2834 44.3204 55.1852 44.3204C54.9888 44.3204 54.6942 44.2222 54.4978 44.2222C53.7123 44.1239 52.9267 44.4186 52.1411 43.9274C51.8466 43.731 51.3556 43.8292 51.061 43.731C50.6682 43.6328 50.2754 43.5345 49.8827 43.4363C49.6863 43.338 49.4899 43.3381 49.2935 43.2398C48.8025 43.0433 48.4097 42.7486 47.9188 42.5522C47.7224 42.4539 47.526 42.4539 47.3296 42.3557C47.1332 42.2575 47.035 42.1592 46.7404 42.061C46.7404 42.2574 46.7404 42.3557 46.7404 42.3557C46.9368 42.7486 47.2314 43.1416 47.2314 43.6328C47.2314 44.0257 47.3296 44.4187 47.035 44.8116C46.8386 45.1063 46.8386 45.5975 46.6422 45.9904C46.4458 46.6781 46.1512 47.3657 45.8567 48.0534C45.6603 48.1516 45.2675 48.4463 44.8747 48.6428C44.7765 49.3304 44.5801 49.5269 43.8928 49.7234C43.7946 49.7234 43.6964 49.8216 43.5982 49.9198C43.4018 50.1163 43.1072 50.3128 42.9108 50.5093C42.8126 50.6075 42.8126 50.7057 42.9108 50.804C43.5982 51.3934 44.3837 51.9828 45.0711 52.6705C45.3657 52.8669 45.6603 53.1616 45.8567 53.4564C46.1512 54.144 46.6422 54.4387 47.1332 54.7334C47.4278 54.9299 47.7224 55.0281 47.9188 55.3228C48.4097 55.9122 49.1953 56.2069 49.8827 56.6981C50.3736 57.0911 50.8646 57.2875 51.3556 57.6805C51.552 57.7787 51.8466 58.0735 52.0429 58.0735C52.7303 58.1717 53.3195 58.3681 54.0068 58.6628C54.2032 58.7611 54.3996 58.8593 54.596 58.9576C54.7924 59.0558 55.087 59.0558 55.2834 59.154C55.6762 59.4487 55.9707 59.6452 56.4617 59.547C56.5599 59.547 56.6581 59.547 56.6581 59.547C56.7563 59.8417 56.9527 59.7435 57.1491 59.7435C57.9346 59.6452 58.7202 59.8417 59.5058 59.547C60.0949 59.3505 60.6841 59.3505 61.2733 59.0558C61.7642 58.7611 62.3534 58.6628 62.648 58.1717C62.7462 57.9752 62.9426 57.7787 63.139 57.6805C63.4336 57.484 63.8263 57.2876 64.1209 56.9929C64.3173 56.7964 64.5137 56.5017 64.7101 56.2069C64.9065 55.9122 65.1029 55.6175 65.3975 55.3228C65.5939 55.0281 65.7902 54.7334 65.8884 54.4387C65.9866 53.8493 66.4776 53.4563 66.3794 52.8669C66.3794 52.6705 66.4776 52.3758 66.5758 52.0811C66.674 51.6881 66.9686 51.3934 66.9686 51.0005C66.9686 49.4287 66.9686 47.8569 66.9686 46.2851C66.9686 46.1869 66.9686 45.9904 66.9686 45.8922C66.8704 45.3028 66.674 44.6151 66.5758 44.0257C66.4776 43.5345 66.5758 42.9451 66.2812 42.5522C65.9866 42.1592 66.0848 41.668 65.8884 41.1769C65.6921 40.7839 65.6921 40.2927 65.5939 39.8998C65.5939 39.7033 65.4957 39.6051 65.3975 39.4086C65.0047 38.9174 64.6119 38.4263 64.3173 37.9351C64.0227 37.4439 63.8263 36.9527 63.5318 36.4615C63.2372 35.9704 62.9426 35.5774 62.648 35.1845C62.4516 34.8897 62.2552 34.6933 62.157 34.3986C61.8624 34.0056 61.5679 33.5144 61.2733 33.1215C61.1751 32.925 60.9787 32.8268 60.7823 32.6303C60.4877 32.2374 60.0949 31.9427 59.8003 31.5497C59.4076 31.1568 59.113 30.8621 58.7202 30.4691C58.3274 30.0762 58.0328 29.585 57.5419 29.2903C57.0509 28.8973 56.4617 28.6027 56.0689 28.1115C55.9707 28.0132 55.7744 28.0132 55.578 27.915C55.6762 28.1115 55.7744 28.3079 55.6762 28.4062C55.2834 28.7009 55.4798 29.1921 55.2834 29.585C54.8906 30.2727 54.8906 31.1568 54.7924 31.9427C54.6942 32.4339 54.6942 33.0233 54.596 33.5145V33.6127C54.2032 34.1038 53.9086 34.595 53.9086 35.0862C53.6141 35.3809 53.3195 35.5774 53.1231 35.7739C53.0249 35.8721 53.0249 36.1668 52.9267 36.1668C52.3375 36.3633 52.4357 37.3457 51.6502 37.3457C51.3556 37.7386 51.061 38.2298 50.7664 38.6227C50.6682 38.7209 50.6682 38.8192 50.57 38.8192C50.1772 39.0157 49.8826 39.3104 49.4899 38.8192C49.4899 39.1139 49.3917 39.1139 49.3917 39.1139ZM29.5563 65.1464C30.0473 65.0482 30.44 64.8517 30.8328 64.8517C31.3238 64.95 31.7166 64.557 32.2076 64.4588C32.5021 64.3606 32.7967 64.1641 33.1895 64.1641C33.6805 64.0658 34.0733 64.0658 34.5642 63.9676C34.6624 63.9676 34.6624 63.9676 34.7606 63.8694C35.1534 63.4764 35.5462 63.3782 36.1354 63.3782C36.3317 63.3782 36.5281 63.2799 36.7245 63.2799C37.0191 63.1817 37.3137 63.0835 37.6083 62.9853C38.1975 62.7888 38.7866 62.887 39.3758 62.7888C39.8668 62.6905 40.4559 62.5923 40.9469 62.4941C41.0451 62.4941 41.0451 62.3958 41.1433 62.2976C41.4379 62.1011 41.7325 61.9047 42.0271 61.9047C42.2234 61.8064 42.518 61.9046 42.6162 61.6099C42.6162 61.5117 42.7144 61.4135 42.8126 61.4135C43.5 61.5117 44.0892 61.217 44.7765 61.1187C45.0711 61.1187 45.3657 61.0205 45.4639 60.8241C45.6603 60.6276 45.8567 60.5294 46.053 60.5294C46.2494 60.5294 46.4458 60.6276 46.6422 60.2346C46.7404 60.0382 47.035 60.0382 47.3296 59.9399C47.4278 59.9399 47.6242 59.9399 47.7224 59.9399C47.7224 59.7435 47.8206 59.547 47.8206 59.4488C48.1151 59.3505 48.3115 59.3505 48.5079 59.154C48.8025 58.8593 48.8025 58.3682 48.3115 58.0735C48.1151 57.877 48.0169 57.7787 48.1151 57.484C48.1151 57.3858 48.017 57.0911 47.9188 57.0911C47.526 56.7964 47.1332 56.5999 46.7404 56.4034C46.544 56.3052 46.4458 56.1087 46.2494 55.9123C45.9549 55.7158 45.7585 55.5193 45.4639 55.3228C45.0711 54.9299 44.6783 54.537 44.1873 54.144C43.991 53.9475 43.6964 53.6528 43.5 53.4564C43.3036 53.1616 43.1072 52.8669 42.8126 52.5722C42.4198 52.1793 42.0271 51.8846 41.7325 51.5899C41.5361 51.4916 41.4379 51.3934 41.2415 51.1969C40.9469 50.804 40.6523 50.411 40.3577 50.0181C40.1614 49.7234 39.8668 49.4287 39.6704 49.0357C39.474 48.6428 39.1794 48.2499 39.0812 47.7587C38.983 47.2675 38.6884 46.7763 38.6884 46.1869C38.7866 45.3028 38.5902 44.4186 38.983 43.5345C39.1794 43.0433 39.3758 42.5522 39.3758 42.061C39.474 41.668 39.5722 41.3733 39.7686 41.0786C40.0632 40.6857 40.3577 40.5874 40.7505 40.6857C40.8487 40.6857 40.8487 40.6857 40.9469 40.5874C41.4379 40.2927 41.9289 40.1945 42.4198 40.1945C42.6162 40.1945 42.9108 40.1945 42.9108 40.2927C43.009 40.5874 43.3036 40.4892 43.5 40.4892C43.8928 40.4892 44.1873 40.4892 44.5801 40.5874C44.7765 40.5874 45.0711 40.6857 45.2675 40.7839C45.2675 40.6857 45.3657 40.6857 45.3657 40.5874C45.2675 40.391 44.9729 40.0963 45.0711 39.8998C45.1693 39.1139 44.6783 38.5245 44.5801 37.8368C44.3837 37.1492 44.2855 36.4615 43.991 35.7739C43.7946 35.2827 43.7946 34.6933 43.7946 34.1038C43.7946 34.0056 43.7946 33.8091 43.7946 33.7109C43.3036 33.7109 42.8126 33.8092 42.2234 33.8092C42.0271 34.2021 41.6343 34.0056 41.3397 34.1038C40.9469 34.2021 40.4559 34.2021 40.0632 34.3003C39.7686 34.3986 39.5722 34.595 39.2776 34.6933C38.8848 34.7915 38.492 34.5951 38.0993 34.988C37.7065 35.2827 37.2155 35.0862 36.7245 35.3809C36.3317 35.5774 35.8408 35.4792 35.3498 35.6756C34.5642 35.8721 33.7787 35.8721 32.9931 36.1668C32.4039 36.3633 31.8148 36.3633 31.1274 36.3633C31.0292 36.3633 30.8328 36.3633 30.7346 36.3633C30.5382 36.8545 30.0473 36.7562 29.6545 36.7562C29.5563 36.7562 29.3599 36.8545 29.2617 36.8545C29.0653 36.9527 28.7707 37.0509 28.5743 37.1492C28.4761 37.2474 28.2798 37.2474 28.1816 37.2474C27.887 37.4439 27.5924 37.7386 27.1996 37.8368C26.8068 37.9351 26.414 38.0333 25.9231 38.0333C25.3339 38.0333 24.6465 37.9351 24.0574 38.5245C24.1556 38.7209 24.3519 39.0157 24.4501 39.3104C24.6465 39.7033 24.8429 40.0962 25.0393 40.4892C25.1375 40.8821 25.2357 41.3733 25.3339 41.7663C25.4321 41.7663 25.6285 41.7663 25.7267 41.7663C26.0213 41.668 26.3158 41.4716 26.7086 41.3733C27.1014 41.2751 27.4942 41.0786 27.7888 41.0786C28.5743 40.9804 29.2617 40.8821 30.0473 40.9804C30.5382 40.9804 31.0292 41.1769 31.5202 41.3733C32.0112 41.5698 32.4039 41.8645 32.8949 42.061C33.0913 42.3557 33.2877 42.7486 33.4841 43.0433C33.5823 43.2398 33.7787 43.4363 33.7787 43.6328C33.6805 44.1239 34.0733 44.4187 34.1715 44.8116C34.1715 45.3028 34.0733 45.8922 34.0733 46.3833H33.9751C33.8769 46.4816 33.7787 46.5798 33.7787 46.6781C33.8769 47.1693 33.5823 47.5622 33.3859 47.9551C33.2877 48.0534 33.3859 48.2498 33.2877 48.3481C33.0913 48.6428 32.7967 48.9375 32.5021 49.3304C32.2076 49.8216 32.0112 50.3128 31.6184 50.7058C31.2256 51.0987 30.6364 51.3934 30.1455 51.5899C29.7527 51.7863 29.5563 51.9828 29.4581 52.2775C29.2617 52.6705 29.0653 52.9652 28.7707 53.2599C28.4761 53.5546 28.1816 53.8493 28.1816 54.2422C28.1816 54.6352 28.4761 55.0281 28.5743 55.5193C28.6725 55.9123 28.8689 56.3052 28.9671 56.7964C29.1635 57.6805 29.2617 58.5646 29.4581 59.3505C29.4581 59.6452 29.5563 59.8417 29.5563 60.1364C29.6545 60.5293 29.7527 60.824 29.8509 61.217C30.0473 62.1993 29.8509 63.2799 30.2437 64.1641C30.3419 64.3605 30.0473 64.6553 30.0473 64.8517H29.9491C29.9491 64.7535 29.9491 64.557 29.8509 64.4588C29.5563 64.2623 29.4581 63.8694 29.4581 63.5746C29.4581 63.1817 29.1635 62.9852 28.8689 62.7888C28.7707 62.6905 28.2798 62.887 28.2798 63.0835C28.1816 63.6729 28.1816 64.3606 28.0834 64.95C28.6725 65.1464 29.1635 65.5394 29.7527 65.4412C29.6545 65.3429 29.5563 65.2447 29.5563 65.1464ZM25.5303 19.6632C25.5303 19.9579 25.3339 20.1544 24.9411 20.1544C24.4501 20.1544 24.4502 20.5473 24.352 20.842C24.2538 21.0385 24.2538 21.4314 24.352 21.7261C24.4502 22.2173 24.6465 22.6103 24.5483 23.1014C24.5483 23.8873 24.9411 24.3785 25.2357 24.9679C25.3339 25.1644 25.6285 25.2626 25.6285 25.3609C25.6285 25.7538 25.7267 26.0485 26.1195 26.245C26.3159 26.3432 26.4141 26.5397 26.6104 26.7362C27.0032 27.2273 27.396 27.8168 27.7888 28.3079C28.1816 28.8973 28.8689 29.0938 29.3599 29.585C29.7527 29.978 30.2437 30.1744 30.7346 30.4691C30.8328 30.5674 31.0292 30.4691 31.1274 30.5674C31.422 30.9603 31.913 30.9603 32.3057 30.9603C32.5021 30.9603 32.8949 30.9603 32.9931 31.0586C33.2877 31.3533 33.3859 31.1568 33.4841 31.0586C33.7787 31.1568 33.9751 31.255 34.1715 31.255C35.1534 31.255 36.1354 31.255 37.1173 31.255C37.7065 31.255 38.1974 31.0585 38.6884 30.8621C38.8848 30.7638 39.0812 30.6656 39.3758 30.5674C39.965 30.3709 40.5541 30.1744 41.0451 30.0762C41.2415 29.978 41.4379 29.9779 41.5361 29.8797C41.8307 29.585 42.1253 29.2903 42.518 29.0938C43.009 28.7991 43.5 28.5044 43.8928 28.1115C44.6783 27.5221 45.3657 26.7362 45.7585 25.852C45.8567 25.6556 45.8567 25.4591 45.9549 25.3609C46.2494 25.0661 46.544 24.7714 46.7404 24.3785C46.8386 24.182 47.035 24.0838 47.1332 23.9856C47.2314 23.8873 47.3296 23.7891 47.4278 23.6909C47.6242 23.2979 47.8206 22.8067 48.1151 22.4138C48.4097 22.0208 48.5079 21.7261 48.5079 21.3332C48.5079 21.2349 48.5079 21.1367 48.5079 21.1367C48.9007 20.9402 48.7043 20.6455 48.7043 20.4491C48.3115 20.3508 47.9188 20.2526 47.6242 20.1544C47.2314 19.9579 46.8386 19.7614 46.4458 19.4667C46.0531 19.2702 45.6603 19.0737 45.3657 18.8773C44.9729 18.5826 44.5801 18.2879 44.1873 17.8949C44.0891 17.7967 43.7946 17.6984 43.7946 17.502C43.5982 16.9126 43.009 16.8143 42.7144 16.5196C42.1252 16.1267 41.6343 15.7337 41.3397 15.2426C40.9469 14.5549 40.1614 14.2602 39.8668 13.4743C39.7686 13.2778 39.5722 13.1796 39.474 12.9831C39.1794 12.7866 38.7866 12.5902 38.6884 12.2955C38.492 11.7061 37.8047 11.4113 37.6083 10.7237C37.5101 10.3308 37.1173 9.9378 36.9209 9.54485C36.8227 9.25014 36.5281 9.05369 36.3317 8.85722L36.2335 8.95546C36.2335 9.15193 36.2335 9.34838 36.2335 9.54485C36.2335 9.64309 36.1354 9.74134 36.1354 9.83958C36.0372 10.036 35.7426 10.2325 35.7426 10.429C35.6444 10.8219 35.448 11.2149 35.2516 11.6078C35.1534 11.706 35.1534 12.0008 35.1534 12.099C34.7606 12.1972 34.6624 12.5902 34.466 12.8849C34.2697 13.2778 34.0733 13.6708 33.7787 13.9655C33.4841 14.2602 33.2877 14.6531 32.9931 14.8496C32.5021 15.2426 31.913 15.6355 31.3238 16.0284C31.1274 16.1267 30.931 16.2249 30.8328 16.4214C30.6364 17.0108 30.1455 17.2073 29.6545 17.4037C29.3599 17.6002 29.1635 17.7967 29.1635 17.9932C28.8689 18.0914 28.6725 18.1896 28.5743 18.3861C28.378 18.4843 28.3779 18.779 28.1816 18.8773C27.887 18.9755 27.4942 19.0738 27.1996 19.0738C27.1996 19.2702 27.1996 19.3685 27.1014 19.4667C26.4141 19.4667 25.9231 19.5649 25.5303 19.6632ZM45.3657 41.668C44.9729 41.5698 44.6783 41.668 44.3837 41.3733C44.0891 41.1769 43.5982 41.1769 43.1072 41.1769C42.8126 41.1769 42.518 41.2751 42.3216 40.9804C42.3216 40.8821 41.9289 40.9804 41.7325 41.0786C41.6343 41.0786 41.5361 41.1769 41.4379 41.1769C40.6523 41.1769 40.3577 41.5698 40.1613 42.2575C40.0631 42.6504 39.5722 42.9451 39.6704 43.4363H39.5722C39.5722 43.6327 39.3758 44.0257 39.474 44.1239C39.8668 44.4186 39.6704 44.8116 39.6704 45.2045C39.6704 45.8922 39.7686 46.3833 40.2595 46.8745C40.2595 46.9728 40.3577 46.9728 40.3577 47.071C40.5541 47.3657 40.6523 47.5622 40.8487 47.8569C41.0451 48.1516 41.2415 48.4463 41.3397 48.6428C41.5361 49.0357 41.6343 49.0357 42.0271 48.8392C42.3216 48.6428 42.6162 48.4463 42.9108 48.2499C43.3036 47.9551 43.8928 47.9551 44.0891 47.3657C44.1873 47.1692 44.3837 46.8746 44.4819 46.7763C44.8747 46.2851 45.1693 45.7939 45.1693 45.2045C45.1693 45.1063 45.1693 45.1063 45.1693 45.008C45.4639 44.5169 45.6603 44.0257 45.6603 43.4363C45.6603 43.1416 45.7585 42.9451 45.6603 42.6504C45.6603 42.3557 45.5621 41.9627 45.3657 41.668ZM28.6725 49.134C28.5743 49.7234 29.0653 49.8216 29.3599 49.8216C29.7527 49.8216 30.1455 49.7234 30.44 49.6252C30.5382 49.4287 30.5382 49.2322 30.6364 49.134C31.1274 48.5446 31.5202 47.8569 31.8148 47.1693C32.1094 46.4816 32.4039 45.7939 32.3057 45.1063C32.3057 44.4186 32.4039 43.731 32.0112 43.1416C31.913 42.9451 31.7166 42.7486 31.6184 42.5522C31.422 41.9627 30.7346 42.1592 30.3418 41.8645C29.9491 41.5698 29.2617 41.5698 28.6725 41.668C28.1816 41.7663 27.5924 41.7663 27.5924 42.4539C27.5924 42.6504 27.4942 42.8469 27.396 43.1416C27.2978 43.5345 27.0032 43.8292 27.0032 44.2222C27.0032 45.2045 27.1014 46.2851 27.1996 47.2675C27.1996 47.5622 27.396 47.9551 27.6906 48.2499C27.7888 48.4463 27.887 48.5446 27.9852 48.741C28.0834 48.8393 28.0834 49.3304 28.6725 49.134ZM31.5202 65.8341C31.8148 65.9323 32.0112 66.1288 32.2076 66.227C33.0913 66.4235 33.8769 66.5217 34.7606 66.7182C35.1534 66.8164 35.5462 66.7182 35.939 66.7182C36.3317 66.7182 36.7245 66.8165 37.0191 66.9147C37.4119 67.0129 37.7065 67.3076 38.0993 67.4059C38.6884 67.5041 39.2776 67.6023 39.8668 67.7988C40.3577 67.9953 40.9469 67.9953 41.4379 67.9953C41.6343 67.9953 41.8307 67.897 41.9289 68.1917C41.9289 68.1917 42.2234 68.1917 42.3216 68.1917C42.518 67.7988 42.6162 67.4059 42.8126 67.1111C42.8126 67.0129 42.9108 66.9147 43.009 66.8165C43.1072 66.7182 43.2054 66.62 43.3036 66.5217C43.5982 66.1288 43.7946 65.6376 43.991 65.2447C44.0892 65.0482 44.1874 64.95 44.2855 64.7535C44.3837 64.557 44.3837 64.2623 44.3837 63.9676C44.0891 63.8694 43.7946 63.7711 43.5 63.6729C43.3036 63.5747 43.2054 63.5747 43.1072 63.4764C42.9108 63.3782 42.3216 63.3782 42.2234 63.5746C42.0271 63.8694 41.5361 63.9676 41.3397 63.8694C41.2415 63.7711 41.0451 63.6729 40.8487 63.6729C40.4559 63.6729 39.965 63.5747 39.5722 63.8694C39.1794 64.0658 38.5902 64.1641 38.0993 64.3606C37.4119 64.557 36.7245 64.4588 36.0372 64.8517C35.448 65.1464 34.7606 65.0482 34.0733 65.3429C33.5823 65.5394 32.9931 65.5394 32.5021 65.5394C32.4039 65.5394 32.3058 65.5394 32.2076 65.5394C32.0112 65.9323 31.8148 65.7358 31.5202 65.5394C31.6184 65.6376 31.6184 65.7359 31.5202 65.8341ZM38.0993 32.8268V32.7286C38.0011 32.7286 37.9029 32.7286 37.7065 32.7286C36.9209 32.7286 36.1354 32.7286 35.3498 32.7286C35.0552 32.7286 34.7606 32.6303 34.466 32.6303C34.0733 32.6303 33.5823 32.6303 33.1895 32.7286C32.8949 32.8268 32.2076 32.7286 32.0112 32.4339C32.0112 32.3356 31.913 32.3356 31.913 32.3356C31.422 32.1391 31.0292 32.0409 30.5382 31.8444C30.3419 31.7462 30.1455 31.7462 29.9491 31.6479C29.6545 31.4515 29.3599 31.1568 29.0653 30.9603C28.8689 30.7638 28.5743 30.5674 28.3779 30.4691C28.1816 30.3709 28.0834 30.1744 27.887 30.0762C27.7888 29.978 27.6906 29.8797 27.5924 29.8797C27.1996 29.585 26.905 29.1921 26.5122 28.8974C26.414 28.7991 26.2177 28.7991 26.1195 28.7009C25.9231 29.1921 25.7267 29.6833 25.5303 30.0762C25.3339 30.4691 25.2357 30.8621 25.0393 31.3533C24.8429 31.8444 24.8429 32.3356 24.7447 32.8268C24.4501 33.6127 24.5483 34.3986 24.2538 35.1845C24.0574 35.5774 24.1556 36.1668 24.1556 36.7562C24.5483 36.658 24.8429 36.5598 25.1375 36.4615C25.7267 36.3633 25.8249 36.265 25.8249 35.6756C25.8249 35.1845 25.8249 34.7915 25.8249 34.3003C25.8249 34.2021 26.0213 33.9074 26.1195 33.9074C26.905 33.8092 27.6906 33.8091 28.5743 33.7109C30.5382 33.5144 32.4039 33.5145 34.3678 33.5145C35.2516 33.5145 36.0372 33.318 36.9209 33.2197C37.2155 33.2197 37.5101 33.1215 37.8047 33.0233C38.0011 32.925 38.0011 32.8268 38.0993 32.8268ZM46.4458 27.915C46.2494 27.915 46.053 27.8168 45.8567 28.3079C45.6603 28.7009 45.2675 28.9956 44.9729 29.2903C44.8747 29.3885 44.6783 29.2903 44.5801 29.3885C44.2855 29.6832 44.1873 29.978 43.6964 30.0762C43.5982 30.0762 43.5 30.2727 43.3036 30.3709C43.2054 30.4691 43.1072 30.5674 43.009 30.6656C42.7144 30.8621 42.3216 31.0585 42.0271 31.255C41.8307 31.3532 41.6343 31.6479 41.4379 31.6479C40.8487 31.5497 40.3577 32.0409 39.8668 32.1391C39.7686 32.1391 39.6704 32.3356 39.474 32.4339C39.474 32.4339 39.474 32.5321 39.5722 32.5321C39.7686 32.5321 39.8668 32.5321 40.0632 32.4339C40.3577 32.2374 40.6523 32.2374 40.8487 32.4339C41.1433 32.3356 41.3397 32.3356 41.5361 32.2374C41.7325 32.2374 41.9289 32.2374 42.1252 32.2374C42.6162 32.2374 43.2054 32.3356 43.5982 31.8444C43.5982 31.7462 43.8928 31.8444 43.991 31.8444C44.1873 32.1391 44.6783 32.2374 44.6783 32.7286C44.6783 33.0233 44.9729 33.318 44.9729 33.6127C45.0711 34.2021 45.3657 34.3986 45.9549 34.4968C46.4458 34.4968 47.035 34.6933 47.526 34.7915C47.7224 34.8897 47.9188 35.0862 48.1151 35.1845C48.4097 35.3809 48.8025 35.4792 49.1953 35.5774C49.0971 34.595 49.1953 33.6127 48.7043 32.8268C48.5079 32.4338 48.5079 32.0409 48.3115 31.6479C48.0169 31.1568 47.9188 30.4691 47.8206 29.978C47.7224 29.7815 47.7224 29.585 47.6242 29.3885C47.035 28.7991 46.7404 28.4062 46.4458 27.915ZM44.9729 35.7739C45.4639 36.3633 45.6603 37.1492 45.7585 37.9351C45.7585 38.2298 45.8567 38.5245 45.9549 38.8192C46.0531 39.0157 46.2494 39.3104 46.1512 39.5068C46.053 39.8015 45.8567 40.1945 45.7585 40.4892C45.9549 40.4892 46.053 40.5874 46.1512 40.5874C46.2494 40.6857 46.3476 40.6857 46.4458 40.7839C46.8386 40.9804 47.3296 40.7839 47.6242 41.1769C47.7224 41.2751 48.0169 41.2751 48.0169 40.9804C48.0169 40.7839 48.0169 40.4892 48.0169 40.391C48.4097 40.1945 48.2133 39.8015 48.2133 39.6051C48.2133 38.8192 48.2133 38.1315 48.2133 37.3457C48.2133 37.2474 48.2133 37.051 48.3115 36.9527C48.4097 36.658 48.3115 36.4615 48.0169 36.4615C47.6242 36.3633 47.3296 36.265 46.9368 36.1668L46.8386 36.0686C46.7404 35.7739 46.0531 35.5774 45.7585 35.5774C45.4639 35.5774 45.2675 35.6756 44.9729 35.7739ZM47.526 61.4135C47.2314 61.4135 47.035 61.4135 46.8386 61.4135C46.2494 61.5117 45.7585 61.7082 45.1693 61.8064C45.0711 61.8064 44.8747 61.9047 44.7765 61.9047C44.1874 61.9047 43.7946 62.3958 43.2054 62.1993C42.9108 62.1011 42.6162 62.1011 42.3216 62.1993C41.8307 62.2976 41.4379 62.3958 41.1433 62.887C41.4379 62.887 41.7325 62.7888 42.0271 62.6905C42.518 62.5923 42.9108 62.7888 43.4018 62.887C43.8928 62.9852 44.3837 63.2799 44.8747 63.1817C45.3657 63.0835 45.7585 63.0835 46.2494 63.0835H46.3476C46.2494 63.1817 46.2494 63.28 46.1512 63.4764C46.544 63.4764 46.7404 63.4764 47.035 63.4764C47.035 63.28 47.035 62.9852 47.1332 62.887C47.4278 62.5923 47.526 62.1011 47.526 61.4135ZM27.5924 56.4034C27.4942 56.9928 27.396 57.6805 27.2978 58.2699C27.1014 59.547 27.0032 60.7258 27.0032 62.1011C27.1996 62.0029 27.2978 62.0029 27.396 62.0029C27.4942 62.0029 27.6906 61.9047 27.7888 61.9047C28.0834 62.0029 28.378 62.0029 28.7707 62.1011C28.5743 61.5117 28.4761 61.1187 28.3779 60.6276C28.2797 60.1364 28.0834 59.6452 27.9852 59.2523C27.887 58.8593 27.887 58.3682 27.7888 57.877C27.9852 57.3858 28.1816 56.7964 27.5924 56.4034ZM27.9852 34.595C27.6906 34.4968 27.4942 34.3986 27.1996 34.3986C27.1014 34.3986 26.8068 34.4968 26.8068 34.595C26.8068 34.988 26.8068 35.2827 26.8068 35.7739C27.396 35.6756 27.7888 35.5774 28.2798 35.4792C28.7707 35.3809 29.2617 35.2827 29.7527 35.1845C29.7527 35.1845 29.7527 35.1845 29.8509 35.1845C30.0473 35.0862 30.1455 34.988 30.3418 34.988C30.6364 34.988 30.931 34.988 31.1274 34.988C31.422 34.8898 31.6184 34.7915 31.913 34.6933C31.913 34.6933 31.913 34.595 31.8148 34.595C31.2256 34.4968 30.6364 34.3986 30.0473 34.3986C29.5563 34.3986 28.9671 34.3986 28.4761 34.3986C28.2798 34.3986 28.1816 34.3003 27.9852 34.2021C27.9852 34.2021 27.9852 34.3003 27.9852 34.595Z" fill="black"/>
<path d="M29.5565 65.1464C29.6547 65.2446 29.6547 65.3428 29.7529 65.4411C29.0656 65.6376 28.5746 65.1464 28.0836 64.9499C28.0836 64.3605 28.1818 63.6728 28.28 63.0834C28.28 62.9852 28.771 62.7887 28.8692 62.7887C29.0656 62.9852 29.4583 63.0834 29.4583 63.5746C29.4583 63.8693 29.5565 64.2622 29.8511 64.4587C29.9493 64.557 29.9493 64.6552 29.9493 64.8517H30.0475C30.1457 64.6552 30.3421 64.3605 30.2439 64.164C29.8511 63.1816 29.9493 62.1993 29.8511 61.2169C29.7529 60.824 29.6547 60.5293 29.5565 60.1363C29.4583 59.8416 29.4583 59.6451 29.4583 59.3504C29.262 58.4663 29.1638 57.5822 28.9674 56.7963C28.8692 56.4033 28.771 55.9122 28.5746 55.5192C28.4764 55.1263 28.1818 54.7333 28.1818 54.2421C28.1818 53.8492 28.4764 53.5545 28.771 53.2598C29.0656 52.9651 29.262 52.6704 29.4583 52.2774C29.6547 51.9827 29.8511 51.688 30.1457 51.5898C30.6367 51.3933 31.2259 51.0986 31.6186 50.7057C32.0114 50.3127 32.2078 49.8215 32.5024 49.3303C32.6988 49.0356 32.9934 48.7409 33.2879 48.348C33.3861 48.2497 33.3861 48.0533 33.3861 47.955C33.5825 47.5621 33.8771 47.1692 33.7789 46.678C33.7789 46.5798 33.8771 46.4815 33.9753 46.3833H34.0735C34.0735 45.8921 34.1717 45.3027 34.1717 44.8115C34.1717 44.4186 33.7789 44.1238 33.7789 43.6327C33.7789 43.4362 33.5825 43.2397 33.4843 43.0432C33.288 42.7485 33.0916 42.3556 32.8952 42.0609C32.4042 41.8644 32.0114 41.5697 31.5204 41.3732C31.0295 41.1768 30.5385 40.9803 30.0475 40.9803C29.262 40.9803 28.5746 41.0785 27.789 41.0785C27.3963 41.0785 27.0035 41.275 26.7089 41.3732C26.4143 41.4715 26.1197 41.6679 25.7269 41.7662C25.6287 41.7662 25.5305 41.7662 25.3342 41.7662C25.236 41.3732 25.236 40.882 25.0396 40.4891C24.9414 40.0962 24.6468 39.7032 24.4504 39.3103C24.3522 39.0156 24.1558 38.7208 24.0576 38.5244C24.6468 37.935 25.3341 38.1314 25.9233 38.0332C26.3161 38.0332 26.8071 37.935 27.1999 37.8367C27.4944 37.7385 27.789 37.4438 28.1818 37.2473C28.28 37.1491 28.3782 37.1491 28.5746 37.1491C28.771 37.0508 29.0656 36.9526 29.262 36.8544C29.3602 36.7561 29.5565 36.7561 29.6547 36.7561C30.0475 36.7561 30.5385 36.8544 30.7349 36.3632C30.7349 36.265 30.9313 36.3632 31.1277 36.3632C31.7168 36.265 32.4042 36.3632 32.9934 36.1667C33.7789 35.872 34.5645 35.9702 35.35 35.6755C35.841 35.4791 36.4302 35.6755 36.7248 35.3808C37.2157 35.0861 37.7067 35.2826 38.0995 34.9879C38.4923 34.595 38.8851 34.7914 39.2778 34.6932C39.5724 34.5949 39.7688 34.3985 40.0634 34.3002C40.4562 34.202 40.9472 34.202 41.3399 34.1038C41.6345 34.1038 42.0273 34.3002 42.2237 33.8091C42.7147 33.8091 43.2057 33.7108 43.7948 33.7108C43.7948 33.8091 43.7948 34.0055 43.7948 34.1038C43.893 34.6932 43.7948 35.2826 43.9912 35.7738C44.2858 36.4614 44.4822 37.1491 44.5804 37.8367C44.7768 38.5244 45.2677 39.1138 45.0713 39.8997C45.0713 40.0962 45.2677 40.3909 45.3659 40.5873C45.3659 40.6856 45.2677 40.6856 45.2677 40.7838C45.0714 40.6856 44.7768 40.6856 44.5804 40.5873C44.1876 40.5873 43.893 40.5873 43.5002 40.4891C43.3038 40.4891 43.0093 40.5874 42.9111 40.2926C42.9111 40.1944 42.6165 40.2926 42.4201 40.1944C41.9291 40.1944 41.3399 40.2926 40.9472 40.5873C40.849 40.5873 40.849 40.6856 40.7508 40.6856C40.358 40.6856 40.0634 40.6856 39.7688 41.0785C39.5724 41.3732 39.376 41.7662 39.376 42.0609C39.2779 42.5521 39.1796 43.1415 38.9833 43.5344C38.5905 44.4185 38.7869 45.3027 38.6887 46.1868C38.5905 46.7762 38.9833 47.1692 39.0815 47.7586C39.1797 48.2498 39.4742 48.6427 39.6706 49.0356C39.867 49.4286 40.1616 49.7233 40.358 50.018C40.6526 50.4109 40.9472 50.8039 41.2417 51.1969C41.3399 51.3933 41.5363 51.4916 41.7327 51.5898C42.1255 51.8845 42.5183 52.2774 42.8129 52.5721C43.1075 52.8669 43.2057 53.1616 43.5002 53.4563C43.6966 53.751 43.9912 53.9475 44.1876 54.1439C44.5804 54.5369 44.9732 54.9298 45.4641 55.3227C45.6605 55.5192 45.9551 55.7157 46.2497 55.9122C46.4461 56.0104 46.5443 56.2069 46.7407 56.4034C47.1335 56.6981 47.5262 56.8945 47.919 57.091C48.0172 57.1893 48.1154 57.3857 48.1154 57.484C48.0172 57.7787 48.1154 57.9751 48.3118 58.0734C48.7046 58.3681 48.8028 58.761 48.5082 59.1539C48.41 59.2522 48.1154 59.3504 47.8208 59.4487C47.8208 59.5469 47.8208 59.7434 47.7226 59.9399C47.6244 59.9399 47.428 59.9399 47.3298 59.9399C47.1334 60.0381 46.7407 60.0381 46.6425 60.2346C46.5443 60.5293 46.3479 60.5293 46.0533 60.5293C45.7587 60.5293 45.6605 60.6275 45.4641 60.824C45.2677 61.0204 44.9732 61.1187 44.7768 61.1187C44.0894 61.2169 43.5002 61.5116 42.8129 61.4134C42.7147 61.4134 42.6165 61.5116 42.6165 61.6098C42.5183 61.9046 42.3219 61.8063 42.0273 61.9046C41.7327 62.0028 41.4381 62.1993 41.1435 62.2975C41.0453 62.2975 41.0454 62.494 40.9472 62.494C40.4562 62.5922 39.867 62.6905 39.376 62.7887C38.7869 62.8869 38.0995 62.7887 37.6085 62.9852C37.3139 63.0834 37.0194 63.1816 36.7248 63.2799C36.5284 63.2799 36.332 63.3781 36.1356 63.3781C35.6446 63.3781 35.1536 63.4764 34.7609 63.8693C34.7609 63.8693 34.6627 63.9675 34.5645 63.9675C34.0735 64.0658 33.6807 64.0658 33.1898 64.164C32.8952 64.2622 32.6006 64.3605 32.2078 64.4587C31.7168 64.557 31.4222 64.9499 30.8331 64.8517C30.3421 64.8517 29.9493 65.0481 29.5565 65.1464Z" fill="#F6E018"/>
<path d="M25.5302 19.6631C26.0212 19.5648 26.414 19.3684 26.8068 19.2701C26.8068 19.1719 26.8068 19.0737 26.905 18.8772C27.1995 18.7789 27.5923 18.779 27.8869 18.6807C28.0833 18.5825 28.1815 18.386 28.2797 18.1895C28.4761 18.0913 28.6725 17.9931 28.8689 17.7966C28.8689 17.6001 29.0653 17.4037 29.3598 17.2072C29.7526 17.0107 30.3418 16.8142 30.5382 16.2248C30.5382 16.0284 30.8328 15.9301 31.0292 15.8319C31.6183 15.4389 32.2075 15.046 32.6985 14.653C32.9931 14.4566 33.1895 14.0636 33.484 13.7689C33.7786 13.4742 33.975 13.0813 34.1714 12.6883C34.3678 12.3936 34.3678 12.0007 34.8588 11.9024C34.957 11.9024 34.957 11.6077 34.957 11.4113C35.1534 11.0183 35.3497 10.7236 35.4479 10.2324C35.4479 10.036 35.7425 9.83948 35.8407 9.643C35.9389 9.54477 35.9389 9.44654 35.9389 9.34831C35.9389 9.15184 35.9389 8.95536 35.9389 8.75889L36.0371 8.66064C36.2335 8.85712 36.5281 9.15184 36.6263 9.34831C36.8227 9.74125 37.1173 10.1342 37.3136 10.5271C37.51 11.2148 38.1974 11.5095 38.3938 12.0989C38.492 12.3936 38.8848 12.5901 39.1793 12.7866C39.3757 12.8848 39.4739 13.0813 39.5721 13.2777C39.8667 13.9654 40.6523 14.3583 41.0451 15.046C41.3396 15.5372 41.9288 16.0284 42.4198 16.3231C42.8126 16.6178 43.3035 16.8142 43.4999 17.3054C43.5981 17.5019 43.7945 17.5019 43.8927 17.6984C44.2855 17.9931 44.5801 18.386 45.071 18.6807C45.4638 18.9754 45.8566 19.0737 46.1512 19.2701C46.544 19.4666 46.9368 19.7613 47.3295 19.9578C47.6241 20.1543 48.0169 20.1543 48.4097 20.2525C48.4097 20.449 48.7043 20.7437 48.2133 20.9401C48.2133 20.9401 48.2133 21.0384 48.2133 21.1366C48.2133 21.5296 48.1151 21.9225 47.8205 22.2172C47.5259 22.6102 47.3295 23.1013 47.1331 23.4943C47.035 23.5925 46.9368 23.6907 46.8386 23.789C46.7404 23.8872 46.544 24.0837 46.4458 24.1819C46.2494 24.5749 45.9548 24.8696 45.6602 25.1643C45.562 25.2625 45.4638 25.5572 45.4638 25.6555C44.9729 26.5396 44.3837 27.3255 43.5981 27.9149C43.1071 28.2096 42.7144 28.6026 42.2234 28.8973C41.8306 29.0937 41.536 29.3884 41.2414 29.6831C41.1432 29.7814 40.8487 29.7814 40.7505 29.8796C40.1613 30.0761 39.5721 30.1743 39.0812 30.3708C38.8848 30.469 38.5902 30.5673 38.3938 30.6655C37.9028 30.862 37.4118 31.1567 36.8227 31.0585C35.8407 31.0585 34.8588 31.0585 33.8768 31.0585C33.6804 31.0585 33.484 30.9602 33.1895 30.862C33.0913 30.9602 32.9931 31.1567 32.6985 30.862C32.6003 30.7637 32.3057 30.7637 32.0111 30.7637C31.5201 30.7637 31.1273 30.7637 30.8328 30.3708C30.7346 30.2726 30.5382 30.3708 30.44 30.2726C29.949 29.9778 29.458 29.7814 29.0653 29.3884C28.5743 28.8973 27.8869 28.7008 27.4941 28.1114C27.1014 27.522 26.7086 27.0308 26.3158 26.5396C26.2176 26.3431 26.0212 26.2449 25.8248 26.0484C25.5302 25.8519 25.3339 25.5572 25.3339 25.1643C25.3339 24.9678 25.0393 24.8696 24.9411 24.7713C24.6465 24.1819 24.2537 23.6907 24.2537 22.9049C24.2537 22.4137 24.0573 22.0207 24.0573 21.5296C24.0573 21.2349 23.9591 20.9402 24.0573 20.6454C24.1555 20.3507 24.2537 19.9578 24.6465 19.9578C25.2357 20.2525 25.5302 20.056 25.5302 19.6631Z" fill="white"/>
<path d="M45.3659 41.6679C45.4641 41.9626 45.6605 42.3555 45.7587 42.6502C45.8569 42.8467 45.7587 43.1414 45.7587 43.4361C45.6605 44.0255 45.5623 44.5167 45.2677 45.0079C45.2677 45.0079 45.2677 45.1062 45.2677 45.2044C45.2677 45.892 44.9732 46.3832 44.5804 46.7762C44.384 46.9726 44.2858 47.1691 44.1876 47.3656C43.9912 47.8567 43.402 47.955 43.0093 48.2497C42.7147 48.4462 42.4201 48.5444 42.1255 48.8391C41.8309 49.0356 41.6345 49.0356 41.4381 48.6427C41.2417 48.3479 41.1435 48.0532 40.9471 47.8567C40.7508 47.562 40.6526 47.3656 40.4562 47.0709C40.4562 46.9726 40.358 46.9726 40.358 46.8744C39.9652 46.3832 39.7688 45.7938 39.7688 45.2044C39.7688 44.8114 39.9652 44.5167 39.5724 44.1238C39.4742 44.0256 39.6706 43.7308 39.6706 43.4361H39.7688C39.6706 42.9449 40.1616 42.6503 40.2598 42.2573C40.4562 41.5697 40.849 41.1767 41.5363 41.1767C41.6345 41.1767 41.7327 41.0785 41.8309 41.0785C42.0273 41.0785 42.4201 40.9802 42.4201 40.9802C42.6165 41.3732 42.9111 41.1767 43.2056 41.1767C43.5984 41.2749 44.0894 41.1767 44.4822 41.3732C44.6786 41.6679 44.9732 41.5697 45.3659 41.6679Z" fill="white"/>
<path d="M28.6727 49.1339C28.1817 49.2322 28.1817 48.8392 28.0835 48.6427C27.9853 48.4463 27.8871 48.348 27.7889 48.1516C27.5925 47.8568 27.3961 47.5621 27.2979 47.1692C27.1998 46.1868 27.1016 45.1062 27.1016 44.1239C27.1016 43.7309 27.2979 43.4362 27.4943 43.0433C27.5925 42.8468 27.6907 42.6503 27.6907 42.3556C27.7889 41.668 28.3781 41.5697 28.7709 41.5697C29.2618 41.4715 29.9492 41.4715 30.4402 41.7662C30.833 42.0609 31.5203 41.8644 31.7167 42.4539C31.8149 42.6503 32.0113 42.8468 32.1095 43.0433C32.5023 43.6327 32.4041 44.3203 32.4041 45.008C32.5023 45.7939 32.1095 46.4815 31.9131 47.071C31.6185 47.7586 31.2257 48.4463 30.7348 49.0357C30.6366 49.1339 30.6366 49.3304 30.5384 49.5269C30.2438 49.6251 29.851 49.7233 29.4582 49.7233C29.0655 49.8216 28.5745 49.8216 28.6727 49.1339Z" fill="white"/>
<path d="M31.52 65.834C31.52 65.7358 31.6182 65.6375 31.7164 65.5393C31.9128 65.7358 32.1092 65.9322 32.4038 65.5393C32.4038 65.5393 32.6002 65.5393 32.6984 65.5393C33.1893 65.4411 33.7785 65.5393 34.2695 65.3428C34.8586 65.0481 35.6442 65.2446 36.2334 64.8517C36.9207 64.4587 37.6081 64.557 38.2955 64.3605C38.7865 64.2622 39.2774 64.164 39.7684 63.8693C40.2594 63.5746 40.6522 63.6728 41.0449 63.6728C41.2413 63.6728 41.3395 63.7711 41.5359 63.8693C41.7323 63.9675 42.2233 63.8693 42.4197 63.5746C42.6161 63.3781 43.107 63.2799 43.3034 63.4764C43.4016 63.5746 43.598 63.5746 43.6962 63.6728C43.9908 63.7711 44.2854 63.8693 44.58 63.9675C44.58 64.2623 44.4818 64.4587 44.4818 64.7534C44.3836 64.9499 44.2854 65.1464 44.1872 65.2446C43.9908 65.6375 43.6962 66.1287 43.4998 66.5217C43.4016 66.6199 43.3034 66.7182 43.2052 66.8164C43.107 66.9146 43.107 67.0129 43.0088 67.1111C42.8125 67.504 42.7143 67.897 42.5179 68.1917C42.5179 68.2899 42.1251 68.1917 42.1251 68.1917C42.0269 67.897 41.8305 67.9952 41.6341 67.9952C41.1431 67.897 40.4558 67.9952 40.063 67.7988C39.4738 67.504 38.8846 67.4058 38.2955 67.4058C37.9027 67.3076 37.6081 67.0129 37.2153 66.9146C36.8225 66.8164 36.4298 66.7181 36.1352 66.7181C35.7424 66.7181 35.3496 66.7181 34.9568 66.7181C34.0731 66.6199 33.1893 66.4234 32.4038 66.227C32.011 66.1287 31.8146 65.9323 31.52 65.834Z" fill="#F6E018"/>
<path d="M44.9731 35.7738C45.2677 35.6756 45.4641 35.5773 45.7587 35.4791C46.0533 35.3809 46.6425 35.6756 46.8388 35.9703C46.8388 36.0685 46.9371 36.0685 46.9371 36.0685C47.3298 36.1667 47.6244 36.265 48.0172 36.3632C48.3118 36.4615 48.41 36.5597 48.3118 36.8544C48.2136 36.9526 48.2136 37.1491 48.2136 37.2474C48.2136 38.0332 48.2136 38.7209 48.2136 39.5068C48.2136 39.8015 48.41 40.0962 48.0172 40.2927C47.919 40.3909 48.0172 40.6856 48.0172 40.8821C48.0172 41.1768 47.7226 41.1768 47.6244 41.0786C47.3298 40.6856 46.8389 40.8821 46.4461 40.6856C46.3479 40.5874 46.2497 40.4891 46.1515 40.4891C46.0533 40.3909 45.8569 40.3909 45.7587 40.3909C45.9551 40.0962 46.1515 39.8015 46.1515 39.4086C46.1515 39.2121 45.9551 39.0156 45.9551 38.7209C45.8569 38.4262 45.8569 38.1315 45.7587 37.8368C45.6605 37.1491 45.4641 36.3632 44.9731 35.7738Z" fill="#F6E018"/>
<path d="M47.5258 61.4133C47.5258 62.0027 47.5258 62.5922 47.133 63.0833C47.0348 63.1816 47.0348 63.4763 47.0348 63.6728C46.7402 63.6728 46.4456 63.6728 46.151 63.6728C46.2492 63.4763 46.2492 63.3781 46.3474 63.2798C46.3474 63.2798 46.2492 63.1816 46.2492 63.2798C45.7583 63.2798 45.3655 63.2798 44.8745 63.3781C44.4817 63.4763 43.8925 63.1816 43.4016 63.0833C43.0088 62.9851 42.5178 62.6904 42.0268 62.8869C41.7322 62.9851 41.4377 63.0833 41.1431 63.0833C41.4377 62.5922 41.8304 62.4939 42.3214 62.3957C42.616 62.2975 42.9106 62.2975 43.2052 62.3957C43.7943 62.5922 44.2853 62.101 44.7763 62.101C44.8745 62.101 45.0709 62.0028 45.1691 62.0028C45.7582 61.9045 46.2492 61.708 46.8384 61.6098C47.0348 61.4133 47.2312 61.4133 47.5258 61.4133Z" fill="#F6E018"/>
<path d="M27.5922 56.4033C28.0832 56.7963 27.985 57.3857 27.985 57.9751C27.985 58.4663 28.0832 58.8592 28.1814 59.3504C28.2796 59.8416 28.476 60.3327 28.5742 60.7257C28.6724 61.1186 28.7706 61.6098 28.967 62.1992C28.5742 62.101 28.2796 62.0028 27.985 62.0028C27.8868 62.0028 27.6904 62.0027 27.5922 62.101C27.4941 62.101 27.2977 62.1992 27.1995 62.1992C27.1013 60.9222 27.2977 59.6451 27.494 58.368C27.494 57.6804 27.4941 56.9927 27.5922 56.4033Z" fill="#F6E018"/>
<path d="M27.9854 34.595C27.9854 34.3985 27.9854 34.202 28.0836 34.202C28.28 34.3003 28.4764 34.3985 28.5746 34.3985C29.0656 34.3985 29.6547 34.4967 30.1457 34.3985C30.7349 34.3985 31.324 34.4967 31.9132 34.595C31.9132 34.595 31.9132 34.6932 32.0114 34.6932C31.7168 34.7914 31.5204 34.8897 31.2259 34.9879C30.9313 34.9879 30.6367 34.9879 30.4403 34.9879C30.2439 34.9879 30.0475 35.0861 29.9493 35.1844C29.9493 35.1844 29.9493 35.1844 29.8511 35.1844C29.3601 35.2826 28.8692 35.3809 28.3782 35.4791C27.8872 35.5773 27.3962 35.6756 26.9053 35.7738C26.9053 35.2826 26.9053 34.9879 26.9053 34.595C26.9053 34.4967 27.1999 34.3985 27.2981 34.3985C27.4945 34.3985 27.6908 34.4967 27.9854 34.595Z" fill="#F6E018"/>
</svg>
