<svg width="72" height="72" viewBox="0 0 72 72" fill="none" xmlns="http://www.w3.org/2000/svg">
<path d="M63.6726 40.4839C64.3291 40.1024 63.954 39.5302 64.0478 38.958C64.0478 38.6718 64.0478 38.0996 63.954 38.0996C63.4851 38.0042 63.6726 37.6228 63.6726 37.3366C63.5789 37.0505 63.5789 36.7644 63.4851 36.4783C63.3913 36.0968 63.0162 35.8107 63.0162 35.4292C62.9224 34.6662 62.6411 33.9986 62.3598 33.331C62.0784 32.2819 61.0469 31.519 61.1406 30.3745C61.1406 30.0884 60.9531 29.8023 60.7655 29.5162C60.4842 29.0393 59.8278 28.6578 59.8278 28.181C59.6402 27.1319 58.7962 26.5596 58.2335 25.7967C57.5771 24.9383 56.5455 24.4615 55.7953 23.6985C55.3264 23.1263 54.9513 22.554 54.2949 21.6957C53.7322 21.4096 52.982 20.9327 52.138 20.4559C52.138 20.3605 52.138 20.1697 52.0442 20.0744C51.6691 19.8836 51.3877 19.7883 51.2002 19.5975C50.7313 19.1207 50.3562 18.5484 49.5122 18.6438C49.3246 18.6438 48.6682 18.1669 49.1371 17.7855C49.5122 17.4993 49.5122 17.1178 49.4184 17.0225C49.1371 16.4502 49.2309 16.0688 49.4184 15.4012C49.606 14.5428 49.5122 13.4937 49.5122 12.54C49.5122 12.4446 49.5122 12.2539 49.4184 12.2539C48.8557 12.0632 49.1371 11.5863 49.0433 11.2048C48.9495 10.3465 48.8557 9.48812 48.762 8.72514C48.762 8.62977 48.5744 8.5344 48.4806 8.43903C48.1993 8.05754 47.7304 7.77142 47.6366 7.19919C47.5429 6.81771 47.1677 6.53159 47.074 6.24548C46.8864 5.76862 46.23 5.67325 46.23 5.00565C46.23 4.62416 45.6673 4.24267 45.2922 4.05193C44.8233 3.86119 44.3544 3.67044 44.4482 3.00284C43.7917 2.90747 43.1353 2.71673 42.4788 2.62135C42.1975 2.52598 41.7286 2.52598 41.6348 2.33524C41.166 1.57226 40.1344 2.33524 39.7593 1.47689C38.4464 1.38152 37.1335 1.28615 35.9144 1.19078C35.5393 1.19078 35.1642 1.00003 34.8828 0.904663C34.5077 1.00003 34.2264 1.09541 33.8513 1.19078C32.8197 1.19078 31.7882 1.09541 30.9442 1.95375C30.8504 2.04912 30.6628 2.33524 30.5691 2.33524C29.9126 2.43061 29.3499 2.8121 28.8811 3.28896C28.6935 3.4797 28.4122 3.57507 28.1308 3.76581C27.6619 4.24267 27.1931 4.8149 26.7242 5.19639C25.9739 5.76862 25.5051 6.34085 25.4113 7.19919C25.4113 7.29457 25.3175 7.38994 25.3175 7.48531C25.0362 7.96217 24.8486 8.43903 24.5673 8.82051C24.0984 9.39274 24.5673 10.1557 23.9108 10.6326C23.5357 10.9187 23.3482 11.3955 23.8171 11.8724C23.9108 11.9678 23.8171 12.0632 23.8171 12.2539C23.7233 12.54 23.5357 12.9215 23.7233 13.1122C24.1922 13.8752 23.9108 14.6382 24.0046 15.4012C24.0046 15.5919 24.0046 15.878 24.0984 15.9734C24.5673 16.0688 24.4735 16.4502 24.3797 16.7364C24.1922 17.7855 24.7548 18.5484 25.2237 19.216C25.5988 19.8836 25.5988 20.4559 25.7864 20.9327C25.2237 21.3142 24.7548 21.6003 24.2859 21.8864C23.8171 22.1725 23.3482 22.2679 22.973 22.554C22.3166 23.0309 21.7539 23.6031 21.1913 24.1754C20.9099 24.3661 20.7224 24.6522 20.5348 24.9383C20.441 25.1291 20.441 25.4152 20.2535 25.6059C19.4095 26.4643 18.5655 27.3226 17.7215 28.0856C17.5339 28.2763 17.065 28.4671 16.7837 28.2763C16.221 27.9902 15.6584 28.181 15.2833 28.5625C14.9082 28.9439 14.6268 29.5162 15.0957 30.0884C15.1895 30.2791 15.2833 30.5653 15.1895 30.756C14.6268 31.519 14.9082 32.3773 14.8144 33.1403C14.8144 33.2357 14.8144 33.4264 14.7206 33.4264C14.1579 33.5218 14.3455 33.9986 14.3455 34.3801C14.4393 35.1431 14.1579 35.5246 13.5953 35.4292C13.3139 35.7153 13.2202 36.0014 13.0326 36.0968C12.7513 36.3829 12.4699 36.7644 12.1886 36.8598C11.6259 37.0505 11.6259 37.6228 10.9695 37.7181C10.5944 37.8135 10.0317 38.195 10.0317 38.8626C10.0317 39.0533 9.65659 39.2441 9.56281 39.5302C9.37526 39.8163 9.1877 40.1024 9.09393 40.3885C9.00015 41.0561 9.09393 41.6284 9.09393 42.296C9.09393 42.4867 9.28148 42.7728 9.37526 42.9636C9.46904 43.2497 9.65659 43.4404 9.84415 43.7265C10.1255 44.2034 10.1255 44.9664 10.8757 45.0618C10.8757 45.0618 10.8757 45.0617 10.8757 45.1571C11.3446 45.9201 12.001 46.2062 12.845 46.2062C13.0326 46.2062 13.2202 46.2062 13.4077 46.3016C13.4077 48.5905 13.4077 50.8794 13.4077 53.1683C13.4077 53.2637 13.3139 53.4545 13.3139 53.5498C13.2202 53.7406 13.0326 54.0267 13.0326 54.2174C13.0326 55.9341 13.0326 57.5554 13.0326 59.2721C13.0326 59.5582 12.845 59.8444 12.7513 60.0351C12.6575 60.1305 12.2824 60.4166 12.7513 60.512C12.7513 60.512 12.7513 60.7981 12.6575 60.8934C12.6575 60.9888 12.4699 61.0842 12.4699 61.1796C12.3762 62.324 12.845 63.1824 12.845 64.2315C13.5015 65.4713 14.0642 64.9944 14.7206 65.662C14.7206 65.2805 14.7206 64.9944 14.7206 64.6129C14.7206 64.4222 14.6268 64.2315 14.4393 64.1361C14.2517 63.9453 14.3455 63.087 14.6268 62.8009C14.7206 62.7055 14.8144 62.5148 14.8144 62.4194C14.9082 59.9397 15.0957 57.4601 15.0957 54.9804C15.1895 51.9285 15.0957 48.8766 15.0957 45.8247C15.0957 45.3479 15.2833 45.1571 15.5646 44.871C15.7522 44.7756 15.8459 44.4895 16.0335 44.3941C16.221 44.108 16.5024 43.9173 16.8775 43.7265C16.9713 43.5358 17.065 43.2497 17.2526 42.9636C16.9713 42.7728 16.6899 42.6775 17.1588 42.1052C17.4402 41.8191 17.1588 40.9608 17.1588 40.2932C17.1588 40.1024 16.9713 40.0071 16.9713 39.8163C16.9713 39.2441 16.7837 38.6718 16.3148 38.2904C16.1273 38.195 16.1273 37.9089 16.0335 37.6228C15.8459 37.5274 15.6584 37.3366 15.5646 37.2413C15.7522 36.8598 15.9397 36.4783 16.1273 36.1922C16.3148 35.7153 16.3148 35.3338 16.5024 34.857C16.0335 34.4755 16.0335 33.9033 16.5962 33.2357C16.7837 32.9495 16.8775 32.6634 16.9713 32.3773C17.065 31.6143 16.7837 30.756 17.6277 30.0884C17.5339 30.0884 17.4402 29.993 17.4402 29.8977C18.0966 29.993 18.753 30.1838 19.4095 30.2791H19.5033C19.9722 30.2791 20.3473 30.2791 20.8162 30.6606C21.1913 30.9467 21.8477 30.9467 22.4104 30.9467C24.0046 30.9467 25.6926 30.9467 27.3806 30.9467C27.5682 30.9467 27.7557 31.1375 28.0371 31.2329C28.2246 31.3282 28.3184 31.3282 28.5059 31.3282C28.8811 31.3282 29.3499 31.3282 29.7251 31.3282C30.1002 31.3282 30.6628 31.0421 30.9442 31.7097C30.9442 31.7097 31.1317 31.7097 31.2255 31.7097C32.7259 31.8051 34.1326 31.9005 35.6331 31.9958C35.9144 31.9958 36.2895 31.8051 36.3833 32.3773C36.3833 32.4727 36.7584 32.4727 36.946 32.4727C37.79 32.4727 38.634 32.4727 39.5717 32.4727C39.5717 33.9033 39.5717 35.2385 39.5717 36.5737C39.5717 37.0505 39.2904 37.432 39.1028 37.9089C39.0091 38.0996 39.0091 38.2904 38.9153 38.4811C38.7277 39.1487 38.5402 39.9117 38.2588 40.5793C38.1651 40.77 38.1651 40.9608 38.1651 41.0561C37.1335 41.7237 36.2895 42.7728 34.7891 42.296C34.7891 42.3913 34.7891 42.4867 34.7891 42.4867C34.8828 42.5821 34.9766 42.6775 34.9766 42.7728C35.0704 42.9636 35.1642 43.3451 35.0704 43.4404C34.3202 44.5849 34.2264 44.7756 35.0704 46.1108C35.4455 46.7784 36.0082 47.1599 36.3833 47.8275C36.4771 48.0183 36.7584 48.209 36.946 48.209C37.5086 48.1136 37.79 48.4951 38.1651 48.7812C38.4464 48.972 38.634 50.4026 38.4464 50.7841C38.3526 51.0702 38.2588 51.3563 38.2588 51.6424C38.2588 55.2665 38.2588 58.7953 38.2588 62.4194C38.2588 62.7055 38.4464 62.9916 37.9775 63.1824C37.6024 63.2777 37.8837 64.6129 38.2588 64.8037C38.1651 64.9944 37.8837 65.1852 37.8837 65.3759C37.79 66.425 37.79 67.4741 37.6962 68.5232C37.79 68.5232 37.79 68.5232 37.8837 68.5232C38.1651 68.5232 38.3526 68.5232 38.5402 68.6186C38.5402 68.4278 38.5402 68.1417 38.5402 67.951C38.5402 67.8556 38.7277 67.7602 38.7277 67.6648C38.8215 67.4741 38.8215 67.188 38.9153 66.9972C38.3526 66.9019 38.5402 66.425 38.5402 66.1389C38.5402 64.3268 38.5402 62.5148 38.5402 60.6073C38.5402 60.3212 38.3526 59.9397 38.9153 59.8444C39.0091 59.8444 39.0091 59.5582 39.0091 59.3675C39.0091 58.7953 39.0091 58.1277 39.0091 57.5554C39.0091 57.174 39.3842 56.7925 39.1966 56.5064C39.0091 55.9341 39.1028 55.3619 39.2904 55.0758C39.8531 54.2174 39.5717 53.2637 39.6655 52.4054C39.6655 52.31 39.9468 52.2146 40.0406 52.1193C40.0406 52.7869 40.0406 53.5498 40.0406 54.2174C40.0406 54.6943 40.322 55.1711 39.6655 55.4573C39.5717 55.4573 39.6655 55.7434 39.6655 55.9341C39.6655 56.7925 39.6655 57.7462 39.6655 58.6045C39.6655 58.8906 39.8531 59.3675 39.2904 59.4629C39.3842 59.749 39.3842 60.0351 39.478 60.3212C39.1028 60.6073 39.1028 60.6073 39.5717 60.9888C39.2904 61.1796 39.1028 61.9425 39.2904 62.2286C39.7593 62.8963 39.7593 63.087 39.2904 63.7546C39.0091 63.9453 39.0091 64.0407 39.0091 64.1361C39.0091 64.2315 39.0091 64.3268 39.0091 64.5176C38.9153 65.8528 38.9153 67.2834 38.8215 68.6186C39.1966 68.7139 39.5717 68.9047 39.8531 69.0954C39.7593 68.2371 40.4157 67.3787 39.8531 66.5204C39.8531 66.425 39.8531 66.3296 39.8531 66.2343C39.9468 65.9481 40.0406 65.662 40.0406 65.3759C40.2282 63.9453 39.6655 62.4194 40.4157 60.9888C40.6971 60.4166 40.6033 59.5582 40.6971 58.8906C40.8846 57.8416 40.5095 56.7925 41.0722 55.648C41.5411 54.5989 40.8846 53.1683 41.4473 52.0239C40.6971 51.2609 41.5411 50.6887 41.5411 50.1164C41.9162 50.2118 42.1975 50.4026 42.4788 50.4026C44.8233 50.4026 47.1677 50.4026 49.606 50.4026C49.7935 50.4026 50.0749 50.4026 50.1686 50.3072C50.6375 49.8303 51.3877 50.3072 51.9504 49.735C52.4193 49.2581 53.3571 49.3535 54.0135 49.2581C54.3886 49.1627 54.9513 49.1627 55.1389 48.8766C55.514 48.209 56.358 48.7812 56.7331 48.0183C56.9206 48.7812 57.0144 49.2581 57.1082 49.8303C57.1082 49.9257 57.202 50.0211 57.202 50.1164C57.2958 50.3072 57.4833 50.4979 57.4833 50.7841C57.5771 51.8331 57.6709 52.8822 57.7646 53.8359C57.7646 53.9313 57.7646 54.1221 57.8584 54.1221C58.4211 54.2174 58.1398 54.5989 58.2335 54.885C58.2335 56.8878 58.2335 58.7953 58.2335 60.7981C58.2335 60.9888 58.2335 61.2749 58.2335 61.5611C58.7024 61.0842 59.5464 61.2749 59.6402 60.3212C59.734 59.749 60.3904 59.2721 59.6402 58.7953C59.734 58.6045 60.0153 58.5092 60.0153 58.3184C60.1091 57.174 60.2029 56.1249 60.2966 54.9804C60.2966 54.5989 60.4842 54.3128 60.578 53.8359C60.2966 53.4545 59.734 52.2146 60.2966 51.2609C60.1091 51.2609 59.8278 51.1655 59.5464 51.1655C59.4526 50.4026 59.4526 49.6396 59.3589 48.972C59.3589 48.8766 59.3589 48.7812 59.2651 48.7812C58.6086 48.5905 58.9838 48.1136 58.89 47.6368C59.1713 47.7322 59.3589 47.8275 59.5464 47.8275C59.5464 47.6368 59.5464 47.446 59.6402 47.3507C60.1091 46.8738 60.6718 46.397 61.2344 46.1108C62.3598 45.634 62.8286 45.1571 62.8286 43.9173C63.0162 43.9173 63.11 43.9173 63.2038 43.9173C63.4851 43.7265 63.6726 43.5358 63.954 43.2497C64.0478 43.1543 63.954 42.9636 63.8602 42.7728C63.6726 42.2006 63.3913 40.5793 63.6726 40.4839ZM14.7206 41.9145C14.533 42.3913 14.1579 42.7728 13.7828 43.1543C13.7828 43.3451 13.689 43.4404 13.689 43.6312C13.5015 44.0127 13.5015 44.3941 12.9388 44.3941C12.845 44.3941 12.7513 44.3941 12.6575 44.3941C12.0948 45.3479 11.9073 44.3941 11.6259 44.2034C11.0633 43.7265 10.7819 43.2497 10.9695 42.4867C11.0633 42.2006 11.0633 41.9145 11.2508 41.6284C11.6259 41.0561 12.001 40.4839 12.4699 40.0071C12.9388 39.6256 13.2202 39.2441 13.0326 38.6718C13.689 38.2904 14.2517 38.0042 14.8144 37.6228C14.9082 38.4811 15.1895 39.1487 15.0957 39.7209C15.0957 40.4839 15.0019 41.2469 14.7206 41.9145ZM26.0677 13.0169C26.0677 12.4446 26.0677 11.8724 26.0677 11.2048C26.0677 10.5372 26.1615 9.96497 26.7242 9.58349C26.7242 9.58349 26.5366 9.202 26.4428 9.10663C26.5366 9.01126 26.6304 8.82051 26.7242 8.62977C27.1931 7.8668 27.5682 7.00845 28.3184 6.43622C28.6935 6.05473 29.1624 5.76862 29.5375 5.38713C29.6313 5.38713 29.6313 5.29176 29.7251 5.29176C30.4753 5.29176 31.1317 5.10102 31.6006 4.52879C31.6944 4.52879 31.6944 4.62416 31.7882 4.62416C31.8819 5.29176 31.7882 6.15011 32.0695 6.72234C32.3508 7.29457 32.2571 7.96217 32.8197 8.43903C32.9135 8.5344 32.8197 8.82051 32.9135 9.01126C33.1948 9.77423 33.4762 10.5372 33.9451 11.1094C34.6953 11.9678 35.1642 12.9215 36.102 13.5891C36.7584 14.066 37.4148 14.6382 38.1651 15.0197C38.3526 15.115 38.4464 15.3058 38.5402 15.4012C39.1028 15.878 39.5717 16.3549 40.1344 16.7364C40.6033 17.0225 41.166 17.3086 41.6348 17.4993C42.1037 17.7855 42.5726 17.9762 42.9477 18.3577C43.3228 18.7392 43.698 18.9299 44.1668 18.9299C44.9171 19.0253 45.1046 19.216 45.1046 20.0744C44.9171 20.0744 44.7295 20.1697 44.4482 20.1697C44.4482 20.3605 44.4482 20.5512 44.4482 20.5512C44.0731 20.8373 43.8855 21.1235 43.698 21.2188C43.0415 21.4096 42.6664 21.9818 41.9162 21.9818C41.5411 21.9818 41.166 22.3633 40.7908 22.4587C40.6033 22.554 40.4157 22.6494 40.1344 22.6494C39.8531 22.7448 39.3842 22.4587 39.2904 23.0309C39.2904 23.0309 39.1966 23.1263 39.1028 23.1263C38.1651 23.2216 37.2273 23.317 36.3833 23.4124C35.7268 23.4124 35.1642 23.4124 34.5077 23.4124C33.8513 23.4124 33.2886 23.4124 32.9135 22.7448C32.8197 22.6494 32.6322 22.7448 32.5384 22.6494C31.8819 22.3633 31.1317 22.1725 30.6628 21.5049C30.6628 21.4096 30.5691 21.4096 30.4753 21.4096C29.9126 21.1235 29.3499 20.8373 28.8811 20.4559C28.1308 19.979 27.2868 19.6929 26.9117 18.8345C26.6304 18.2623 26.5366 17.4993 26.4428 16.8317C26.3491 16.5456 26.0677 16.1641 26.1615 15.9734C26.3491 15.5919 26.2553 15.2104 26.1615 14.8289C26.0677 14.5428 25.9739 14.2567 25.8802 13.8752C25.8802 13.5891 25.9739 13.303 26.0677 13.0169ZM19.8784 28.3717H18.8468L18.753 28.181C19.1282 27.9902 19.5033 27.8948 19.8784 27.7041V28.3717ZM20.5348 27.7041H19.8784C20.0659 27.2272 20.1597 26.8458 20.3473 26.3689C20.8162 26.1782 21.1913 25.9874 21.5664 25.7967L21.6602 25.9874C21.1913 26.5596 20.8162 27.0365 20.3473 27.6087C20.441 27.6087 20.441 27.7041 20.5348 27.7041ZM37.6962 28.4671C37.6024 28.6578 37.6962 28.9439 37.5086 29.1347C36.946 30.0884 35.8206 30.5653 34.6953 30.2791C34.0388 30.0884 33.2886 30.0884 32.6322 29.993C32.0695 29.8977 31.5068 30.2791 31.0379 29.6115C30.7566 29.3254 30.0064 29.6115 29.4437 29.5162C29.1624 29.5162 28.6935 29.7069 28.5997 29.1347C28.5997 29.0393 28.2246 29.0393 28.0371 29.0393C26.1615 29.0393 24.1922 29.0393 22.3166 29.0393C22.0353 29.0393 21.5664 28.8486 21.3788 28.5625C21.285 28.3717 21.0037 27.7995 21.6602 27.6087C21.7539 27.6087 21.7539 27.418 21.7539 27.3226C21.7539 26.655 22.129 26.3689 22.7855 26.4643C22.7855 26.2735 22.8793 25.9874 22.8793 25.7967C23.4419 25.7967 23.6295 25.5106 23.9108 25.0337C24.0984 24.5568 24.3797 23.7939 25.3175 23.8892C25.5988 23.8892 25.8802 23.6031 26.1615 23.4124C26.6304 23.0309 26.9117 22.3633 27.6619 22.554C28.0371 22.6494 28.4122 22.8402 28.6935 23.1263C29.1624 23.6985 29.7251 23.7939 30.4753 23.9846C31.0379 24.08 31.5068 24.4615 31.9757 24.7476C32.0695 24.7476 32.0695 24.843 32.1633 24.843C32.8197 24.9383 33.4762 25.0337 34.0388 25.1291C34.3202 25.2244 34.5077 25.4152 34.7891 25.4152C35.0704 25.5106 35.3517 25.5106 35.6331 25.5106C36.1957 25.4152 36.7584 25.7013 37.2273 25.1291C37.5086 24.843 38.2588 24.9383 38.7277 24.843C39.3842 24.7476 40.0406 24.5568 40.6971 24.3661C40.9784 24.2707 41.166 24.08 41.5411 23.7939V24.843C41.3535 24.843 41.166 24.9383 40.9784 24.9383C40.6971 25.9874 40.322 26.7504 39.2904 27.1319C38.8215 27.3226 38.5402 27.8948 38.2588 28.2763C38.2588 28.3717 38.3526 28.3717 38.3526 28.4671C38.0713 28.3717 37.8837 28.4671 37.6962 28.4671ZM39.2904 30.2791C39.0091 30.4699 38.7277 30.6606 38.4464 30.8514L38.2588 30.6606C38.3526 30.5653 38.3526 30.4699 38.4464 30.3745C38.634 30.1838 38.9153 30.0884 38.9153 29.993C38.8215 29.0393 39.8531 28.9439 40.2282 28.2763C40.4157 27.8948 40.8846 27.7995 41.2597 27.5134C41.4473 28.2763 40.6033 28.3717 40.322 28.9439C40.322 29.0393 40.1344 29.1347 40.1344 29.1347C40.1344 29.7069 39.6655 29.993 39.2904 30.2791ZM40.5095 37.8135V40.2932C40.4157 40.2932 40.322 40.2932 40.2282 40.2932C39.9468 39.6256 40.1344 38.958 40.1344 38.195C40.1344 38.0042 40.2282 37.8135 40.322 37.6228C40.322 37.7181 40.4157 37.7181 40.5095 37.8135ZM40.5095 50.4979C39.9468 50.6887 40.2282 51.1655 40.1344 51.547C40.1344 51.7378 39.9468 51.8331 39.8531 52.0239V49.9257H40.5095C40.5095 50.1164 40.6033 50.4979 40.5095 50.4979ZM40.7908 47.9229C40.5095 47.8275 40.2282 47.7322 39.9468 47.6368C39.2904 47.2553 38.3526 47.6368 37.9775 46.5877C37.79 46.1108 37.1335 45.8247 36.6646 45.4432C36.5708 45.3479 36.4771 44.9664 36.4771 44.9664C37.2273 44.5849 36.7584 43.8219 36.946 43.3451C37.5086 43.1543 38.0713 43.0589 38.634 42.8682C38.8215 42.8682 38.9153 42.5821 39.1028 42.5821C39.3842 42.5821 39.6655 42.4867 39.9468 42.5821C40.1344 42.6775 40.322 42.8682 40.5095 42.9636C41.4473 44.6803 41.8224 46.3016 40.7908 47.9229ZM41.2597 27.418C41.2597 27.3226 41.2597 27.1319 41.3535 27.0365C42.01 26.1782 42.6664 25.4152 43.3228 24.5568C43.4166 24.4615 43.698 24.4615 43.9793 24.3661C43.9793 24.1754 44.0731 23.9846 44.0731 23.7939C44.0731 23.7939 44.0731 23.6985 44.1668 23.6985C45.1984 23.6985 45.4797 22.4587 46.4175 22.2679C46.6989 22.1725 47.074 22.2679 47.3553 22.2679C47.3553 22.3633 47.4491 22.3633 47.4491 22.4587C46.9802 22.7448 46.4175 22.9355 45.9486 23.317C45.5735 23.6031 45.2922 24.08 44.9171 24.4615C44.6357 24.7476 44.3544 24.9383 44.0731 25.1291C43.7917 25.3198 43.5104 25.4152 43.3228 25.7013C42.854 26.1782 42.3851 26.655 41.9162 27.1319C41.8224 27.3226 41.5411 27.3226 41.2597 27.418ZM61.6095 41.4376C61.6095 41.4376 61.5158 41.6284 61.6095 41.7237C61.8909 42.5821 61.2344 42.9636 60.8593 43.5358C60.7655 43.7265 60.3904 43.6312 60.2029 43.8219C59.6402 44.2988 59.1713 44.871 58.6086 45.4432C58.4211 45.634 58.3273 45.7294 58.1398 45.8247C57.6709 46.0155 57.1082 46.1108 56.5455 46.397C55.6077 46.8738 54.7637 47.6368 53.5446 47.5414C53.1695 47.5414 52.3255 47.446 52.0442 48.1136C52.0442 48.209 51.7629 48.1136 51.5753 48.1136C50.45 48.1136 49.3246 48.0183 48.1993 48.1136C47.5429 48.209 46.8864 48.0183 46.23 48.0183C45.4797 48.1136 44.7295 48.0183 43.9793 48.0183C43.9793 47.7322 43.8855 47.5414 43.9793 47.2553C44.1668 46.3016 43.698 45.4432 43.3228 44.5849C43.3228 44.4895 43.2291 44.3941 43.3228 44.3941C43.5104 43.8219 43.0415 43.5358 42.7602 43.1543C42.4788 42.7728 42.01 42.4867 41.8224 42.0099C41.7286 41.9145 42.1975 41.4376 42.4788 41.2469C42.9477 41.0561 43.6042 41.1515 43.8855 40.8654C44.3544 40.2932 44.8233 40.5793 45.2922 40.4839C45.5735 40.4839 46.1362 40.1978 46.23 40.8654C46.23 40.8654 46.6051 40.8654 46.7926 40.8654C47.074 40.77 47.2615 40.5793 47.6366 40.2932C47.6366 40.2932 47.6366 40.1024 47.6366 39.9117C47.7304 39.9117 47.8242 39.8163 47.8242 39.8163C48.5744 39.7209 49.4184 39.7209 50.1686 39.4348C50.5437 39.3394 50.8251 38.7672 51.1064 38.3857C51.2002 38.2904 50.9189 37.8135 50.8251 37.8135C50.3562 37.7181 49.7935 37.7181 49.3246 37.8135C49.1371 37.8135 49.0433 37.9089 48.8557 38.0042C48.4806 38.0996 48.0117 37.8135 47.8242 38.3857C47.8242 38.3857 47.7304 38.3857 47.6366 38.3857C46.7926 38.4811 45.9486 38.5765 45.1046 38.6718C44.7295 38.7672 44.4482 38.958 44.1668 39.0533C43.7917 39.1487 43.4166 38.958 43.1353 39.4348C43.0415 39.5302 42.5726 39.5302 42.01 39.5302C42.854 38.4811 42.2913 37.3366 42.5726 36.3829C42.7602 35.8107 42.7602 35.4292 42.5726 34.857C42.3851 34.2848 42.5726 33.6171 42.5726 32.9495C42.854 32.9495 43.0415 32.8542 43.1353 32.8542C43.0415 32.3773 42.9477 31.9958 42.7602 31.519C42.6664 31.519 42.3851 31.4236 42.1975 31.4236L42.1037 31.2329C42.3851 31.1375 42.5726 31.0421 42.9477 30.8514C42.6664 30.756 42.3851 30.756 42.1037 30.6606C42.3851 30.2791 42.7602 29.993 43.0415 29.6115C43.2291 29.3254 43.4166 29.0393 43.6042 28.7532C43.8855 28.3717 44.1668 28.0856 44.542 27.7041C45.1046 27.1319 45.5735 26.655 46.1362 26.1782C46.4175 25.9874 46.6988 25.7967 46.9802 25.5106C47.2615 25.2244 47.5429 25.0337 47.7304 24.7476C47.918 24.2707 48.1055 23.8892 48.6682 23.9846C48.762 23.9846 49.0433 23.9846 49.0433 23.9846C49.4184 23.4124 49.9811 23.4124 50.5437 23.2216C51.3877 22.9355 52.6069 23.0309 53.1695 23.6031C53.4509 23.8892 53.9197 23.8892 54.2011 24.08C54.7637 24.4615 55.4202 24.9383 55.8891 25.3198C56.2642 25.7967 56.4517 26.1782 56.8269 26.4643C57.4833 27.0365 57.8584 27.7041 58.2335 28.4671C58.5149 29.1347 58.9837 29.7069 59.2651 30.3745C59.5464 30.9467 59.734 31.4236 60.0153 31.9958C60.2966 32.5681 60.7655 33.1403 61.0469 33.7125C61.1406 33.9033 61.2344 34.1894 61.2344 34.4755C61.3282 35.1431 61.9846 35.7153 61.7971 36.4783C61.7971 36.669 61.9846 36.8598 62.0784 37.0505C62.1722 37.2413 62.1722 37.432 62.1722 37.5274C62.1722 38.4811 62.1722 39.4348 62.1722 40.2932C61.8909 40.77 62.1722 41.2469 61.6095 41.4376Z" fill="black"/>
<path d="M39.3842 32.5681C38.4464 32.5681 37.6024 32.5681 36.7584 32.5681C36.5709 32.5681 36.2895 32.5681 36.1957 32.4727C36.102 31.9005 35.7269 32.1866 35.4455 32.0912C33.9451 31.9958 32.5384 31.9005 31.038 31.8051C30.9442 31.8051 30.7566 31.8051 30.7566 31.8051C30.5691 31.1375 30.0064 31.519 29.6313 31.4236C29.2562 31.4236 28.7873 31.4236 28.4122 31.4236C28.2246 31.4236 28.1308 31.4236 27.9433 31.3282C27.7557 31.2329 27.4744 31.0421 27.2868 31.0421C25.6926 31.0421 24.0046 31.0421 22.3166 31.0421C21.754 31.0421 21.0975 31.0421 20.7224 30.756C20.2535 30.3745 19.8784 30.4699 19.4095 30.3745H19.3157C18.6593 30.2792 18.0028 30.0884 17.3464 29.993C17.4402 30.0884 17.4402 30.1838 17.534 30.1838C16.5962 30.756 16.9713 31.6144 16.8775 32.4727C16.8775 32.7588 16.6899 33.0449 16.5024 33.3311C16.0335 33.9987 16.0335 34.5709 16.4086 34.9524C16.3148 35.4292 16.2211 35.8107 16.0335 36.1922C16.0335 36.4783 15.7522 36.8598 15.5646 37.2413C15.6584 37.3367 15.7522 37.5274 15.8459 37.7181C15.9397 37.9089 16.0335 38.195 16.1273 38.3857C16.5962 38.7672 16.7837 39.3395 16.7837 39.9117C16.7837 40.1024 16.9713 40.1978 16.9713 40.3886C17.0651 40.9608 17.3464 41.8191 16.9713 42.2006C16.5024 42.7728 16.7837 42.8682 17.0651 43.059C16.8775 43.3451 16.7837 43.6312 16.6899 43.8219C16.5024 43.9173 16.2211 44.108 16.0335 44.3942C15.8459 44.4895 15.6584 44.6803 15.5646 44.871C15.2833 45.1571 15.0957 45.3479 15.0957 45.8247C15.0957 48.8766 15.1895 51.9285 15.0957 54.9804C15.0957 57.4601 14.9082 59.9397 14.8144 62.4194C14.8144 62.5148 14.7206 62.7055 14.6268 62.8009C14.3455 63.087 14.3455 63.9453 14.5331 64.2315C14.6268 64.3268 14.8144 64.5176 14.8144 64.7083C14.8144 65.0898 14.8144 65.3759 14.8144 65.7574C15.6584 66.6158 34.9766 68.5232 37.4149 68.4278C37.5086 67.3787 37.5086 66.3296 37.6024 65.2806C37.6024 65.0898 37.8837 64.8991 37.9775 64.7083C37.6024 64.5176 37.4149 63.2777 37.6962 63.087C38.1651 62.8963 37.9775 62.6101 37.9775 62.324C37.9775 58.6999 37.9775 55.1712 37.9775 51.547C37.9775 51.2609 38.0713 50.9748 38.1651 50.6887C38.3526 50.3072 38.1651 48.8766 37.8837 48.6859C37.5086 48.3998 37.2273 48.0183 36.6646 48.1137C36.4771 48.1137 36.2895 47.9229 36.102 47.7322C35.7269 47.1599 35.1642 46.6831 34.7891 46.0155C34.0389 44.6803 34.0389 44.4895 34.7891 43.3451C34.8829 43.1543 34.7891 42.8682 34.6953 42.6775C34.6953 42.5821 34.5077 42.4867 34.5077 42.3914C34.5077 42.296 34.5077 42.2006 34.5077 42.2006C36.0082 42.6775 36.8522 41.6284 37.8837 40.9608C37.8837 40.8654 37.9775 40.6747 37.9775 40.4839C38.1651 39.8163 38.3526 39.0533 38.634 38.3857C38.7277 38.195 38.7277 38.0043 38.8215 37.8135C39.0091 37.3367 39.2904 36.9552 39.2904 36.4783C39.478 35.3339 39.3842 33.9987 39.3842 32.5681Z" fill="white"/>
<path d="M24.8486 13.9706C24.9424 13.6845 25.13 13.3984 25.13 13.0169C25.13 12.3493 25.13 11.6817 25.13 11.1095C25.13 10.4419 25.2237 9.77428 25.7864 9.29742C25.7864 9.29742 25.5989 8.91594 25.5051 8.72519C25.6926 8.62982 25.8802 8.43908 25.974 8.24834C26.4429 7.38999 26.9117 6.53165 27.7557 5.86405C28.2246 5.48256 28.6935 5.10107 29.0686 4.71959C29.1624 4.71959 29.1624 4.62421 29.2562 4.62421C30.1002 4.62421 30.7566 4.43347 31.3193 3.76587C31.4131 3.76587 31.4131 3.86124 31.5069 3.86124C31.6006 4.62421 31.5069 5.48256 31.7882 6.15016C32.0695 6.72239 31.9758 7.48536 32.5384 7.96222C32.6322 8.05759 32.5384 8.34371 32.6322 8.53445C33.0073 9.29742 33.1949 10.1558 33.7575 10.8234C34.5078 11.7771 35.0704 12.8262 36.102 13.5891C36.8522 14.1614 37.5086 14.7336 38.3526 15.1151C38.5402 15.2105 38.634 15.4012 38.7278 15.592C39.2904 16.0688 39.8531 16.641 40.5095 17.0225C41.0722 17.404 41.6349 17.5948 42.1975 17.8809C42.6664 18.167 43.2291 18.3577 43.6042 18.7392C43.9793 19.1207 44.4482 19.3114 44.9171 19.4068C45.6673 19.5022 45.9487 19.6929 45.9487 20.6467C45.7611 20.6467 45.4798 20.742 45.2922 20.742C45.2922 20.9328 45.2922 21.2189 45.2922 21.2189C44.9171 21.505 44.7295 21.7911 44.4482 21.8865C43.7918 22.0772 43.3229 22.7448 42.4789 22.7448C42.1038 22.7448 41.6349 23.1263 41.2598 23.3171C41.0722 23.4124 40.7909 23.5078 40.6033 23.5078C40.2282 23.6032 39.8531 23.3171 39.6655 23.8893C39.6655 23.8893 39.5718 23.9847 39.478 23.9847C38.4464 24.08 37.5086 24.1754 36.4771 24.2708C35.8206 24.2708 35.0704 24.2708 34.414 24.2708C33.7575 24.2708 33.1011 24.2708 32.6322 23.6032C32.5384 23.5078 32.3509 23.6032 32.1633 23.5078C31.4131 23.2217 30.6629 22.9356 30.1002 22.268C30.1002 22.1726 30.0064 22.1726 29.9126 22.1726C29.35 21.8865 28.6935 21.505 28.1309 21.2189C27.3806 20.742 26.3491 20.3605 25.974 19.5022C25.6926 18.8346 25.5989 18.0716 25.4113 17.3086C25.3175 17.0225 25.0362 16.641 25.13 16.3549C25.3175 15.8781 25.2237 15.4966 25.13 15.1151C25.13 14.6382 24.9424 14.3521 24.8486 13.9706Z" fill="white"/>
<path d="M40.4157 43.0589C41.4473 44.6802 41.8224 46.3015 40.7908 48.0182C40.5095 47.9228 40.2282 47.8275 39.9468 47.7321C39.2904 47.3506 38.3526 47.7321 37.9775 46.683C37.7899 46.2062 37.1335 45.92 36.6646 45.5386C36.5708 45.4432 36.4771 45.0617 36.4771 45.0617C37.2273 44.6802 36.7584 43.9172 36.9459 43.4404C37.5086 43.2496 38.0713 43.1543 38.6339 42.9635C38.8215 42.9635 38.9153 42.6774 39.1028 42.6774C39.3842 42.6774 39.6655 42.582 39.9468 42.6774C40.0406 42.6774 40.2282 42.8681 40.4157 43.0589Z" fill="white"/>
<path d="M12.9388 38.6719C13.5953 38.2904 14.1579 38.0043 14.7206 37.6228C14.8144 38.4811 15.0957 39.1487 15.0019 39.721C15.0019 40.4839 14.9082 41.2469 14.7206 41.9145C14.533 42.3914 14.1579 42.7729 13.7828 43.1544C13.7828 43.3451 13.689 43.4405 13.689 43.6312C13.5015 44.0127 13.5015 44.3942 12.9388 44.3942C12.845 44.3942 12.7513 44.3942 12.6575 44.3942C12.0948 45.3479 11.9073 44.3942 11.6259 44.2034C11.0633 43.7266 10.7819 43.2497 10.9695 42.4867C11.0633 42.2006 11.0633 41.9145 11.2508 41.6284C11.6259 41.0562 12.001 40.4839 12.4699 40.0071C12.845 39.5302 13.1264 39.1487 12.9388 38.6719Z" fill="white"/>
<path d="M38.6339 66.9018C38.6339 67.0926 38.5401 67.3787 38.4463 67.5695C38.4463 67.6648 38.2588 67.7602 38.2588 67.8556C38.2588 68.0463 38.2588 68.3324 38.2588 68.5232C38.4463 68.5232 38.6339 68.6185 38.7277 68.6185C38.8215 67.2833 38.8215 65.8528 38.9152 64.5176C38.9152 64.4222 38.9152 64.2314 38.9152 64.1361C38.9152 64.0407 38.9152 63.9453 39.009 63.85C39.4779 63.1823 39.4779 63.087 39.009 62.324C38.8215 62.0379 39.009 61.2749 39.2903 61.0842C38.8215 60.7027 38.8215 60.7027 39.1966 60.4166C39.1028 60.0351 39.1028 59.8443 39.009 59.5582C39.5717 59.4629 39.3841 58.986 39.3841 58.6999C39.3841 57.8415 39.3841 56.8878 39.3841 56.0295C39.3841 55.8387 39.3841 55.5526 39.3841 55.5526C40.0406 55.2665 39.7592 54.6943 39.7592 54.3128C39.7592 53.6452 39.7592 52.8822 39.7592 52.2146C39.5717 52.31 39.3841 52.4053 39.3841 52.5007C39.1966 53.3591 39.5717 54.3128 39.009 55.1711C38.8215 55.4572 38.7277 56.0295 38.9152 56.6017C39.009 56.8878 38.7277 57.2693 38.7277 57.6508C38.7277 58.223 38.7277 58.7952 38.7277 59.4628C38.7277 59.6536 38.7277 59.9397 38.6339 59.9397C38.165 60.0351 38.3526 60.4166 38.2588 60.7027C38.2588 62.5147 38.2588 64.3268 38.2588 66.2342C38.3526 66.3296 38.0712 66.7111 38.6339 66.9018Z" fill="white"/>
<path d="M41.2598 27.418C41.2598 27.2272 41.2598 27.1318 41.3535 26.9411C42.01 26.0828 42.6664 25.3198 43.3229 24.4614C43.4167 24.3661 43.698 24.3661 43.9793 24.2707C43.9793 24.0799 44.0731 23.8892 44.0731 23.6985C44.0731 23.6985 44.0731 23.6031 44.1669 23.6031C45.1984 23.6031 45.4798 22.3633 46.4176 22.1725C46.6989 22.0771 47.074 22.1725 47.3553 22.1725C47.3553 22.2679 47.4491 22.2679 47.4491 22.3633C46.9802 22.6494 46.4176 22.8401 45.9487 23.2216C45.5736 23.5077 45.2922 23.9846 44.9171 24.3661C44.6358 24.6522 44.3544 24.8429 44.0731 25.0337C43.7918 25.2244 43.5104 25.3198 43.3229 25.6059C42.854 26.0828 42.3851 26.5596 41.9162 27.0365C41.8224 27.3226 41.4473 27.3226 41.2598 27.418Z" fill="white"/>
<path d="M41.2597 27.418C41.4472 28.1809 40.6032 28.3717 40.3219 28.8485C40.3219 28.9439 40.1343 29.0393 40.1343 29.0393C40.1343 29.7069 39.6655 29.8976 39.2903 30.2791C39.009 30.4699 38.7277 30.6606 38.4463 30.8513C38.3526 30.756 38.3526 30.6606 38.2588 30.6606C38.3526 30.5652 38.3526 30.4699 38.4463 30.3745C38.6339 30.1837 38.9152 30.0884 38.9152 29.993C38.8215 29.0393 39.853 28.9439 40.2281 28.2763C40.4157 27.8948 40.8846 27.7041 41.2597 27.418Z" fill="white"/>
<path d="M19.8784 27.7041C20.066 27.2272 20.1598 26.8457 20.3473 26.3689C20.8162 26.1781 21.1913 25.9874 21.5664 25.7966C21.5664 25.892 21.6602 25.892 21.6602 25.9874C21.1913 26.5596 20.8162 27.0365 20.3473 27.6087C20.3473 27.7041 20.4411 27.7041 20.4411 27.7994C20.2535 27.7041 20.066 27.7041 19.8784 27.7041Z" fill="white"/>
<path d="M40.5096 37.8135C40.5096 38.6719 40.5096 39.5302 40.5096 40.2932C40.4158 40.2932 40.322 40.2932 40.2283 40.2932C39.9469 39.6256 40.1345 38.958 40.1345 38.195C40.1345 38.0043 40.2283 37.8135 40.322 37.6228C40.322 37.7182 40.4158 37.7182 40.5096 37.8135Z" fill="white"/>
<path d="M39.853 52.1193C39.853 51.4517 39.853 50.6887 39.853 50.0211C40.0406 50.0211 40.2281 50.0211 40.5095 50.0211C40.5095 50.2119 40.6033 50.5933 40.5095 50.5933C39.9468 50.7841 40.2281 51.2609 40.1344 51.6424C40.0406 51.7378 39.9468 51.9285 39.853 52.1193C39.853 52.1193 39.853 52.0239 39.853 52.1193Z" fill="white"/>
<path d="M19.8783 27.7041C19.8783 27.8948 19.8783 28.0856 19.8783 28.3717C19.5032 28.3717 19.128 28.3717 18.8467 28.3717C18.8467 28.2763 18.8467 28.2763 18.7529 28.181C19.128 27.9902 19.5032 27.8948 19.8783 27.7041Z" fill="white"/>
<path d="M62.9224 64.9945C63.2037 64.8037 63.485 64.613 63.7664 64.5176C63.6726 63.85 63.6726 63.087 63.5788 62.4194C63.2037 59.6536 62.8286 56.7925 62.4535 54.0267L62.0784 51.1656C61.9846 50.1165 61.8908 44.0127 60.4841 44.0127C59.5464 46.3016 60.8593 49.9257 61.1406 52.31C61.4219 54.3128 61.7033 56.3156 61.8908 58.3184C62.2659 60.6074 62.5473 62.8009 62.9224 64.9945Z" fill="black"/>
<path d="M35.7268 56.8878C35.6331 56.7924 35.5393 56.697 35.4455 56.5063C35.5393 56.4109 35.5393 56.3156 35.6331 56.2202C35.3517 55.7433 35.0704 55.3618 34.8828 54.885C34.6953 54.9803 34.6015 55.0757 34.5077 55.1711C34.5077 55.1711 34.5077 55.1711 34.4139 55.0757C34.5077 54.9803 34.6015 54.885 34.6015 54.6942C34.5077 54.5035 34.2264 54.4081 34.3202 54.3127C34.4139 53.9313 34.1326 53.8359 33.9451 53.9313C33.8513 53.7405 33.7575 53.5498 33.6637 53.4544C33.3824 53.1683 33.1011 52.7868 32.8197 52.5007C32.7259 52.4053 32.6322 52.1192 32.3508 52.3099C32.3508 52.3099 32.1633 52.2146 32.1633 52.1192C32.0695 51.9285 32.0695 51.8331 32.0695 51.6423C31.6944 51.9285 31.3193 52.1192 31.0379 52.4053C30.9442 52.5007 30.9442 52.6914 30.8504 52.7868C30.5691 52.9775 30.2877 53.1683 30.0064 53.359C29.4437 53.9313 28.9748 54.5035 28.4122 55.0757C28.4122 55.1711 28.4122 55.1711 28.3184 55.2665C28.2246 55.4572 28.2246 55.6479 28.1308 55.9341C28.1308 56.0294 28.0371 56.2202 28.0371 56.3156C28.0371 56.4109 28.0371 56.5063 28.0371 56.5063C27.8495 56.6017 27.8495 56.7924 27.9433 56.9832C28.0371 57.2693 27.8495 57.5554 28.0371 57.9369C28.2246 58.223 28.0371 58.7952 28.2246 59.1767C28.4122 59.5582 28.7873 59.8443 29.0686 60.1304C29.0686 60.1304 29.2562 60.1304 29.3499 60.1304C29.5375 60.1304 29.7251 60.2258 29.8188 60.3212C30.1002 60.5119 30.2877 60.7026 30.5691 60.8934C30.9442 60.6073 31.3193 60.5119 31.6944 60.8934L31.7882 60.798C32.0695 60.6073 32.5384 60.798 32.8197 60.4165C33.1011 60.6073 33.2886 60.4165 33.4762 60.2258H33.6637C33.9451 60.035 34.1326 59.8443 34.4139 59.5582C34.5077 59.4628 34.5077 59.3674 34.5077 59.2721C34.6015 59.0813 34.6953 58.8906 34.7891 58.7952C34.9766 58.6045 35.1642 58.4137 35.1642 58.1276C35.1642 58.0322 35.258 57.8415 35.3517 57.6508C35.4455 57.6508 35.4455 57.6508 35.6331 57.7461C35.4455 57.5554 35.3517 57.3646 35.2579 57.2693C35.5393 57.0785 35.6331 56.9832 35.7268 56.8878ZM21.6602 56.6017C21.4726 56.697 21.285 56.697 21.285 56.7924C21.0975 56.9832 21.0037 57.2693 20.9099 57.46C20.7224 57.9369 20.5348 58.3184 20.3473 58.7952C20.3473 58.8906 20.3473 58.8906 20.3473 58.986C20.3473 59.1767 20.441 59.4628 20.2535 59.6536C20.2535 59.6536 20.2535 59.7489 20.3473 59.8443C20.5348 59.6536 20.7224 59.5582 20.7224 59.4628C20.6286 59.0813 21.0037 58.986 21.0975 58.7952L21.1913 58.6998C21.0975 58.6045 21.0975 58.5091 21.0037 58.4137C21.3788 58.3184 21.6602 58.0322 21.5664 57.7461C21.8477 57.8415 21.8477 57.8415 21.8477 57.5554C21.8477 57.5554 21.8477 57.46 21.9415 57.46C22.129 57.2693 22.2228 56.8878 22.4104 56.7924C22.7855 56.6017 22.7855 56.2202 23.1606 56.0294C23.2544 56.0294 23.3482 55.9341 23.3482 55.8387C23.3482 55.4572 23.4419 55.1711 23.7233 54.885C23.7233 54.885 23.7233 54.885 23.7233 54.7896C23.5357 54.5035 23.9108 54.4081 24.0046 54.2174C24.1922 54.0266 24.4735 53.8359 24.661 53.5498C24.8486 53.359 25.1299 53.0729 25.1299 52.8822C25.1299 52.5007 25.4113 52.4053 25.5988 52.2146C25.5988 52.4053 25.6926 52.5007 25.6926 52.6914C25.9739 52.4053 26.1615 52.1192 26.4428 51.8331C26.4428 51.7377 26.349 51.6423 26.2553 51.547L26.3491 51.4516C26.6304 51.547 26.9117 51.547 27.0055 51.0701C27.0055 50.9747 27.1931 50.8794 27.2868 50.784C27.4744 50.6886 27.6619 50.5933 27.7557 50.4979C28.0371 50.2118 28.2246 49.8303 28.5059 49.6395C28.8811 49.258 29.3499 48.9719 29.8188 48.5904C30.1002 48.3997 30.1002 47.9228 30.4753 47.9228C31.0379 47.3506 31.6006 46.683 32.1633 46.1108L32.2571 46.0154C32.1633 45.7293 32.3508 45.7293 32.4446 45.5386C32.5384 45.4432 32.6322 45.3478 32.7259 45.2524C32.3508 44.9663 32.5384 44.6802 32.7259 44.4895C32.4446 44.108 32.0695 43.8219 31.7882 43.4404C31.5068 43.0589 31.2255 42.7728 30.9442 42.3913C30.6628 42.4867 30.7566 42.9635 30.3815 42.8681C30.3815 42.8681 30.3815 42.8681 30.3815 42.9635C30.2877 43.1543 30.1002 43.345 30.0064 43.5357C29.9126 43.6311 29.8188 43.7265 29.8188 43.8219C29.8188 44.3941 29.5375 44.6802 29.1624 45.0617C28.5059 45.6339 27.9433 46.3015 27.3806 46.9691C27.3806 47.0645 27.2868 47.0645 27.2868 47.1599C27.2868 47.446 26.8179 47.7321 26.6304 47.7321C26.5366 47.9228 26.5366 48.0182 26.4428 48.1136C26.3491 48.209 26.1615 48.3997 26.1615 48.4951C26.2553 48.7812 26.0677 48.8766 25.9739 48.9719C25.7864 49.1627 25.5988 49.3534 25.4113 49.4488C25.3175 49.5442 25.3175 49.5442 25.3175 49.6395C25.3175 49.7349 25.3175 49.8303 25.2237 49.9257C25.0362 50.2118 24.7548 50.4979 24.4735 50.784C24.3797 50.8794 24.1922 50.9747 24.1922 51.0701C24.1922 51.4516 24.0046 51.7377 23.817 51.9285C23.5357 52.2146 23.5357 52.5961 23.3482 52.8822C23.0668 53.1683 23.0668 53.6451 22.7855 53.8359C22.6917 53.9313 22.5042 54.0266 22.6917 54.2174C22.6917 54.2174 22.7855 54.5989 22.5042 54.5035L22.4104 54.5989C22.3166 54.885 22.2228 55.1711 22.0353 55.4572C22.129 55.5526 22.129 55.648 22.3166 55.7433C22.0353 55.8387 21.8477 55.9341 21.5664 56.0294C21.4726 56.3156 21.5664 56.5063 21.6602 56.6017ZM25.3175 42.1052C25.6926 41.7237 25.6926 41.3422 25.3175 40.9607C25.2237 40.8653 25.1299 40.77 25.1299 40.6746C25.2237 40.2931 24.8486 40.007 24.661 40.007C24.3797 40.007 24.2859 39.8163 24.0984 39.7209C23.817 39.5301 23.5357 39.244 23.2544 39.0533C23.1606 38.9579 22.973 38.9579 22.8793 38.8625C22.5042 38.4811 22.0353 38.3857 21.6602 38.8625C20.8162 39.7209 19.8784 40.4839 19.2219 41.4376C19.2219 41.5329 19.2219 41.6283 19.1282 41.7237C19.0344 41.9144 19.0344 42.1052 18.9406 42.2959C18.753 42.582 18.5655 42.7728 18.3779 43.0589C18.3779 43.0589 18.3779 43.1543 18.3779 43.2496C18.3779 43.6311 18.3779 44.108 18.4717 44.4895C18.5655 44.9663 18.6593 45.3478 18.8468 45.7293C18.9406 45.92 19.1282 45.92 19.3157 46.0154C19.7846 46.1108 20.1597 46.2062 20.6286 46.2062C20.9099 46.2062 21.0975 45.92 21.3788 45.92C21.8477 45.92 22.3166 46.0154 22.5979 45.5386C22.5979 45.5386 22.5979 45.5386 22.6917 45.5386C23.0668 45.4432 23.4419 45.4432 23.7233 45.2524C24.2859 44.7756 24.7548 44.2034 25.2237 43.6311C25.2237 43.6311 25.2237 43.5358 25.2237 43.4404C25.3175 43.0589 25.4113 42.7728 25.505 42.2959C25.505 42.2959 25.4113 42.2005 25.3175 42.1052Z" fill="white"/>
<path d="M35.7269 56.8878C35.6332 56.9832 35.5394 57.0786 35.4456 57.1739C35.5394 57.3647 35.6332 57.46 35.8207 57.6508C35.6332 57.6508 35.5394 57.6508 35.5394 57.5554C35.4456 57.7462 35.3518 57.8415 35.3518 58.0323C35.3518 58.3184 35.1643 58.5091 34.9767 58.6999C34.8829 58.7952 34.7892 58.986 34.6954 59.1767C34.6016 59.2721 34.6016 59.4628 34.6016 59.4628C34.4141 59.6536 34.1327 59.8443 33.8514 60.1304C33.7576 60.1304 33.6638 60.1304 33.6638 60.1304C33.4763 60.3212 33.2887 60.5119 33.0074 60.3212C32.7261 60.7027 32.3509 60.5119 31.9758 60.7027C31.8821 60.7027 31.8821 60.798 31.8821 60.798C31.5069 60.4166 31.0381 60.4166 30.7567 60.798C30.4754 60.6073 30.2878 60.4166 30.0065 60.2258C29.8189 60.1304 29.6314 60.1304 29.5376 60.0351C29.4438 60.0351 29.35 60.0351 29.2563 60.0351C28.9749 59.749 28.5998 59.4628 28.4123 59.0814C28.2247 58.6999 28.4123 58.1276 28.2247 57.8415C28.0372 57.46 28.2247 57.1739 28.1309 56.8878C28.0372 56.7924 28.0372 56.5063 28.2247 56.4109C28.2247 56.4109 28.2247 56.3156 28.2247 56.2202C28.2247 56.1248 28.3185 55.9341 28.3185 55.8387C28.4123 55.648 28.4123 55.4572 28.506 55.1711C28.506 55.0757 28.506 54.9804 28.5998 54.9804C29.1625 54.4081 29.6314 53.8359 30.194 53.2637C30.4754 52.9776 30.7567 52.8822 31.038 52.6915C31.1318 52.5961 31.1318 52.4053 31.2256 52.31C31.5069 52.1192 31.882 51.8331 32.2572 51.547C32.2572 51.7377 32.3509 51.9285 32.3509 52.0239C32.3509 52.1192 32.5385 52.2146 32.5385 52.2146C32.8198 52.1192 32.8198 52.31 33.0074 52.4053C33.2887 52.6915 33.5701 52.9776 33.8514 53.3591C33.9452 53.4544 34.0389 53.6452 34.1327 53.8359C34.3203 53.8359 34.6016 53.8359 34.5078 54.2174C34.5078 54.3128 34.6954 54.5035 34.7892 54.5989C34.6954 54.6943 34.6016 54.7896 34.6016 54.9804C34.6016 54.9804 34.6016 54.9804 34.6954 55.0757C34.7892 54.9804 34.8829 54.9804 35.0705 54.7896C35.3518 55.2665 35.6332 55.648 35.8207 56.1248C35.7269 56.2202 35.7269 56.3156 35.6332 56.4109C35.5394 56.6971 35.6332 56.7924 35.7269 56.8878ZM31.2256 55.4572C31.3194 55.8387 31.5069 56.1248 31.6007 56.4109C31.5069 56.4109 31.4132 56.3156 31.3194 56.3156C30.9443 56.5063 30.6629 56.5063 30.2878 56.5063C30.194 56.5063 30.0065 56.6017 29.9127 56.6971C29.6314 56.9832 29.4438 57.2693 29.2563 57.5554H29.35C29.35 57.7462 29.35 57.9369 29.4438 58.1276C29.6314 58.4138 29.8189 58.6045 30.194 58.6999C30.8505 58.7952 31.3194 58.6045 31.6007 58.0323C31.6945 57.9369 31.6945 57.8415 31.6945 57.7462C31.6945 57.2693 31.7883 56.8878 31.7883 56.4109C31.882 55.9341 31.5069 55.648 31.3194 55.2665C31.3194 55.3619 31.2256 55.3619 31.2256 55.4572Z" fill="black"/>
<path d="M21.6602 56.6017C21.5664 56.5063 21.4726 56.4109 21.2851 56.1248C21.5664 56.0295 21.7539 55.9341 22.0353 55.8387C21.9415 55.7433 21.8477 55.648 21.7539 55.5526C21.8477 55.2665 21.9415 54.9804 22.1291 54.6943C22.1291 54.5989 22.2228 54.5989 22.2228 54.5989C22.5042 54.6943 22.4104 54.3128 22.4104 54.3128C22.3166 54.122 22.4104 54.0267 22.5042 53.9313C22.7855 53.6452 22.8793 53.2637 23.0668 52.9776C23.2544 52.6915 23.3482 52.31 23.5357 52.0239C23.7233 51.8331 23.9108 51.547 23.9108 51.1655C23.9108 51.0701 24.0984 50.9748 24.1922 50.8794C24.4735 50.5933 24.6611 50.3072 24.9424 50.0211C25.0362 49.9257 25.0362 49.8303 25.0362 49.7349C25.0362 49.6396 25.13 49.5442 25.13 49.5442C25.3175 49.3535 25.5051 49.1627 25.6926 49.0673C25.7864 48.972 26.0677 48.8766 25.8802 48.5905C25.8802 48.4951 26.0677 48.3997 26.1615 48.209C26.2553 48.1136 26.2553 47.9229 26.3491 47.8275C26.5366 47.9229 27.0055 47.5414 27.0055 47.2553C27.0055 47.1599 27.0055 47.0645 27.0993 47.0645C27.662 46.3969 28.2246 45.8247 28.8811 45.1571C29.2562 44.7756 29.5375 44.4895 29.5375 43.9173C29.5375 43.8219 29.7251 43.7265 29.7251 43.6312C29.8188 43.4404 30.0064 43.2497 30.1002 43.0589V42.9636C30.4753 43.0589 30.3815 42.5821 30.6628 42.4867C30.9442 42.8682 31.2255 43.1543 31.5068 43.5358C31.7882 43.9173 32.0695 44.2034 32.4446 44.5849C32.2571 44.7756 32.1633 45.0617 32.4446 45.3478C32.3508 45.4432 32.2571 45.5386 32.1633 45.634C32.0695 45.7293 31.7882 45.8247 31.9757 46.1108C31.9757 46.1108 31.9757 46.2062 31.882 46.2062C31.3193 46.7784 30.7566 47.446 30.194 48.0182C29.7251 48.0182 29.7251 48.4951 29.5375 48.6858C29.0686 48.972 28.6935 49.3534 28.2246 49.7349C27.9433 50.021 27.7557 50.3072 27.4744 50.5933C27.3806 50.6887 27.0993 50.784 27.0055 50.8794C26.9117 50.9748 26.7242 51.0701 26.7242 51.1655C26.6304 51.6424 26.3491 51.547 26.0677 51.547C26.0677 51.547 25.974 51.547 25.974 51.6424C26.0677 51.7377 26.0677 51.8331 26.1615 51.9285C25.8802 52.2146 25.6926 52.5007 25.4113 52.7868C25.4113 52.5961 25.4113 52.5007 25.3175 52.31C25.13 52.5961 24.8486 52.5961 24.8486 52.9776C24.8486 53.1683 24.5673 53.4544 24.3797 53.6452C24.1922 53.8359 23.9108 54.0267 23.7233 54.3128C23.5357 54.5035 23.2544 54.5989 23.4419 54.885C23.4419 54.885 23.4419 54.885 23.4419 54.9804C23.1606 55.2665 23.0668 55.5526 23.0668 55.9341C23.0668 56.0295 22.9731 56.1248 22.8793 56.1248C22.5979 56.3156 22.5042 56.6971 22.1291 56.8878C21.9415 56.9832 21.8477 57.2693 21.6602 57.5554L21.5664 57.6508C21.5664 57.9369 21.5664 57.9369 21.2851 57.8415C21.3788 58.1276 21.0975 58.4138 20.7224 58.5091C20.8162 58.6045 20.8162 58.6999 20.9099 58.7952L20.8162 58.8906C20.7224 59.0814 20.3473 59.1767 20.4411 59.5582C20.4411 59.6536 20.2535 59.749 20.0659 59.9397C20.0659 59.8443 19.9722 59.749 19.9722 59.749C20.1597 59.5582 20.0659 59.3675 20.0659 59.0814C20.0659 58.986 20.0659 58.986 20.0659 58.8906C20.2535 58.4138 20.4411 58.0323 20.6286 57.5554C20.7224 57.3647 20.8162 57.0785 21.0037 56.8878C21.2851 56.6971 21.4726 56.6017 21.6602 56.6017Z" fill="black"/>
<path d="M25.3175 42.1074C25.4113 42.2027 25.4113 42.2981 25.4113 42.2981C25.3175 42.6796 25.2237 43.0611 25.13 43.4426C25.13 43.5379 25.13 43.5379 25.13 43.6333C24.6611 44.2055 24.1922 44.7778 23.6295 45.2546C23.3482 45.4454 22.9731 45.4454 22.598 45.5407H22.5042C22.2229 46.0176 21.754 46.0176 21.2851 45.9222C21.0037 45.9222 20.8162 46.113 20.5349 46.2083C20.066 46.3037 19.6908 46.2083 19.222 46.0176C19.0344 45.9222 18.8468 45.9222 18.7531 45.7315C18.5655 45.35 18.4717 44.8731 18.378 44.4917C18.2842 44.1102 18.378 43.6333 18.2842 43.2518C18.2842 43.1564 18.2842 43.0611 18.2842 43.0611C18.4717 42.775 18.6593 42.5842 18.8468 42.2981C18.9406 42.1074 19.0344 41.9166 19.0344 41.7259C19.0344 41.6305 19.0344 41.5351 19.1282 41.4398C19.7846 40.486 20.7224 39.7231 21.5664 38.8647C22.0353 38.4832 22.4104 38.4832 22.7855 38.8647C22.8793 38.9601 23.0669 38.9601 23.1606 39.0555C23.442 39.2462 23.7233 39.437 24.0046 39.7231C24.1922 39.8184 24.1922 40.1046 24.5673 40.0092C24.6611 40.0092 25.0362 40.2953 25.0362 40.6768C25.0362 40.7722 25.13 40.8675 25.2237 40.9629C25.6926 41.3444 25.6926 41.7259 25.3175 42.1074ZM20.4411 42.4888C20.2535 42.8703 19.5971 42.9657 19.5971 43.6333C19.5971 43.9194 19.4095 44.1102 19.3157 44.3963C19.222 44.6824 19.5033 44.9685 19.8784 45.0639C20.1597 45.1593 20.4411 45.0639 20.7224 44.9685C21.0037 44.8731 21.3789 44.8731 21.5664 44.4917C21.5664 44.3963 21.6602 44.3963 21.6602 44.3963C22.0353 44.587 22.1291 44.2055 22.2229 44.1102C22.598 43.7287 23.0669 43.3472 23.3482 42.9657C23.5357 42.6796 23.7233 42.3935 23.9109 42.1074C23.9109 42.1074 23.9109 42.1074 23.9109 42.012C23.9109 41.7259 24.0046 41.3444 23.6295 41.1536C23.6295 41.1536 23.6295 41.0583 23.6295 40.9629C23.5357 40.7722 23.3482 40.486 23.3482 40.486C23.0669 40.5814 22.598 40.3907 22.4104 40.7722C22.3166 40.9629 22.0353 41.1536 21.8477 41.3444C21.754 41.4398 21.754 41.4398 21.6602 41.4398C21.3789 41.249 21.2851 41.5351 21.0975 41.7259C20.91 42.012 20.7224 42.2981 20.4411 42.4888Z" fill="black"/>
<path d="M31.2257 55.4572C31.2257 55.4572 31.3194 55.3619 31.4132 55.2665C31.6008 55.648 31.8821 55.9341 31.8821 56.4109C31.7883 56.8878 31.7883 57.2693 31.7883 57.7461C31.7883 57.8415 31.6945 57.9369 31.6945 58.0323C31.3194 58.6045 30.9443 58.6999 30.2879 58.6999C29.9128 58.6999 29.7252 58.4138 29.5377 58.1276C29.4439 58.0323 29.4439 57.7461 29.4439 57.5554H29.3501C29.5377 57.2693 29.819 56.9832 30.0065 56.6971C30.1003 56.6017 30.2879 56.5063 30.3817 56.5063C30.7568 56.6017 31.1319 56.5063 31.4132 56.3156C31.507 56.3156 31.6008 56.3156 31.6945 56.4109C31.507 56.0295 31.3194 55.7433 31.2257 55.4572Z" fill="white"/>
<path d="M20.4413 42.4866C20.7226 42.2005 20.9102 42.0098 21.1915 41.819C21.379 41.7237 21.4728 41.4375 21.7542 41.5329C21.7542 41.5329 21.8479 41.4375 21.9417 41.4375C22.1293 41.2468 22.4106 41.1514 22.5044 40.8653C22.7857 40.4838 23.1608 40.5792 23.4422 40.5792C23.5359 40.5792 23.6297 40.8653 23.7235 41.0561V41.2468C24.0986 41.4375 24.0048 41.819 24.0048 42.1051V42.2005C23.8173 42.4866 23.6297 42.7727 23.4422 43.0589C23.067 43.4403 22.6919 43.8218 22.3168 44.2033C22.1293 44.3941 22.0355 44.6802 21.7542 44.4894L21.6604 44.5848C21.4728 44.8709 21.0977 44.8709 20.8164 45.0617C20.535 45.157 20.3475 45.2524 19.9724 45.157C19.691 45.0617 19.3159 44.7756 19.4097 44.4894C19.5035 44.2033 19.691 44.0126 19.691 43.7265C19.5973 43.0589 20.2537 42.8681 20.4413 42.4866Z" fill="white"/>
</svg>
