<svg width="106" height="26" viewBox="0 0 106 26" fill="none" xmlns="http://www.w3.org/2000/svg">
<path d="M7.488 26L0.612 0.872H5.796L8.928 13.58L10.764 21.5H11.016L12.888 13.58L16.056 0.872H20.988L14.112 26H7.488ZM37.7499 26L35.9859 19.628H28.5339L26.8059 26H22.0539L29.1099 0.872H35.6619L42.7539 26H37.7499ZM32.4219 5.516H32.1339L29.3619 15.776H35.1939L32.4219 5.516ZM46.7719 26V0.872H51.4879V22.112H62.6119V26H46.7719ZM72.2458 26L65.3698 0.872H70.5538L73.6858 13.58L75.5218 21.5H75.7738L77.6458 13.58L80.8138 0.872H85.7458L78.8698 26H72.2458ZM89.3318 26V0.872H105.208V4.76H94.0478V11.312H104.812V15.2H94.0478V22.112H105.208V26H89.3318Z" fill="white"/>
</svg>
