<svg width="83" height="31" viewBox="0 0 83 31" fill="none" xmlns="http://www.w3.org/2000/svg">
<rect width="83" height="31" fill="#101215"/>
<path d="M12.584 24L8 7.24799H11.456L13.544 15.72L14.768 21H14.936L16.184 15.72L18.296 7.24799H21.584L17 24H12.584Z" fill="white"/>
<path d="M31.7586 24L30.5826 19.752H25.6146L24.4626 24H21.2946L25.9986 7.24799H30.3666L35.0946 24H31.7586ZM28.2066 10.344H28.0146L26.1666 17.184H30.0546L28.2066 10.344Z" fill="white"/>
<path d="M37.7733 24V7.24799H40.9173V21.408H48.3333V24H37.7733Z" fill="white"/>
<path d="M52.7559 24L48.1719 7.24799H51.6279L53.7159 15.72L54.9399 21H55.1079L56.3559 15.72L58.4679 7.24799H61.7559L57.1719 24H52.7559Z" fill="white"/>
<path d="M64.1465 24V7.24799H74.7305V9.83999H67.2905V14.208H74.4665V16.8H67.2905V21.408H74.7305V24H64.1465Z" fill="white"/>
</svg>
